<svg width="40" height="40" viewBox="0 0 40 40" fill="none" xmlns="http://www.w3.org/2000/svg">
<path fill-rule="evenodd" clip-rule="evenodd" d="M2 2H22V9H19V5H5V19H10V22H2V2Z" fill="#3C5DF6"/>
<path fill-rule="evenodd" clip-rule="evenodd" d="M14 9H26C28.2091 9 30 10.7909 30 13V16.4141C29.0463 16.1443 28.04 16 27 16V13C27 12.4477 26.5523 12 26 12H14C13.4477 12 13 12.4477 13 13V25C13 25.5523 13.4477 26 14 26H16.0448C16.0152 26.3294 16 26.6629 16 27C16 27.683 16.0622 28.3514 16.1814 29H14C11.7909 29 10 27.2091 10 25V13C10 10.7909 11.7909 9 14 9Z" fill="#3C5DF6"/>
<path fill-rule="evenodd" clip-rule="evenodd" d="M38 27C38 20.9249 33.0751 16 27 16C20.9249 16 16 20.9249 16 27C16 33.0751 20.9249 38 27 38C33.0751 38 38 33.0751 38 27ZM19 27C19 22.5817 22.5817 19 27 19C31.4183 19 35 22.5817 35 27C35 31.4183 31.4183 35 27 35C22.5817 35 19 31.4183 19 27Z" fill="#3C5DF6"/>
</svg>
