<svg width="42" height="42" viewBox="0 0 42 42" fill="none" xmlns="http://www.w3.org/2000/svg">
<g id="noun_Data_1357939">
<g id="Shape">
<path fill-rule="evenodd" clip-rule="evenodd" d="M1.05273 7.82563C1.05273 3.37875 11.0884 1.05188 21.0009 1.05188C30.914 1.05188 40.9484 3.37875 40.9484 7.82563V20.3517V34.1738C40.9484 38.6206 30.914 40.9475 21.0009 40.9475C11.0877 40.9475 1.05273 38.6206 1.05273 34.1738V8.1875H1.07836C1.06336 8.06813 1.05273 7.94813 1.05273 7.82563ZM38.4484 7.82563C38.4484 6.375 32.2902 3.55188 21.0009 3.55188C9.71148 3.55188 3.55273 6.375 3.55273 7.82563C3.55273 9.27625 9.71148 12.0994 21.0009 12.0994C32.2902 12.0994 38.4484 9.27625 38.4484 7.82563ZM38.4485 20.6386C38.4736 20.6354 38.6382 20.6093 38.6849 20.6015C38.6913 20.6023 38.6946 20.602 38.6938 20.6C38.6981 20.5993 38.6985 20.5991 38.6936 20.5998M38.6938 20.6C38.6917 20.6004 38.6887 20.6009 38.6849 20.6015C38.6771 20.6006 38.6646 20.5979 38.6495 20.5948C38.5837 20.5809 38.4662 20.5563 38.4484 20.6067V11.2856C34.8559 13.4706 27.9015 14.5994 21.0009 14.5994C14.1009 14.5994 7.14586 13.4713 3.55273 11.2863V20.9306C3.55555 20.9322 3.55773 20.9342 3.55992 20.9363C3.56211 20.9383 3.5643 20.9403 3.56711 20.9419C3.56625 20.9505 3.56312 20.9597 3.56001 20.9688C3.55637 20.9796 3.55273 20.9902 3.55273 21C3.55273 22.4494 9.71148 25.2731 21.0009 25.2731C32.2896 25.2731 38.4484 22.45 38.4484 21C38.4484 20.9732 38.4511 20.941 38.4542 20.9056C38.4612 20.8235 38.4697 20.7248 38.4485 20.6386M38.4484 20.6381V20.6067C38.4454 20.615 38.4452 20.6254 38.4484 20.6381ZM3.55273 34.1738C3.55273 35.6238 9.71148 38.4475 21.0009 38.4475C32.2902 38.4475 38.4484 35.6238 38.4484 34.1738C38.4484 34.1713 38.4471 34.1675 38.4471 34.1638C38.4476 34.1638 38.4479 34.1636 38.4481 34.1632C38.4484 34.1628 38.4484 34.162 38.4484 34.1613V24.4606C34.8559 26.6444 27.9015 27.7738 21.0009 27.7738C14.1009 27.7738 7.14586 26.6444 3.55273 24.4606V34.0444C3.5562 34.0504 3.55874 34.0571 3.56126 34.0636C3.56419 34.0713 3.56712 34.0789 3.57148 34.0856C3.56953 34.0971 3.56623 34.1088 3.56294 34.1205C3.55782 34.1386 3.55273 34.1566 3.55273 34.1738Z" fill="#ECE2CE"/>
<path d="M1.05273 8.1875V7.9375H0.802734V8.1875H1.05273ZM1.07836 8.1875V8.4375H1.36174L1.32641 8.15634L1.07836 8.1875ZM38.4485 20.6386L38.4094 20.3916L38.1407 20.4341L38.2057 20.6983L38.4485 20.6386ZM38.6936 20.5998L38.6594 20.3521L38.6546 20.3528L38.6936 20.5998ZM38.6495 20.5948L38.5981 20.8394L38.6495 20.5948ZM38.4484 11.2856H38.6984V10.841L38.3185 11.072L38.4484 11.2856ZM3.55273 11.2863L3.68263 11.0726L3.30273 10.8416V11.2863H3.55273ZM3.55273 20.9306H3.30273V21.0777L3.43133 21.1492L3.55273 20.9306ZM3.55992 20.9363L3.38978 21.1194L3.38982 21.1195L3.55992 20.9363ZM3.56711 20.9419L3.81587 20.9668L3.83223 20.8031L3.68848 20.7233L3.56711 20.9419ZM3.56001 20.9688L3.32334 20.8883L3.32333 20.8883L3.56001 20.9688ZM38.4542 20.9056L38.2051 20.8842L38.2051 20.8842L38.4542 20.9056ZM38.4484 20.6381L38.2057 20.6981L38.6984 20.6381H38.4484ZM38.4471 34.1638V33.9138H38.1971V34.1638H38.4471ZM38.4481 34.1632L38.6638 34.2895L38.664 34.2893L38.4481 34.1632ZM38.4484 24.4606H38.6984V24.0161L38.3185 24.247L38.4484 24.4606ZM3.55273 24.4606L3.68257 24.247L3.30273 24.0161V24.4606H3.55273ZM3.55273 34.0444H3.30273V34.1108L3.33568 34.1684L3.55273 34.0444ZM3.56126 34.0636L3.79469 33.9741L3.79469 33.9741L3.56126 34.0636ZM3.57148 34.0856L3.81794 34.1276L3.83434 34.0313L3.78108 33.9494L3.57148 34.0856ZM3.56294 34.1205L3.32233 34.0526L3.56294 34.1205ZM21.0009 0.80188C16.029 0.80188 11.0158 1.38501 7.237 2.53195C5.34897 3.10501 3.75264 3.82365 2.62319 4.6931C1.49259 5.56343 0.802734 6.60799 0.802734 7.82563H1.30273C1.30273 6.81983 1.86733 5.90595 2.92818 5.08931C3.99017 4.27179 5.52228 3.57493 7.38222 3.0104C11.0993 1.88219 16.0602 1.30188 21.0009 1.30188V0.80188ZM41.1984 7.82563C41.1984 6.60801 40.5086 5.56345 39.3781 4.69311C38.2488 3.82365 36.6526 3.10501 34.7646 2.53195C30.986 1.38501 25.973 0.80188 21.0009 0.80188V1.30188C25.9419 1.30188 30.9025 1.88219 34.6194 3.0104C36.4792 3.57492 38.0112 4.27179 39.0731 5.0893C40.1338 5.90594 40.6984 6.81982 40.6984 7.82563H41.1984ZM41.1984 20.3517V7.82563H40.6984V20.3517H41.1984ZM41.1984 34.1738V20.3517H40.6984V34.1738H41.1984ZM21.0009 41.1975C25.973 41.1975 30.986 40.6144 34.7646 39.4674C36.6526 38.8944 38.2488 38.1757 39.3781 37.3063C40.5086 36.4359 41.1984 35.3914 41.1984 34.1738H40.6984C40.6984 35.1796 40.1338 36.0934 39.0731 36.9101C38.0112 37.7276 36.4792 38.4245 34.6194 38.989C30.9025 40.1172 25.9419 40.6975 21.0009 40.6975V41.1975ZM0.802734 34.1738C0.802734 35.3914 1.49255 36.4359 2.62309 37.3063C3.7525 38.1757 5.34877 38.8944 7.23677 39.4674C11.0155 40.6144 16.0287 41.1975 21.0009 41.1975V40.6975C16.0599 40.6975 11.099 40.1172 7.38199 38.989C5.52209 38.4245 3.99004 37.7276 2.9281 36.9101C1.8673 36.0934 1.30273 35.1796 1.30273 34.1738H0.802734ZM0.802734 8.1875V34.1738H1.30273V8.1875H0.802734ZM1.07836 7.9375H1.05273V8.4375H1.07836V7.9375ZM0.802734 7.82563C0.802734 7.96233 0.814588 8.09355 0.83031 8.21867L1.32641 8.15634C1.31213 8.04271 1.30273 7.93393 1.30273 7.82563H0.802734ZM21.0009 3.80188C26.6261 3.80188 30.9631 4.50539 33.8861 5.38418C35.349 5.82398 36.4491 6.30511 37.1777 6.75818C37.5426 6.98504 37.8055 7.19943 37.9742 7.39082C38.1462 7.58601 38.1984 7.73167 38.1984 7.82563H38.6984C38.6984 7.55694 38.558 7.29705 38.3492 7.06018C38.1371 6.81953 37.8306 6.57537 37.4418 6.33357C36.663 5.84932 35.518 5.35267 34.0301 4.90536C31.0517 4.00993 26.665 3.30188 21.0009 3.30188V3.80188ZM3.80273 7.82563C3.80273 7.73168 3.85486 7.58602 4.02694 7.39083C4.19568 7.19944 4.45856 6.98504 4.82344 6.75818C5.55214 6.30511 6.65233 5.82398 8.11526 5.38419C11.0384 4.50539 15.3756 3.80188 21.0009 3.80188V3.30188C15.3368 3.30188 10.9498 4.00993 7.97131 4.90536C6.48337 5.35267 5.33829 5.84931 4.55943 6.33356C4.17053 6.57537 3.86406 6.81952 3.65189 7.06017C3.44307 7.29703 3.30273 7.55693 3.30273 7.82563H3.80273ZM21.0009 11.8494C15.3756 11.8494 11.0384 11.1459 8.11526 10.2671C6.65233 9.82728 5.55214 9.34615 4.82344 8.89308C4.45856 8.66621 4.19568 8.45182 4.02694 8.26043C3.85486 8.06524 3.80273 7.91958 3.80273 7.82563H3.30273C3.30273 8.09433 3.44307 8.35423 3.65189 8.59108C3.86406 8.83174 4.17053 9.07589 4.55943 9.31769C5.33829 9.80195 6.48337 10.2986 7.97131 10.7459C10.9498 11.6413 15.3368 12.3494 21.0009 12.3494V11.8494ZM38.1984 7.82563C38.1984 7.91959 38.1462 8.06525 37.9742 8.26043C37.8055 8.45183 37.5426 8.66622 37.1777 8.89308C36.4491 9.34615 35.349 9.82728 33.8861 10.2671C30.9631 11.1459 26.6261 11.8494 21.0009 11.8494V12.3494C26.665 12.3494 31.0517 11.6413 34.0301 10.7459C35.518 10.2986 36.663 9.80194 37.4418 9.31769C37.8306 9.07589 38.1371 8.83173 38.3492 8.59108C38.558 8.35421 38.6984 8.09432 38.6984 7.82563H38.1984ZM38.6438 20.3549C38.6217 20.3586 38.5698 20.3669 38.5198 20.3748C38.4949 20.3787 38.4709 20.3824 38.4516 20.3854C38.442 20.3869 38.4338 20.3881 38.4274 20.389C38.4242 20.3895 38.4216 20.3899 38.4196 20.3902C38.4175 20.3905 38.4167 20.3906 38.4169 20.3906L38.48 20.8866C38.5108 20.8826 38.6803 20.8557 38.726 20.8481L38.6438 20.3549ZM38.4643 20.6994C38.4532 20.6736 38.4397 20.6302 38.4451 20.5758C38.451 20.5167 38.4774 20.4652 38.514 20.4274C38.5741 20.3653 38.645 20.3561 38.6553 20.3546C38.6772 20.3513 38.6942 20.3519 38.7001 20.3522C38.7078 20.3525 38.7135 20.3532 38.7158 20.3535L38.6539 20.8496C38.6572 20.85 38.6901 20.8549 38.7288 20.8491C38.7406 20.8474 38.8126 20.8378 38.8733 20.7751C38.9102 20.7369 38.9367 20.6851 38.9427 20.6256C38.9481 20.5708 38.9346 20.527 38.9232 20.5007L38.4643 20.6994ZM38.737 20.8462C38.7385 20.846 38.7411 20.8455 38.744 20.845C38.745 20.8448 38.7485 20.8441 38.7529 20.8431C38.7544 20.8427 38.7604 20.8414 38.7678 20.8392C38.7708 20.8383 38.7801 20.8355 38.7916 20.8309C38.7969 20.8287 38.8088 20.8236 38.823 20.8154C38.8283 20.8123 38.8735 20.7875 38.9077 20.7342C38.9281 20.7023 38.9537 20.6455 38.9457 20.5722C38.9375 20.4971 38.8984 20.4448 38.8665 20.4155C38.8153 20.3683 38.7592 20.3571 38.7537 20.3558C38.7255 20.3493 38.7022 20.3494 38.7005 20.3494C38.6885 20.3492 38.679 20.35 38.6778 20.3501C38.6723 20.3505 38.6679 20.351 38.6669 20.3512C38.6638 20.3515 38.6609 20.3519 38.6594 20.3521L38.7279 20.8474C38.7288 20.8473 38.7277 20.8475 38.7257 20.8477C38.7254 20.8477 38.7214 20.8482 38.7161 20.8486C38.7151 20.8487 38.7057 20.8495 38.6937 20.8493C38.6921 20.8493 38.6688 20.8494 38.6406 20.8429C38.6351 20.8416 38.579 20.8304 38.5278 20.7833C38.4959 20.7539 38.4569 20.7017 38.4487 20.6265C38.4406 20.5532 38.4662 20.4964 38.4867 20.4645C38.5208 20.4112 38.5661 20.3864 38.5713 20.3833C38.5855 20.3751 38.5974 20.3701 38.6027 20.3679C38.6142 20.3632 38.6234 20.3605 38.6264 20.3596C38.6338 20.3574 38.6396 20.3561 38.641 20.3558C38.6451 20.3548 38.6482 20.3542 38.6486 20.3542C38.6503 20.3538 38.6512 20.3537 38.6505 20.3538L38.737 20.8462ZM38.6546 20.3528L38.4094 20.3916L38.4875 20.8855L38.7327 20.8467L38.6546 20.3528ZM38.7259 20.8481C38.73 20.8475 38.7338 20.8468 38.737 20.8463L38.6505 20.3538C38.6495 20.354 38.6473 20.3543 38.6439 20.3549L38.7259 20.8481ZM38.5981 20.8394C38.6078 20.8415 38.6331 20.847 38.6539 20.8496L38.7159 20.3535C38.7176 20.3537 38.7189 20.3539 38.7196 20.354C38.7203 20.3541 38.7207 20.3542 38.7207 20.3542C38.7207 20.3542 38.7205 20.3541 38.72 20.354C38.7196 20.3539 38.7189 20.3538 38.718 20.3536C38.714 20.3529 38.7089 20.3518 38.7008 20.3501L38.5981 20.8394ZM38.6841 20.6899C38.67 20.7299 38.6454 20.762 38.6177 20.7847C38.5918 20.8058 38.5673 20.8156 38.5529 20.8202C38.5273 20.8282 38.5124 20.8261 38.5209 20.8264C38.536 20.827 38.5607 20.8316 38.5981 20.8394L38.7008 20.3501C38.6724 20.3441 38.6054 20.3294 38.5409 20.3268C38.5096 20.3256 38.4579 20.3259 38.4032 20.3431C38.3452 20.3613 38.2526 20.4102 38.2126 20.5236L38.6841 20.6899ZM38.6984 20.6067V11.2856H38.1984V20.6067H38.6984ZM38.3185 11.072C36.5604 12.1413 33.9584 12.9628 30.9204 13.5159C27.8871 14.0682 24.4385 14.3494 21.0009 14.3494V14.8494C24.4638 14.8494 27.9428 14.5662 31.0099 14.0078C34.0724 13.4503 36.7439 12.6149 38.5783 11.4992L38.3185 11.072ZM21.0009 14.3494C17.5635 14.3494 14.1149 14.0683 11.0815 13.5162C8.04329 12.9633 5.44102 12.1419 3.68263 11.0726L3.42284 11.4999C5.25758 12.6156 7.92937 13.4508 10.992 14.0082C14.0593 14.5664 17.5382 14.8494 21.0009 14.8494V14.3494ZM3.30273 11.2863V20.9306H3.80273V11.2863H3.30273ZM3.43133 21.1492C3.41645 21.1409 3.40535 21.1326 3.39841 21.1269C3.39242 21.122 3.38778 21.1176 3.38978 21.1194L3.73006 20.7531C3.72988 20.7529 3.72305 20.7465 3.71471 20.7396C3.70543 20.7321 3.69183 20.7219 3.67414 20.7121L3.43133 21.1492ZM3.38982 21.1195C3.39 21.1196 3.39683 21.1261 3.40517 21.1329C3.41445 21.1405 3.42805 21.1506 3.44574 21.1604L3.68848 20.7233C3.70335 20.7316 3.71445 20.7399 3.72139 20.7456C3.72738 20.7505 3.73203 20.7549 3.73002 20.753L3.38982 21.1195ZM3.31835 20.917C3.31992 20.9013 3.32293 20.8903 3.32384 20.8871C3.32439 20.8852 3.32474 20.8841 3.32462 20.8845C3.32446 20.885 3.3242 20.8858 3.32334 20.8883L3.79669 21.0494C3.79747 21.0471 3.8116 21.0094 3.81587 20.9668L3.31835 20.917ZM3.32333 20.8883C3.3221 20.8919 3.31717 20.9061 3.3131 20.9217C3.30895 20.9376 3.30273 20.9656 3.30273 21H3.80273C3.80273 21.0247 3.79834 21.0424 3.79692 21.0479C3.79557 21.053 3.79428 21.0564 3.79669 21.0494L3.32333 20.8883ZM3.30273 21C3.30273 21.2686 3.44313 21.5284 3.65193 21.7651C3.8641 22.0057 4.17056 22.2497 4.55946 22.4915C5.3383 22.9756 6.48337 23.4722 7.97131 23.9195C10.9498 24.8149 15.3368 25.5231 21.0009 25.5231V25.0231C15.3756 25.0231 11.0385 24.3195 8.11526 23.4407C6.65233 23.0009 5.55213 22.5198 4.82342 22.0668C4.45853 21.84 4.19564 21.6257 4.02691 21.4344C3.8548 21.2393 3.80273 21.0937 3.80273 21H3.30273ZM21.0009 25.5231C26.6646 25.5231 31.0514 24.8151 34.0299 23.9197C35.5178 23.4725 36.6628 22.9759 37.4417 22.4917C37.8306 22.25 38.137 22.0059 38.3492 21.7653C38.558 21.5285 38.6984 21.2687 38.6984 21H38.1984C38.1984 21.0938 38.1463 21.2394 37.9742 21.4346C37.8054 21.6259 37.5426 21.8403 37.1777 22.0671C36.449 22.5201 35.3488 23.0011 33.8859 23.4409C30.9628 24.3196 26.6258 25.0231 21.0009 25.0231V25.5231ZM38.6984 21C38.6984 20.9862 38.6999 20.9658 38.7032 20.9269L38.2051 20.8842C38.2023 20.9161 38.1984 20.9602 38.1984 21H38.6984ZM38.7032 20.9269C38.7095 20.8539 38.724 20.7123 38.6912 20.5788L38.2057 20.6983C38.2153 20.7372 38.2129 20.7932 38.2051 20.8842L38.7032 20.9269ZM38.4873 20.8855L38.7326 20.847L38.655 20.3531L38.4097 20.3916L38.4873 20.8855ZM38.6984 20.6381V20.6067H38.1984V20.6381H38.6984ZM38.6911 20.5782C38.6958 20.5972 38.702 20.6391 38.6841 20.6899L38.2126 20.5236C38.1888 20.591 38.1946 20.6535 38.2057 20.6981L38.6911 20.5782ZM21.0009 38.1975C15.3756 38.1975 11.0385 37.4938 8.11526 36.615C6.65234 36.1751 5.55214 35.694 4.82343 35.2409C4.45855 35.0141 4.19567 34.7997 4.02693 34.6084C3.85483 34.4132 3.80273 34.2676 3.80273 34.1738H3.30273C3.30273 34.4424 3.4431 34.7023 3.65191 34.939C3.86407 35.1797 4.17054 35.4238 4.55944 35.6656C5.33829 36.1498 6.48336 36.6464 7.9713 37.0938C10.9498 37.9893 15.3368 38.6975 21.0009 38.6975V38.1975ZM38.1984 34.1738C38.1984 34.2676 38.1463 34.4132 37.9742 34.6084C37.8055 34.7997 37.5426 35.0141 37.1778 35.2409C36.4491 35.694 35.349 36.1751 33.8861 36.615C30.9631 37.4938 26.6261 38.1975 21.0009 38.1975V38.6975C26.665 38.6975 31.0517 37.9893 34.0301 37.0938C35.518 36.6464 36.663 36.1498 37.4418 35.6656C37.8306 35.4238 38.1371 35.1796 38.3492 34.939C38.558 34.7022 38.6984 34.4424 38.6984 34.1738H38.1984ZM38.1971 34.1638C38.1971 34.1783 38.1983 34.1903 38.1993 34.1982C38.2003 34.206 38.2015 34.2123 38.2018 34.214C38.2019 34.2145 38.202 34.215 38.202 34.215C38.202 34.2152 38.202 34.215 38.2019 34.2147C38.2018 34.2143 38.2015 34.2123 38.2011 34.2097C38.2007 34.2071 38.2 34.2027 38.1995 34.1972C38.199 34.1917 38.1984 34.1836 38.1984 34.1738H38.6984C38.6984 34.1633 38.6977 34.1546 38.6971 34.1484C38.6965 34.1421 38.6958 34.137 38.6953 34.1336C38.6947 34.1302 38.6942 34.1275 38.694 34.1262C38.6939 34.1255 38.6938 34.125 38.6937 34.1247C38.6937 34.1243 38.6937 34.1244 38.6937 34.1245C38.6937 34.1246 38.6939 34.1258 38.6942 34.1274C38.6945 34.1291 38.6949 34.1317 38.6953 34.1349C38.6961 34.141 38.6971 34.1511 38.6971 34.1638H38.1971ZM38.2323 34.037C38.2514 34.0044 38.2819 33.9696 38.3268 33.9448C38.3708 33.9205 38.4141 33.9138 38.4471 33.9138V34.4138C38.4806 34.4138 38.5243 34.4069 38.5686 34.3824C38.6139 34.3574 38.6446 34.3224 38.6638 34.2895L38.2323 34.037ZM38.1984 34.1613C38.1984 34.1646 38.1981 34.1518 38.1996 34.1372C38.2004 34.1288 38.2022 34.1156 38.2063 34.0997C38.2105 34.084 38.2179 34.0616 38.2322 34.0372L38.664 34.2893C38.691 34.2431 38.6957 34.2005 38.6971 34.1875C38.698 34.1786 38.6982 34.1715 38.6983 34.1677C38.6983 34.1656 38.6983 34.164 38.6984 34.163C38.6984 34.1625 38.6984 34.162 38.6984 34.1618C38.6984 34.1615 38.6984 34.1613 38.6984 34.1613H38.1984ZM38.1984 24.4606V34.1613H38.6984V24.4606H38.1984ZM21.0009 28.0238C24.4638 28.0238 27.9428 27.7405 31.0099 27.1821C34.0724 26.6245 36.7438 25.7893 38.5782 24.6743L38.3185 24.247C36.5604 25.3157 33.9584 26.1371 30.9204 26.6901C27.8871 27.2424 24.4385 27.5238 21.0009 27.5238V28.0238ZM3.42289 24.6743C5.2576 25.7893 7.92936 26.6245 10.9919 27.1821C14.0593 27.7405 17.5382 28.0238 21.0009 28.0238V27.5238C17.5635 27.5238 14.115 27.2424 11.0815 26.6901C8.0433 26.137 5.44099 25.3157 3.68257 24.247L3.42289 24.6743ZM3.80273 34.0444V24.4606H3.30273V34.0444H3.80273ZM3.79469 33.9741C3.79339 33.9708 3.78438 33.9459 3.76979 33.9203L3.33568 34.1684C3.33116 34.1605 3.32847 34.1544 3.32748 34.1521C3.32695 34.1509 3.32668 34.1502 3.32678 34.1504C3.32692 34.1508 3.32713 34.1513 3.32783 34.1531L3.79469 33.9741ZM3.78108 33.9494C3.78838 33.9606 3.79261 33.9697 3.79433 33.9735C3.79523 33.9756 3.79574 33.9769 3.79575 33.9769C3.79576 33.9769 3.79569 33.9767 3.79551 33.9763C3.79531 33.9757 3.79508 33.9752 3.79469 33.9741L3.32783 34.1531C3.329 34.1562 3.34066 34.1893 3.36189 34.2219L3.78108 33.9494ZM3.80354 34.1884C3.80612 34.1792 3.81335 34.1545 3.81794 34.1276L3.32503 34.0437C3.32555 34.0406 3.32591 34.0395 3.32543 34.0413C3.32488 34.0435 3.32413 34.0462 3.32233 34.0526L3.80354 34.1884ZM3.80273 34.1738C3.80273 34.1818 3.80214 34.1881 3.80161 34.1923C3.80108 34.1964 3.80052 34.1992 3.80036 34.1999C3.8002 34.2007 3.80025 34.2003 3.80082 34.1982C3.80143 34.1959 3.80217 34.1932 3.80354 34.1884L3.32233 34.0526C3.31951 34.0626 3.30273 34.1155 3.30273 34.1738H3.80273Z" fill="#ECE2CE"/>
</g>
</g>
</svg>
