<svg width="42" height="42" viewBox="0 0 42 42" fill="none" xmlns="http://www.w3.org/2000/svg">
<path fill-rule="evenodd" clip-rule="evenodd" d="M1.05176 7.82563C1.05176 3.37875 11.0874 1.05188 20.9999 1.05188C30.913 1.05188 40.9474 3.37875 40.9474 7.82563V20.3517V34.1738C40.9474 38.6206 30.913 40.9475 20.9999 40.9475C11.0868 40.9475 1.05176 38.6206 1.05176 34.1738V8.1875H1.07738C1.06238 8.06813 1.05176 7.94813 1.05176 7.82563ZM38.4474 7.82563C38.4474 6.375 32.2893 3.55188 20.9999 3.55188C9.71051 3.55188 3.55176 6.375 3.55176 7.82563C3.55176 9.27625 9.71051 12.0994 20.9999 12.0994C32.2893 12.0994 38.4474 9.27625 38.4474 7.82563ZM38.4475 20.6386C38.4726 20.6354 38.6372 20.6093 38.6839 20.6015C38.6903 20.6023 38.6937 20.602 38.6928 20.6C38.6972 20.5993 38.6975 20.5991 38.6927 20.5998M38.6928 20.6C38.6907 20.6004 38.6877 20.6009 38.6839 20.6015C38.6761 20.6006 38.6637 20.5979 38.6485 20.5948C38.5827 20.5809 38.4652 20.5563 38.4474 20.6067V11.2856C34.8549 13.4706 27.9005 14.5994 20.9999 14.5994C14.0999 14.5994 7.14488 13.4713 3.55176 11.2863V20.9306C3.55457 20.9322 3.55676 20.9342 3.55894 20.9363C3.56113 20.9383 3.56332 20.9403 3.56613 20.9419C3.56527 20.9505 3.56215 20.9597 3.55903 20.9688C3.55539 20.9796 3.55176 20.9902 3.55176 21C3.55176 22.4494 9.71051 25.2731 20.9999 25.2731C32.2886 25.2731 38.4474 22.45 38.4474 21C38.4474 20.9732 38.4501 20.941 38.4532 20.9056C38.4602 20.8235 38.4687 20.7248 38.4475 20.6386M38.4474 20.6381V20.6067C38.4445 20.615 38.4442 20.6254 38.4474 20.6381ZM3.55176 34.1738C3.55176 35.6238 9.71051 38.4475 20.9999 38.4475C32.2893 38.4475 38.4474 35.6238 38.4474 34.1738C38.4474 34.1713 38.4461 34.1675 38.4461 34.1638C38.4466 34.1638 38.4469 34.1636 38.4471 34.1632C38.4474 34.1628 38.4474 34.162 38.4474 34.1613V24.4606C34.8549 26.6444 27.9005 27.7738 20.9999 27.7738C14.0999 27.7738 7.14488 26.6444 3.55176 24.4606V34.0444C3.55523 34.0504 3.55776 34.0571 3.56028 34.0636C3.56322 34.0713 3.56614 34.0789 3.57051 34.0856C3.56855 34.0971 3.56525 34.1088 3.56196 34.1205C3.55685 34.1386 3.55176 34.1566 3.55176 34.1738Z" fill="#E00000"/>
<path d="M1.05176 8.1875V7.9375H0.801758V8.1875H1.05176ZM1.07738 8.1875V8.4375H1.36076L1.32543 8.15634L1.07738 8.1875ZM38.4475 20.6386L38.4084 20.3916L38.1398 20.4341L38.2047 20.6983L38.4475 20.6386ZM38.6927 20.5998L38.6584 20.3521L38.6536 20.3528L38.6927 20.5998ZM38.6485 20.5948L38.5971 20.8394L38.6485 20.5948ZM38.4474 11.2856H38.6974V10.841L38.3175 11.072L38.4474 11.2856ZM3.55176 11.2863L3.68165 11.0726L3.30176 10.8416V11.2863H3.55176ZM3.55176 20.9306H3.30176V21.0777L3.43035 21.1492L3.55176 20.9306ZM3.55894 20.9363L3.38881 21.1194L3.38885 21.1195L3.55894 20.9363ZM3.56613 20.9419L3.81489 20.9668L3.83125 20.8031L3.6875 20.7233L3.56613 20.9419ZM3.55903 20.9688L3.32236 20.8883L3.32236 20.8883L3.55903 20.9688ZM38.4532 20.9056L38.2041 20.8842L38.2041 20.8842L38.4532 20.9056ZM38.4474 20.6381L38.2047 20.6981L38.6974 20.6381H38.4474ZM38.4461 34.1638V33.9138H38.1961V34.1638H38.4461ZM38.4471 34.1632L38.6629 34.2895L38.663 34.2893L38.4471 34.1632ZM38.4474 24.4606H38.6974V24.0161L38.3175 24.247L38.4474 24.4606ZM3.55176 24.4606L3.6816 24.247L3.30176 24.0161V24.4606H3.55176ZM3.55176 34.0444H3.30176V34.1108L3.33471 34.1684L3.55176 34.0444ZM3.56028 34.0636L3.79371 33.9741L3.79371 33.9741L3.56028 34.0636ZM3.57051 34.0856L3.81696 34.1276L3.83336 34.0313L3.78011 33.9494L3.57051 34.0856ZM3.56196 34.1205L3.32135 34.0526L3.56196 34.1205ZM20.9999 0.80188C16.0281 0.80188 11.0149 1.38501 7.23602 2.53195C5.34799 3.10501 3.75166 3.82365 2.62221 4.6931C1.49162 5.56343 0.801758 6.60799 0.801758 7.82563H1.30176C1.30176 6.81983 1.86635 5.90595 2.92721 5.08931C3.98919 4.27179 5.5213 3.57493 7.38124 3.0104C11.0984 1.88219 16.0592 1.30188 20.9999 1.30188V0.80188ZM41.1974 7.82563C41.1974 6.60801 40.5076 5.56345 39.3771 4.69311C38.2478 3.82365 36.6516 3.10501 34.7637 2.53195C30.9851 1.38501 25.972 0.80188 20.9999 0.80188V1.30188C25.9409 1.30188 30.9016 1.88219 34.6184 3.0104C36.4783 3.57492 38.0102 4.27179 39.0721 5.0893C40.1329 5.90594 40.6974 6.81982 40.6974 7.82563H41.1974ZM41.1974 20.3517V7.82563H40.6974V20.3517H41.1974ZM41.1974 34.1738V20.3517H40.6974V34.1738H41.1974ZM20.9999 41.1975C25.972 41.1975 30.9851 40.6144 34.7637 39.4674C36.6516 38.8944 38.2478 38.1757 39.3771 37.3063C40.5076 36.4359 41.1974 35.3914 41.1974 34.1738H40.6974C40.6974 35.1796 40.1329 36.0934 39.0721 36.9101C38.0102 37.7276 36.4783 38.4245 34.6184 38.989C30.9016 40.1172 25.9409 40.6975 20.9999 40.6975V41.1975ZM0.801758 34.1738C0.801758 35.3914 1.49157 36.4359 2.62212 37.3063C3.75152 38.1757 5.3478 38.8944 7.23579 39.4674C11.0145 40.6144 16.0278 41.1975 20.9999 41.1975V40.6975C16.0589 40.6975 11.098 40.1172 7.38101 38.989C5.52111 38.4245 3.98906 37.7276 2.92712 36.9101C1.86632 36.0934 1.30176 35.1796 1.30176 34.1738H0.801758ZM0.801758 8.1875V34.1738H1.30176V8.1875H0.801758ZM1.07738 7.9375H1.05176V8.4375H1.07738V7.9375ZM0.801758 7.82563C0.801758 7.96233 0.813611 8.09355 0.829333 8.21867L1.32543 8.15634C1.31115 8.04271 1.30176 7.93393 1.30176 7.82563H0.801758ZM20.9999 3.80188C26.6252 3.80188 30.9621 4.50539 33.8852 5.38418C35.348 5.82398 36.4481 6.30511 37.1768 6.75818C37.5416 6.98504 37.8045 7.19943 37.9732 7.39082C38.1453 7.58601 38.1974 7.73167 38.1974 7.82563H38.6974C38.6974 7.55694 38.5571 7.29705 38.3483 7.06018C38.1361 6.81953 37.8297 6.57537 37.4408 6.33357C36.662 5.84932 35.517 5.35267 34.0291 4.90536C31.0508 4.00993 26.664 3.30188 20.9999 3.30188V3.80188ZM3.80176 7.82563C3.80176 7.73168 3.85388 7.58602 4.02597 7.39083C4.19471 7.19944 4.45759 6.98504 4.82246 6.75818C5.55117 6.30511 6.65136 5.82398 8.11428 5.38419C11.0375 4.50539 15.3746 3.80188 20.9999 3.80188V3.30188C15.3358 3.30188 10.9489 4.00993 7.97033 4.90536C6.48239 5.35267 5.33731 5.84931 4.55846 6.33356C4.16955 6.57537 3.86308 6.81952 3.65091 7.06017C3.44209 7.29703 3.30176 7.55693 3.30176 7.82563H3.80176ZM20.9999 11.8494C15.3746 11.8494 11.0375 11.1459 8.11428 10.2671C6.65136 9.82728 5.55117 9.34615 4.82246 8.89308C4.45759 8.66621 4.19471 8.45182 4.02597 8.26043C3.85388 8.06524 3.80176 7.91958 3.80176 7.82563H3.30176C3.30176 8.09433 3.44209 8.35423 3.65091 8.59108C3.86308 8.83174 4.16955 9.07589 4.55846 9.31769C5.33731 9.80195 6.48239 10.2986 7.97033 10.7459C10.9489 11.6413 15.3358 12.3494 20.9999 12.3494V11.8494ZM38.1974 7.82563C38.1974 7.91959 38.1453 8.06525 37.9732 8.26043C37.8045 8.45183 37.5416 8.66622 37.1768 8.89308C36.4481 9.34615 35.348 9.82728 33.8852 10.2671C30.9621 11.1459 26.6252 11.8494 20.9999 11.8494V12.3494C26.664 12.3494 31.0508 11.6413 34.0291 10.7459C35.517 10.2986 36.662 9.80194 37.4408 9.31769C37.8297 9.07589 38.1361 8.83173 38.3483 8.59108C38.5571 8.35421 38.6974 8.09432 38.6974 7.82563H38.1974ZM38.6428 20.3549C38.6207 20.3586 38.5689 20.3669 38.5188 20.3748C38.4939 20.3787 38.4699 20.3824 38.4507 20.3854C38.441 20.3869 38.4328 20.3881 38.4264 20.389C38.4232 20.3895 38.4206 20.3899 38.4187 20.3902C38.4165 20.3905 38.4157 20.3906 38.4159 20.3906L38.4791 20.8866C38.5098 20.8826 38.6794 20.8557 38.725 20.8481L38.6428 20.3549ZM38.4634 20.6994C38.4522 20.6736 38.4387 20.6302 38.4442 20.5758C38.4501 20.5167 38.4764 20.4652 38.513 20.4274C38.5731 20.3653 38.6441 20.3561 38.6543 20.3546C38.6762 20.3513 38.6932 20.3519 38.6992 20.3522C38.7068 20.3525 38.7125 20.3532 38.7149 20.3535L38.6529 20.8496C38.6562 20.85 38.6891 20.8549 38.7279 20.8491C38.7396 20.8474 38.8116 20.8378 38.8723 20.7751C38.9092 20.7369 38.9357 20.6851 38.9417 20.6256C38.9472 20.5708 38.9336 20.527 38.9222 20.5007L38.4634 20.6994ZM38.7361 20.8462C38.7375 20.846 38.7402 20.8455 38.743 20.845C38.744 20.8448 38.7475 20.8441 38.7519 20.8431C38.7535 20.8427 38.7594 20.8414 38.7668 20.8392C38.7699 20.8383 38.7791 20.8355 38.7906 20.8309C38.7959 20.8287 38.8078 20.8236 38.822 20.8154C38.8273 20.8123 38.8725 20.7875 38.9067 20.7342C38.9271 20.7023 38.9527 20.6455 38.9447 20.5722C38.9365 20.4971 38.8975 20.4448 38.8656 20.4155C38.8144 20.3683 38.7582 20.3571 38.7527 20.3558C38.7245 20.3493 38.7012 20.3494 38.6996 20.3494C38.6875 20.3492 38.678 20.35 38.6768 20.3501C38.6713 20.3505 38.6669 20.351 38.666 20.3512C38.6628 20.3515 38.66 20.3519 38.6584 20.3521L38.7269 20.8474C38.7278 20.8473 38.7267 20.8475 38.7247 20.8477C38.7244 20.8477 38.7204 20.8482 38.7152 20.8486C38.7141 20.8487 38.7047 20.8495 38.6928 20.8493C38.6911 20.8493 38.6679 20.8494 38.6397 20.8429C38.6342 20.8416 38.578 20.8304 38.5268 20.7833C38.4949 20.7539 38.4559 20.7017 38.4477 20.6265C38.4397 20.5532 38.4652 20.4964 38.4857 20.4645C38.5198 20.4112 38.5651 20.3864 38.5704 20.3833C38.5845 20.3751 38.5964 20.3701 38.6018 20.3679C38.6132 20.3632 38.6224 20.3605 38.6254 20.3596C38.6328 20.3574 38.6386 20.3561 38.64 20.3558C38.6441 20.3548 38.6472 20.3542 38.6476 20.3542C38.6493 20.3538 38.6502 20.3537 38.6495 20.3538L38.7361 20.8462ZM38.6536 20.3528L38.4084 20.3916L38.4865 20.8855L38.7317 20.8467L38.6536 20.3528ZM38.7249 20.8481C38.729 20.8475 38.7329 20.8468 38.7361 20.8463L38.6495 20.3538C38.6485 20.354 38.6464 20.3543 38.6429 20.3549L38.7249 20.8481ZM38.5971 20.8394C38.6068 20.8415 38.6321 20.847 38.6529 20.8496L38.7149 20.3535C38.7166 20.3537 38.7179 20.3539 38.7186 20.354C38.7193 20.3541 38.7197 20.3542 38.7197 20.3542C38.7198 20.3542 38.7196 20.3541 38.7191 20.354C38.7186 20.3539 38.7179 20.3538 38.7171 20.3536C38.713 20.3529 38.7079 20.3518 38.6998 20.3501L38.5971 20.8394ZM38.6831 20.6899C38.669 20.7299 38.6445 20.762 38.6167 20.7847C38.5909 20.8058 38.5663 20.8156 38.5519 20.8202C38.5263 20.8282 38.5114 20.8261 38.52 20.8264C38.5351 20.827 38.5598 20.8316 38.5971 20.8394L38.6998 20.3501C38.6714 20.3441 38.6045 20.3294 38.5399 20.3268C38.5086 20.3256 38.4569 20.3259 38.4022 20.3431C38.3442 20.3613 38.2516 20.4102 38.2116 20.5236L38.6831 20.6899ZM38.6974 20.6067V11.2856H38.1974V20.6067H38.6974ZM38.3175 11.072C36.5594 12.1413 33.9574 12.9628 30.9194 13.5159C27.8861 14.0682 24.4376 14.3494 20.9999 14.3494V14.8494C24.4628 14.8494 27.9418 14.5662 31.009 14.0078C34.0714 13.4503 36.7429 12.6149 38.5773 11.4992L38.3175 11.072ZM20.9999 14.3494C17.5625 14.3494 14.114 14.0683 11.0805 13.5162C8.04231 12.9633 5.44004 12.1419 3.68165 11.0726L3.42186 11.4999C5.2566 12.6156 7.92839 13.4508 10.991 14.0082C14.0583 14.5664 17.5373 14.8494 20.9999 14.8494V14.3494ZM3.30176 11.2863V20.9306H3.80176V11.2863H3.30176ZM3.43035 21.1492C3.41547 21.1409 3.40437 21.1326 3.39743 21.1269C3.39144 21.122 3.3868 21.1176 3.38881 21.1194L3.72908 20.7531C3.7289 20.7529 3.72207 20.7465 3.71374 20.7396C3.70446 20.7321 3.69086 20.7219 3.67317 20.7121L3.43035 21.1492ZM3.38885 21.1195C3.38903 21.1196 3.39586 21.1261 3.40419 21.1329C3.41347 21.1405 3.42707 21.1506 3.44476 21.1604L3.6875 20.7233C3.70238 20.7316 3.71348 20.7399 3.72042 20.7456C3.72641 20.7505 3.73105 20.7549 3.72904 20.753L3.38885 21.1195ZM3.31737 20.917C3.31894 20.9013 3.32196 20.8903 3.32286 20.8871C3.32341 20.8852 3.32377 20.8841 3.32365 20.8845C3.32348 20.885 3.32323 20.8858 3.32236 20.8883L3.79571 21.0494C3.79649 21.0471 3.81063 21.0094 3.81489 20.9668L3.31737 20.917ZM3.32236 20.8883C3.32112 20.8919 3.31619 20.9061 3.31212 20.9217C3.30797 20.9376 3.30176 20.9656 3.30176 21H3.80176C3.80176 21.0247 3.79736 21.0424 3.79594 21.0479C3.7946 21.053 3.7933 21.0564 3.79571 21.0494L3.32236 20.8883ZM3.30176 21C3.30176 21.2686 3.44215 21.5284 3.65095 21.7651C3.86312 22.0057 4.16958 22.2497 4.55848 22.4915C5.33732 22.9756 6.4824 23.4722 7.97033 23.9195C10.9489 24.8149 15.3358 25.5231 20.9999 25.5231V25.0231C15.3746 25.0231 11.0375 24.3195 8.11428 23.4407C6.65135 23.0009 5.55116 22.5198 4.82244 22.0668C4.45756 21.84 4.19467 21.6257 4.02593 21.4344C3.85383 21.2393 3.80176 21.0937 3.80176 21H3.30176ZM20.9999 25.5231C26.6637 25.5231 31.0504 24.8151 34.0289 23.9197C35.5168 23.4725 36.6618 22.9759 37.4407 22.4917C37.8296 22.25 38.136 22.0059 38.3482 21.7653C38.557 21.5285 38.6974 21.2687 38.6974 21H38.1974C38.1974 21.0938 38.1453 21.2394 37.9732 21.4346C37.8045 21.6259 37.5416 21.8403 37.1767 22.0671C36.448 22.5201 35.3478 23.0011 33.8849 23.4409C30.9618 24.3196 26.6248 25.0231 20.9999 25.0231V25.5231ZM38.6974 21C38.6974 20.9862 38.6989 20.9658 38.7023 20.9269L38.2041 20.8842C38.2014 20.9161 38.1974 20.9602 38.1974 21H38.6974ZM38.7023 20.9269C38.7085 20.8539 38.7231 20.7123 38.6903 20.5788L38.2047 20.6983C38.2143 20.7372 38.2119 20.7932 38.2041 20.8842L38.7023 20.9269ZM38.4863 20.8855L38.7316 20.847L38.654 20.3531L38.4087 20.3916L38.4863 20.8855ZM38.6974 20.6381V20.6067H38.1974V20.6381H38.6974ZM38.6901 20.5782C38.6948 20.5972 38.7011 20.6391 38.6832 20.6899L38.2116 20.5236C38.1878 20.591 38.1937 20.6535 38.2047 20.6981L38.6901 20.5782ZM20.9999 38.1975C15.3746 38.1975 11.0375 37.4938 8.11429 36.615C6.65136 36.1751 5.55117 35.694 4.82246 35.2409C4.45758 35.0141 4.19469 34.7997 4.02595 34.6084C3.85386 34.4132 3.80176 34.2676 3.80176 34.1738H3.30176C3.30176 34.4424 3.44212 34.7023 3.65093 34.939C3.8631 35.1797 4.16956 35.4238 4.55846 35.6656C5.33731 36.1498 6.48239 36.6464 7.97032 37.0938C10.9489 37.9893 15.3358 38.6975 20.9999 38.6975V38.1975ZM38.1974 34.1738C38.1974 34.2676 38.1453 34.4132 37.9732 34.6084C37.8045 34.7997 37.5416 35.0141 37.1768 35.2409C36.4481 35.694 35.348 36.1751 33.8852 36.615C30.9621 37.4938 26.6252 38.1975 20.9999 38.1975V38.6975C26.664 38.6975 31.0508 37.9893 34.0291 37.0938C35.517 36.6464 36.662 36.1498 37.4408 35.6656C37.8297 35.4238 38.1361 35.1796 38.3482 34.939C38.557 34.7022 38.6974 34.4424 38.6974 34.1738H38.1974ZM38.1961 34.1638C38.1961 34.1783 38.1973 34.1903 38.1983 34.1982C38.1993 34.206 38.2005 34.2123 38.2008 34.214C38.2009 34.2145 38.201 34.215 38.201 34.215C38.201 34.2152 38.201 34.215 38.2009 34.2147C38.2009 34.2143 38.2005 34.2123 38.2001 34.2097C38.1997 34.2071 38.1991 34.2027 38.1985 34.1972C38.198 34.1917 38.1974 34.1836 38.1974 34.1738H38.6974C38.6974 34.1633 38.6967 34.1546 38.6961 34.1484C38.6955 34.1421 38.6948 34.137 38.6943 34.1336C38.6938 34.1302 38.6933 34.1275 38.693 34.1262C38.6929 34.1255 38.6928 34.125 38.6928 34.1247C38.6927 34.1243 38.6927 34.1244 38.6927 34.1245C38.6927 34.1246 38.693 34.1258 38.6932 34.1274C38.6935 34.1291 38.6939 34.1317 38.6943 34.1349C38.6951 34.141 38.6961 34.1511 38.6961 34.1638H38.1961ZM38.2313 34.037C38.2504 34.0044 38.2809 33.9696 38.3258 33.9448C38.3699 33.9205 38.4131 33.9138 38.4461 33.9138V34.4138C38.4796 34.4138 38.5233 34.4069 38.5676 34.3824C38.6129 34.3574 38.6436 34.3224 38.6629 34.2895L38.2313 34.037ZM38.1974 34.1613C38.1974 34.1646 38.1971 34.1518 38.1986 34.1372C38.1995 34.1288 38.2012 34.1156 38.2054 34.0997C38.2095 34.084 38.217 34.0616 38.2312 34.0372L38.663 34.2893C38.69 34.2431 38.6948 34.2005 38.6961 34.1875C38.697 34.1786 38.6972 34.1715 38.6973 34.1677C38.6974 34.1656 38.6974 34.164 38.6974 34.163C38.6974 34.1625 38.6974 34.162 38.6974 34.1618C38.6974 34.1615 38.6974 34.1613 38.6974 34.1613H38.1974ZM38.1974 24.4606V34.1613H38.6974V24.4606H38.1974ZM20.9999 28.0238C24.4628 28.0238 27.9418 27.7405 31.009 27.1821C34.0714 26.6245 36.7428 25.7893 38.5772 24.6743L38.3175 24.247C36.5594 25.3157 33.9574 26.1371 30.9194 26.6901C27.8861 27.2424 24.4375 27.5238 20.9999 27.5238V28.0238ZM3.42192 24.6743C5.25662 25.7893 7.92838 26.6245 10.991 27.1821C14.0583 27.7405 17.5372 28.0238 20.9999 28.0238V27.5238C17.5625 27.5238 14.114 27.2424 11.0805 26.6901C8.04232 26.137 5.44002 25.3157 3.6816 24.247L3.42192 24.6743ZM3.80176 34.0444V24.4606H3.30176V34.0444H3.80176ZM3.79371 33.9741C3.79242 33.9708 3.78341 33.9459 3.76881 33.9203L3.33471 34.1684C3.33019 34.1605 3.3275 34.1544 3.3265 34.1521C3.32597 34.1509 3.3257 34.1502 3.3258 34.1504C3.32594 34.1508 3.32615 34.1513 3.32686 34.1531L3.79371 33.9741ZM3.78011 33.9494C3.7874 33.9606 3.79164 33.9697 3.79335 33.9735C3.79426 33.9756 3.79477 33.9769 3.79477 33.9769C3.79478 33.9769 3.79471 33.9767 3.79453 33.9763C3.79433 33.9757 3.7941 33.9752 3.79371 33.9741L3.32685 34.1531C3.32803 34.1562 3.33969 34.1893 3.36091 34.2219L3.78011 33.9494ZM3.80256 34.1884C3.80514 34.1792 3.81238 34.1545 3.81696 34.1276L3.32405 34.0437C3.32457 34.0406 3.32494 34.0395 3.32446 34.0413C3.32391 34.0435 3.32315 34.0462 3.32135 34.0526L3.80256 34.1884ZM3.80176 34.1738C3.80176 34.1818 3.80117 34.1881 3.80064 34.1923C3.80011 34.1964 3.79955 34.1992 3.79938 34.1999C3.79922 34.2007 3.79928 34.2003 3.79984 34.1982C3.80045 34.1959 3.80119 34.1932 3.80256 34.1884L3.32135 34.0526C3.31854 34.0626 3.30176 34.1155 3.30176 34.1738H3.80176Z" fill="#E00000"/>
</svg>
