<svg width="42" height="42" viewBox="0 0 42 42" fill="none" xmlns="http://www.w3.org/2000/svg">
<g id="noun_Price Tag_475290">
<g id="Shape">
<path fill-rule="evenodd" clip-rule="evenodd" d="M25.3945 12.1182C25.3945 9.644 27.4079 7.63022 29.8816 7.62933C32.3585 7.63022 34.3719 9.64444 34.3719 12.1191C34.3714 14.5942 32.3581 16.6067 29.8852 16.6067H29.8816C27.407 16.6067 25.3945 14.5933 25.3945 12.1182ZM29.8825 14.9044H29.8852C31.4199 14.9044 32.6692 13.6551 32.6688 12.1182C32.6688 10.5822 31.419 9.332 29.8816 9.33111C28.3461 9.332 27.0963 10.5822 27.0963 12.1178C27.0963 13.6542 28.3461 14.9044 29.8825 14.9044Z" fill="#E00000"/>
<path d="M29.8816 7.62933L29.8818 7.07933L29.8814 7.07933L29.8816 7.62933ZM34.3719 12.1191L34.9219 12.1192V12.1191H34.3719ZM32.6688 12.1182H32.1188V12.1184L32.6688 12.1182ZM29.8816 9.33111L29.882 8.78111L29.8813 8.78111L29.8816 9.33111ZM29.8814 7.07933C27.104 7.08033 24.8445 9.34031 24.8445 12.1182H25.9445C25.9445 9.94769 27.7117 8.18011 29.8818 8.17933L29.8814 7.07933ZM34.9219 12.1191C34.9219 9.34061 32.6623 7.08033 29.8818 7.07933L29.8814 8.17933C32.0548 8.18011 33.8219 9.94827 33.8219 12.1191H34.9219ZM29.8852 17.1567C32.6619 17.1567 34.9214 14.8979 34.9219 12.1192L33.8219 12.119C33.8215 14.2905 32.0543 16.0567 29.8852 16.0567V17.1567ZM29.8816 17.1567H29.8852V16.0567H29.8816V17.1567ZM24.8445 12.1182C24.8445 14.8969 27.103 17.1567 29.8816 17.1567V16.0567C27.7109 16.0567 25.9445 14.2898 25.9445 12.1182H24.8445ZM29.8852 14.3544H29.8825V15.4544H29.8852V14.3544ZM32.1188 12.1184C32.1191 13.3516 31.1159 14.3544 29.8852 14.3544V15.4544C31.7239 15.4544 33.2193 13.9586 33.2188 12.1181L32.1188 12.1184ZM29.8813 9.88111C31.1153 9.88182 32.1188 10.8861 32.1188 12.1182H33.2188C33.2188 10.2783 31.7227 8.78218 29.882 8.78111L29.8813 9.88111ZM27.6463 12.1178C27.6463 10.8859 28.65 9.88182 29.882 9.88111L29.8813 8.78111C28.0422 8.78218 26.5463 10.2785 26.5463 12.1178H27.6463ZM29.8825 14.3544C28.65 14.3544 27.6463 13.3506 27.6463 12.1178H26.5463C26.5463 13.9579 28.0422 15.4544 29.8825 15.4544V14.3544Z" fill="#E00000"/>
</g>
<g id="Shape_2">
<path fill-rule="evenodd" clip-rule="evenodd" d="M33.2814 1.82136L40.1797 8.72047C40.7214 9.26269 41.0628 10.2085 40.9903 10.9702L40.1597 19.8498C40.0939 20.5467 39.6717 21.4458 39.1761 21.9409L21.441 39.6756C20.5872 40.5294 19.4481 40.9996 18.2339 40.9996C17.0197 40.9996 15.881 40.5298 15.0272 39.6756L2.32633 26.9751C0.557889 25.2067 0.557889 22.3289 2.32633 20.5605L20.0623 2.82536C20.5561 2.33069 21.4552 1.90758 22.1526 1.84225L31.0312 1.01025C31.7743 0.937805 32.7521 1.29158 33.2814 1.82136ZM38.4646 19.6903L39.2961 10.8102C39.3206 10.5587 39.1557 10.1031 38.977 9.92358L32.0783 3.02447C31.9294 2.87558 31.5299 2.70269 31.237 2.70269C31.2206 2.70269 31.205 2.70358 31.1912 2.70492L22.3121 3.53647C22.0023 3.56536 21.4846 3.80892 21.2659 4.02758L3.52944 21.7631C2.425 22.8689 2.425 24.6663 3.52944 25.7707L16.2303 38.4725C16.7623 39.0045 17.4739 39.2974 18.2334 39.2974C18.9934 39.2974 19.705 39.0045 20.237 38.4725L37.9734 20.736C38.193 20.5165 38.4361 19.9987 38.4646 19.6903Z" fill="#E00000"/>
<path d="M40.1797 8.72047L40.5687 8.33172L40.5686 8.33159L40.1797 8.72047ZM33.2814 1.82136L32.8924 2.21011L32.8925 2.21024L33.2814 1.82136ZM40.9903 10.9702L40.4428 10.9182L40.4427 10.919L40.9903 10.9702ZM40.1597 19.8498L40.7072 19.9015L40.7073 19.901L40.1597 19.8498ZM39.1761 21.9409L38.7874 21.5518L38.7872 21.552L39.1761 21.9409ZM21.441 39.6756L21.0521 39.2867L21.0521 39.2867L21.441 39.6756ZM15.0272 39.6756L15.4162 39.2868L15.4161 39.2867L15.0272 39.6756ZM2.32633 26.9751L1.93742 27.364L1.93743 27.3641L2.32633 26.9751ZM2.32633 20.5605L1.93743 20.1716L1.93742 20.1716L2.32633 20.5605ZM20.0623 2.82536L20.4512 3.21428L20.4516 3.21392L20.0623 2.82536ZM22.1526 1.84225L22.2039 2.38985L22.2039 2.38985L22.1526 1.84225ZM31.0312 1.01025L31.0825 1.55785L31.0846 1.55765L31.0312 1.01025ZM39.2961 10.8102L38.7487 10.7571L38.7485 10.759L39.2961 10.8102ZM38.4646 19.6903L37.917 19.639L37.9169 19.6397L38.4646 19.6903ZM38.977 9.92358L39.3669 9.53564L39.3659 9.53469L38.977 9.92358ZM32.0783 3.02447L32.4673 2.63558L32.4672 2.63556L32.0783 3.02447ZM31.1912 2.70492L31.2425 3.25252L31.2442 3.25236L31.1912 2.70492ZM22.3121 3.53647L22.3632 4.0841L22.3634 4.08408L22.3121 3.53647ZM21.2659 4.02758L21.6548 4.4165L21.6548 4.41649L21.2659 4.02758ZM3.52944 21.7631L3.14055 21.3742L3.1403 21.3745L3.52944 21.7631ZM3.52944 25.7707L3.91837 25.3818L3.91835 25.3818L3.52944 25.7707ZM16.2303 38.4725L15.8414 38.8614L15.8414 38.8614L16.2303 38.4725ZM20.237 38.4725L19.8481 38.0836H19.8481L20.237 38.4725ZM37.9734 20.736L38.3624 21.1249L38.3624 21.1249L37.9734 20.736ZM40.5686 8.33159L33.6704 1.43248L32.8925 2.21024L39.7907 9.10935L40.5686 8.33159ZM41.5379 11.0223C41.6259 10.0966 41.2259 8.9894 40.5687 8.33172L39.7906 9.10922C40.217 9.53599 40.4997 10.3203 40.4428 10.9182L41.5379 11.0223ZM40.7073 19.901L41.5379 11.0215L40.4427 10.919L39.6121 19.7986L40.7073 19.901ZM39.5648 22.33C40.1513 21.7441 40.6295 20.7255 40.7072 19.9015L39.6121 19.7981C39.5583 20.3679 39.192 21.1475 38.7874 21.5518L39.5648 22.33ZM21.8299 40.0645L39.565 22.3298L38.7872 21.552L21.0521 39.2867L21.8299 40.0645ZM18.2339 41.5496C19.593 41.5496 20.8723 41.0221 21.8299 40.0645L21.0521 39.2867C20.3021 40.0366 19.3032 40.4496 18.2339 40.4496V41.5496ZM14.6382 40.0644C15.5959 41.0226 16.8748 41.5496 18.2339 41.5496V40.4496C17.1645 40.4496 16.1661 40.037 15.4162 39.2868L14.6382 40.0644ZM1.93743 27.3641L14.6383 40.0645L15.4161 39.2867L2.71524 26.5862L1.93743 27.3641ZM1.93742 20.1716C-0.0458082 22.1548 -0.0458082 25.3808 1.93742 27.364L2.71524 26.5862C1.16159 25.0326 1.16159 22.503 2.71524 20.9494L1.93742 20.1716ZM19.6734 2.43644L1.93743 20.1716L2.71523 20.9494L20.4512 3.21428L19.6734 2.43644ZM22.1012 1.29465C21.6734 1.33473 21.2119 1.47994 20.797 1.67512C20.3821 1.87028 19.9762 2.13311 19.6731 2.4368L20.4516 3.21392C20.6422 3.02294 20.9328 2.82688 21.2652 2.67049C21.5977 2.51411 21.9343 2.4151 22.2039 2.38985L22.1012 1.29465ZM30.9799 0.462648L22.1012 1.29465L22.2039 2.38985L31.0825 1.55785L30.9799 0.462648ZM33.6705 1.43261C33.3356 1.09746 32.8833 0.83867 32.4232 0.672627C31.9632 0.506645 31.4498 0.41684 30.9779 0.462844L31.0846 1.55765C31.3558 1.53121 31.7028 1.58208 32.0498 1.70732C32.3967 1.8325 32.6979 2.01548 32.8924 2.21011L33.6705 1.43261ZM38.7485 10.759L37.917 19.639L39.0122 19.7415L39.8437 10.8615L38.7485 10.759ZM38.5871 10.3115C38.5844 10.3088 38.5999 10.3249 38.6256 10.3709C38.6494 10.4135 38.674 10.4673 38.6953 10.5265C38.7167 10.5857 38.732 10.6425 38.7407 10.6899C38.7501 10.7413 38.7482 10.7624 38.7487 10.7571L39.8435 10.8634C39.8672 10.6196 39.8021 10.3529 39.7301 10.1533C39.658 9.95325 39.5383 9.7079 39.3669 9.53564L38.5871 10.3115ZM31.6894 3.41337L38.5881 10.3125L39.3659 9.53469L32.4673 2.63558L31.6894 3.41337ZM31.237 3.25269C31.2897 3.25269 31.3909 3.27197 31.508 3.31865C31.5622 3.34027 31.6096 3.36375 31.6458 3.3851C31.6856 3.40857 31.6963 3.42029 31.6894 3.41338L32.4672 2.63556C32.317 2.48528 32.1014 2.371 31.9153 2.29685C31.7222 2.21986 31.4772 2.15269 31.237 2.15269V3.25269ZM31.2442 3.25236C31.2422 3.25255 31.24 3.25269 31.237 3.25269V2.15269C31.2011 2.15269 31.1678 2.15461 31.1383 2.15747L31.2442 3.25236ZM22.3634 4.08408L31.2425 3.25252L31.1399 2.15731L22.2608 2.98887L22.3634 4.08408ZM21.6548 4.41649C21.6999 4.37135 21.8196 4.28808 21.9887 4.20867C22.1576 4.12931 22.2986 4.09012 22.3632 4.0841L22.261 2.98885C22.0159 3.01171 21.743 3.10875 21.521 3.21305C21.299 3.3173 21.0505 3.46515 20.877 3.63867L21.6548 4.41649ZM3.91834 22.1521L21.6548 4.4165L20.877 3.63866L3.14055 21.3742L3.91834 22.1521ZM3.91835 25.3818C3.02883 24.4923 3.02849 23.043 3.91859 22.1518L3.1403 21.3745C1.82151 22.6948 1.82117 24.8402 3.14054 26.1596L3.91835 25.3818ZM16.6193 38.0836L3.91837 25.3818L3.14052 26.1596L15.8414 38.8614L16.6193 38.0836ZM18.2334 38.7474C17.6181 38.7474 17.0469 38.5112 16.6192 38.0836L15.8414 38.8614C16.4777 39.4977 17.3297 39.8474 18.2334 39.8474V38.7474ZM19.8481 38.0836C19.4204 38.5112 18.8493 38.7474 18.2334 38.7474V39.8474C19.1376 39.8474 19.9896 39.4977 20.6259 38.8614L19.8481 38.0836ZM37.5845 20.3471L19.8481 38.0836L20.6259 38.8614L38.3624 21.1249L37.5845 20.3471ZM37.9169 19.6397C37.911 19.7034 37.8722 19.8438 37.7928 20.0127C37.7135 20.1815 37.6302 20.3015 37.5845 20.3471L38.3624 21.1249C38.5363 20.951 38.6842 20.7023 38.7885 20.4803C38.8927 20.2583 38.9897 19.9856 39.0122 19.7408L37.9169 19.6397Z" fill="#E00000"/>
</g>
</g>
</svg>
