<svg width="0" height="0" class="hidden">
  <symbol fill="none" xmlns="http://www.w3.org/2000/svg" viewBox="0 0 73 22" id="dbs">
    <g id="dbs-bank-logo" clip-path="url(#clip0_1778_4528)">
      <g id="New-v2">
        <g id="DBS_Bank_Logo">
          <path id="Shape" d="M19.7219 10.9995V10.9975C19.7219 9.55921 19.7792 8.27618 20.8138 6.01096C21.1156 5.35502 21.7751 4.39206 20.8018 3.27662C20.013 2.4634 19.1103 2.60008 18.5054 2.95655C18.8525 2.33289 18.9844 1.40222 18.1943 0.588302C17.1104 -0.415869 16.1791 0.264797 15.5402 0.573192C13.3477 1.64399 12.1013 1.70374 10.7023 1.70374H10.701C9.30328 1.70374 8.05817 1.64467 5.86439 0.573192C5.22818 0.265484 4.29351 -0.415182 3.21228 0.588302C2.4235 1.4029 2.55408 2.33289 2.89983 2.95655C2.29359 2.59802 1.3929 2.4634 0.60346 3.27662C-0.369849 4.39206 0.291015 5.35502 0.591468 6.01096C1.62607 8.27618 1.68203 9.55715 1.68203 10.9995C1.68203 12.4412 1.62607 13.7277 0.591468 15.9888C0.291015 16.6454 -0.369849 17.6084 0.60346 18.7272C1.39357 19.5377 2.29359 19.4004 2.89983 19.0466C2.55274 19.6696 2.42084 20.5989 3.21228 21.4142C4.29351 22.4184 5.22751 21.7377 5.86439 21.4245C8.05817 20.3585 9.30195 20.2988 10.7023 20.2988C12.1013 20.2988 13.3477 20.3585 15.5389 21.4245C16.1791 21.7377 17.1104 22.4184 18.1943 21.4142C18.9831 20.5982 18.8525 19.6696 18.5041 19.0466C19.1103 19.4031 20.0137 19.5398 20.8018 18.7272C21.7751 17.6084 21.1156 16.6454 20.8138 15.9895C19.7792 13.7263 19.7219 12.4419 19.7219 10.9995ZM17.3223 17.8419L12.1826 13.3953C12.1826 13.3953 11.4891 12.6967 10.7016 12.6967C9.91685 12.6967 9.21935 13.3953 9.21935 13.3953L4.08232 17.8419L4.063 17.8254L8.37927 12.5278C8.37927 12.5278 9.05613 11.8107 9.05613 10.9995C9.05613 10.1897 8.37927 9.47473 8.37927 9.47473L4.063 4.17296L4.08232 4.1551L9.22068 8.60381C9.22068 8.60381 9.91685 9.30371 10.7016 9.30371C11.4891 9.30371 12.1826 8.60381 12.1826 8.60381L17.3196 4.15716L17.3363 4.17433L13.0266 9.47473C13.0266 9.47473 12.3478 10.1897 12.3478 10.9995C12.3478 11.8107 13.0266 12.5278 13.0266 12.5278L17.3363 17.8254L17.3223 17.8419Z" fill="#0A2630"></path>
          <path id="Shape_2" d="M71.4636 1.32377L71.6468 1.32171L71.7134 4.79166L71.5089 4.78892C71.1771 3.38088 69.86 2.04496 67.2212 1.90347C64.0995 1.73657 62.7478 3.65356 62.7338 5.46409C62.7158 7.87836 64.5372 8.37563 67.2372 9.05286C68.5123 9.37294 73.229 10.009 72.8519 15.4749C72.5894 19.2924 69.3937 21.1091 64.8683 20.9621C64.8683 20.9621 62.9896 20.8955 60.3608 20.1461C59.8691 20.006 59.7466 20.175 59.5447 20.5452L59.3342 20.5569L59.3408 16.8122L59.55 16.8259C59.6566 17.2051 59.6826 17.9091 60.3461 18.5114C60.8378 18.951 61.9723 20.041 64.4745 20.0671C66.9315 20.0987 68.9647 19.0279 69.2405 16.1961C69.3144 15.4296 69.2298 13.6829 67.5763 12.8834C66.2819 12.2577 62.6891 11.8449 60.943 10.272C60.943 10.272 58.8765 8.7898 59.2049 6.017C59.6653 2.10334 62.8324 1.12459 65.6783 1.06192C65.6783 1.06192 68.2285 1.03804 70.2558 1.58065C70.2558 1.58065 70.7567 1.71871 71.1744 1.55661C71.335 1.49823 71.4169 1.38971 71.4636 1.32377ZM53.6609 10.3359C58.2889 11.52 58.5687 14.9639 58.5014 15.931C58.2956 20.2409 54.7448 20.7354 53.3191 20.7354H42.4035L42.4155 20.5163C43.2076 20.4078 43.8025 19.9573 43.8025 18.5231L43.8692 3.67691C43.8858 2.06351 43.4721 1.57447 42.6067 1.47007L42.5914 1.2647H50.8475C52.3605 1.2647 56.9212 0.952874 57.3089 5.27726C57.6181 8.73623 53.9327 10.1855 53.6609 10.3359ZM54.876 15.9584C54.9606 11.7769 51.9847 10.667 48.9009 10.4925C48.8383 10.4884 48.8629 10.329 48.9089 10.3215C49.9122 10.2816 53.8947 9.80565 53.7282 5.88444C53.5669 2.06694 50.7563 1.98246 49.7283 1.96872C48.8903 1.95979 48.7071 1.95979 48.356 1.9749C47.7611 1.99894 47.6118 2.0429 47.6145 2.71395C47.6145 2.80049 47.4819 9.5941 47.4046 14.3691C47.3653 16.9653 47.3593 18.9703 47.3593 18.9703C47.37 19.4407 47.3114 19.925 48.4486 19.9813C49.6237 20.041 51.1367 20.0878 52.1946 19.8577C53.1626 19.642 54.8181 18.9153 54.876 15.9584ZM33.1248 1.26402C37.0553 1.2441 42.2317 4.02583 42.2137 10.9712C42.197 17.0127 37.9707 20.7334 34.0555 20.7334L24.1392 20.7354L24.1512 20.5184C24.7121 20.4209 25.331 20.0596 25.4369 19.6763C25.7647 18.2188 25.6947 4.90225 25.4902 2.7112C25.4276 2.02642 24.9059 1.58477 24.2604 1.47625L24.2484 1.26333C24.2484 1.26402 32.2427 1.26882 33.1248 1.26402ZM34.9228 19.4723C36.6796 18.8219 38.8627 15.7256 38.5023 10.8442C38.1545 6.1214 36.4058 2.41655 31.7597 2.069C31.7597 2.069 30.8804 2.00375 30.1422 1.99826C29.3528 1.99413 29.1783 1.96803 29.1236 2.83415C29.0184 4.46266 28.9871 17.1604 29.091 18.9957C29.1063 19.245 29.1323 19.8508 30.1489 19.9524C32.0009 20.14 33.5345 19.9909 34.9228 19.4723Z" fill="#0A2630"></path>
        </g>
      </g>
    </g>
    <defs>
      <clipPath id="clip0_1778_4528">
        <rect width="73" height="22" fill="white"></rect>
      </clipPath>
    </defs>
  </symbol>
   <symbol fill="none" xmlns="http://www.w3.org/2000/svg" viewBox="0 0 90 22" id="consumer-reports">
    <g id="consumer-reports-logo-2016" clip-path="url(#clip0_1778_4535)">
      <g id="New-v2">
        <g id="Consumer_Reports_logo_2016">
          <g id="Group">
            <path id="Shape" d="M17.5767 19.446H22.7253V13.3518H24.2473L27.9664 19.446H33.9223L29.3959 12.4161C31.54 11.3541 33.0356 9.21728 33.0356 6.72647C33.0356 3.1736 30.0047 0.303481 26.312 0.303481H17.5767V2.79429C15.6841 1.10003 13.1959 0.0379639 10.4164 0.0379639C4.75174 0.0379639 0.119385 4.41268 0.119385 9.87475C0.119385 15.3368 4.75174 19.7242 10.4297 19.7242C13.2091 19.7242 15.6973 18.6621 17.59 16.9678V19.446H17.5767ZM14.0826 13.3518C13.1429 14.2495 11.8459 14.8058 10.4164 14.8058C7.58409 14.8058 5.26791 12.5931 5.26791 9.88739C5.26791 7.18164 7.58409 4.969 10.4164 4.969C11.8459 4.969 13.1297 5.51268 14.0826 6.42302L17.5767 3.08509V16.6897L14.0826 13.3518ZM22.7253 9.05291V4.60233H25.5312C26.815 4.60233 27.8738 5.61383 27.8738 6.84026C27.8738 8.0667 26.815 9.05291 25.5312 9.05291H22.7253Z" fill="#0A2630"></path>
            <g id="Group_2">
              <path id="Path" d="M72 18.1816L71.6162 18.6873C72.1986 19.1804 72.9794 19.5092 73.9853 19.5092C75.1633 19.5092 76.103 18.9023 76.103 17.8276C76.103 16.9804 75.6662 16.6138 74.2765 16.1586L73.7471 15.9816C72.9662 15.7287 72.5427 15.4885 72.5427 14.9322C72.5427 14.2494 73.2044 13.9839 73.8265 13.9839C74.4089 13.9839 75.0442 14.2873 75.4942 14.6666L75.9044 14.1356C75.3221 13.6804 74.6736 13.4149 73.8265 13.4149C72.7544 13.4149 71.8809 13.9586 71.8809 14.9701C71.8809 15.7414 72.3706 16.2345 73.5486 16.6264L74.1442 16.8287C75.0309 17.1322 75.4412 17.2965 75.4412 17.8276C75.4412 18.5988 74.7397 18.9402 73.9853 18.9402C73.2044 18.9402 72.503 18.6241 72 18.1816Z" fill="#0A2630"></path>
              <path id="Path_2" d="M71.2061 19.1171L71.0208 18.5987C70.6502 18.8137 70.2928 18.9148 69.8561 18.9148C69.2472 18.9148 68.9561 18.5608 68.9561 17.9286V14.0723H71.1531V13.4654H68.9561V11.3918H68.2678V17.9286C68.2678 18.9148 68.784 19.5091 69.8164 19.5091C70.3325 19.5091 70.7825 19.37 71.2061 19.1171Z" fill="#0A2630"></path>
              <path id="Path_3" d="M65.0781 19.4459V15.9183C65.2237 14.5907 66.3884 13.9459 67.5663 14.0976V13.4275C66.5207 13.2758 65.5545 13.7815 65.0781 14.6539L65.0648 13.4654H64.4031V19.4585H65.0781V19.4459Z" fill="#0A2630"></path>
              <path id="Shape_2" d="M60.4192 13.4022C58.6589 13.4022 57.2295 14.7804 57.2295 16.462C57.2295 18.1436 58.6589 19.5218 60.4192 19.5218C62.1795 19.5218 63.6221 18.1436 63.6221 16.462C63.6221 14.7677 62.1927 13.4022 60.4192 13.4022ZM60.4192 18.8643C59.0295 18.8643 57.9045 17.7769 57.9045 16.4493C57.9045 15.1218 59.0295 14.0344 60.4192 14.0344C61.8221 14.0344 62.9471 15.1218 62.9471 16.4493C62.9471 17.7769 61.8221 18.8643 60.4192 18.8643Z" fill="#0A2630"></path>
              <path id="Shape_3" d="M53.4442 13.4022C52.3987 13.4022 51.4854 13.9459 50.956 14.793V13.4654H50.281V21.8861H50.956V18.1183C51.4854 18.9654 52.4251 19.5218 53.4839 19.5218C55.1913 19.5218 56.6075 18.1436 56.6075 16.462C56.6075 14.7677 55.1781 13.4022 53.4442 13.4022ZM53.4442 18.8643C52.0678 18.8643 50.956 17.7769 50.956 16.4493C50.956 15.1218 52.0678 14.0344 53.4442 14.0344C54.8207 14.0344 55.9325 15.1218 55.9325 16.4493C55.9325 17.7769 54.8207 18.8643 53.4442 18.8643Z" fill="#0A2630"></path>
              <path id="Shape_4" d="M49.5134 16.1965C49.5134 14.5275 48.2296 13.4022 46.6414 13.4022C45.0134 13.4022 43.637 14.6413 43.637 16.4367C43.637 18.2068 45.0796 19.5218 46.7605 19.5218C47.7664 19.5218 48.6267 19.1172 49.2355 18.3838L48.7458 17.9919C48.2826 18.5861 47.5943 18.9022 46.7605 18.9022C45.4634 18.9022 44.4178 17.9413 44.3252 16.6137H49.5134V16.1965ZM44.3384 16.0195C44.5237 14.8057 45.4767 13.9965 46.6281 13.9965C47.7796 13.9965 48.7326 14.8057 48.812 16.0195H44.3384Z" fill="#0A2630"></path>
              <path id="Shape_5" d="M41.0692 15.8172C42.6045 15.5896 43.5178 14.5275 43.5178 13.2885C43.5178 11.8092 42.4589 10.7218 40.5266 10.7218H37.4692V19.4586H38.1839V15.8678H40.2222L42.8031 19.4586H43.6766L41.0692 15.8172ZM38.1839 15.2103V11.3666H40.5134C41.956 11.3666 42.7898 12.1379 42.7898 13.2885C42.7898 14.3126 42.0619 15.2103 40.4869 15.2103H38.1839Z" fill="#0A2630"></path>
              <path id="Path_4" d="M87.406 9.05281V5.52522C87.5515 4.19763 88.7163 3.55281 89.8942 3.70453V3.03442C88.8486 2.88269 87.8824 3.38844 87.406 4.26085L87.3927 3.07235H86.731V9.06545H87.406V9.05281Z" fill="#0A2630"></path>
              <path id="Shape_6" d="M85.9502 5.80341C85.9502 4.13444 84.6664 3.00916 83.0781 3.00916C81.4502 3.00916 80.0737 4.24824 80.0737 6.04364C80.0737 7.81375 81.5164 9.1287 83.1973 9.1287C84.2031 9.1287 85.0634 8.7241 85.6723 7.99076L85.1826 7.59881C84.7193 8.19306 84.0311 8.50916 83.1973 8.50916C81.9002 8.50916 80.8546 7.54824 80.762 6.22065H85.9502V5.80341ZM80.7752 5.6264C80.9605 4.4126 81.9134 3.60341 83.0649 3.60341C84.2164 3.60341 85.1693 4.4126 85.2487 5.6264H80.7752Z" fill="#0A2630"></path>
              <path id="Path_5" d="M70.6502 6.0183C70.6767 4.43784 71.5105 3.60336 72.6752 3.60336C73.6546 3.60336 74.3031 4.19761 74.2899 5.27232V9.05278H74.9649V6.0183C74.9914 4.43784 75.8252 3.60336 76.9899 3.60336C77.9693 3.60336 78.6178 4.19761 78.6046 5.27232V9.05278H79.2796V5.24703C79.2928 3.84359 78.4723 2.99646 77.0561 2.99646C76.0502 2.99646 75.2031 3.56543 74.8326 4.4252C74.5546 3.54014 73.8002 2.99646 72.7281 2.99646C71.8017 2.99646 70.9943 3.50221 70.6237 4.26083V3.05968H69.9487V9.05278H70.6237V6.0183H70.6502Z" fill="#0A2630"></path>
              <path id="Path_6" d="M68.281 9.05285H68.956V3.07239H68.281V6.11951C68.2545 7.69997 67.3413 8.53446 66.0707 8.53446C65.0648 8.53446 64.403 7.9402 64.403 6.86549V3.07239H63.728V6.87814C63.728 8.28158 64.5619 9.12871 66.0045 9.12871C67.0369 9.12871 67.9104 8.59768 68.2942 7.80112V9.05285H68.281Z" fill="#0A2630"></path>
              <path id="Path_7" d="M58.8443 7.7884L58.4604 8.29414C59.0428 8.78725 59.8237 9.11598 60.8296 9.11598C62.0075 9.11598 62.9472 8.50909 62.9472 7.43437C62.9472 6.58725 62.5104 6.22058 61.1207 5.76541L60.5913 5.5884C59.8104 5.33552 59.3869 5.09529 59.3869 4.53897C59.3869 3.85621 60.0487 3.59069 60.6707 3.59069C61.2531 3.59069 61.8884 3.89414 62.3384 4.27345L62.7487 3.74242C62.1663 3.28725 61.5178 3.02173 60.6707 3.02173C59.5987 3.02173 58.7252 3.56541 58.7252 4.5769C58.7252 5.34817 59.2149 5.84127 60.3928 6.23322L60.9884 6.43552C61.8752 6.73897 62.2854 6.90334 62.2854 7.43437C62.2854 8.20564 61.584 8.54702 60.8296 8.54702C60.0487 8.54702 59.3472 8.23092 58.8443 7.7884Z" fill="#0A2630"></path>
              <path id="Path_8" d="M53.2061 6.0183C53.2325 4.43784 54.1458 3.60336 55.4164 3.60336C56.4222 3.60336 57.084 4.19761 57.084 5.27232V9.05278H57.759V5.24703C57.759 3.84359 56.9252 2.99646 55.4825 2.99646C54.4502 2.99646 53.5766 3.52749 53.1928 4.32405V3.05968H52.5178V9.05278H53.1928V6.0183H53.2061Z" fill="#0A2630"></path>
              <path id="Shape_7" d="M48.5603 3.00916C46.8 3.00916 45.3706 4.38732 45.3706 6.06893C45.3706 7.75054 46.8 9.1287 48.5603 9.1287C50.3206 9.1287 51.7633 7.75054 51.7633 6.06893C51.7633 4.38732 50.3206 3.00916 48.5603 3.00916ZM48.5603 8.47122C47.1706 8.47122 46.0456 7.38387 46.0456 6.05628C46.0456 4.7287 47.1706 3.64134 48.5603 3.64134C49.9633 3.64134 51.0883 4.7287 51.0883 6.05628C51.0883 7.38387 49.9633 8.47122 48.5603 8.47122Z" fill="#0A2630"></path>
              <path id="Path_9" d="M44.3383 6.97923C43.6236 7.86428 42.4986 8.42061 41.2413 8.42061C39.0972 8.42061 37.3369 6.75164 37.3369 4.69072C37.3369 2.64244 39.0972 0.973478 41.2413 0.973478C42.5119 0.973478 43.6236 1.51716 44.3383 2.4275L44.881 1.92175C44.0207 0.922904 42.6972 0.278076 41.2413 0.278076C38.6869 0.278076 36.5957 2.27578 36.5957 4.70336C36.5957 7.14359 38.6869 9.1413 41.2413 9.1413C42.7104 9.1413 44.0075 8.49647 44.8545 7.48497L44.3383 6.97923Z" fill="#0A2630"></path>
            </g>
          </g>
          <g id="Group_3">
            <path id="Path_10" d="M75.8648 11.8218H75.481V11.7333H76.3413V11.8218H75.9574V12.8965H75.8648V11.8218Z" fill="#0A2630"></path>
            <path id="Path_11" d="M77.7311 11.7333V12.8965H77.6384V11.9103L77.1884 12.6436H77.1222L76.6722 11.9103V12.8965H76.5796V11.7333H76.6722L77.1619 12.5425L77.6516 11.7333H77.7311Z" fill="#0A2630"></path>
          </g>
        </g>
      </g>
    </g>
    <defs>
      <clipPath id="clip0_1778_4535">
        <rect width="90" height="22" fill="white"></rect>
      </clipPath>
    </defs>
  </symbol>
    <symbol fill="none" xmlns="http://www.w3.org/2000/svg" viewBox="0 0 100 22" id="verizon">
    <g id="verizon-logo" clip-path="url(#clip0_1778_4560)">
      <g id="New-v2">
        <g id="Verizon_2015_logo_-vector">
          <path id="Path" d="M97.6747 0L92.2188 11.5726L90.1671 7.18767H87.9482L91.3221 14.3603H93.1154L99.8783 0H97.6747Z" fill="#0A2630"></path>
          <path id="Shape" d="M74.2705 21.4876H78.6626V13.5164C78.6626 11.6931 79.7265 10.4123 81.307 10.4123C82.8268 10.4123 83.617 11.4671 83.617 12.989V21.4876H88.0091V12.1602C88.0091 8.99585 86.0942 6.76572 82.9939 6.76572C81.0182 6.76572 79.6353 7.60955 78.6018 9.14654H78.5107V7.18763H74.2553L74.2705 21.4876ZM65.6383 6.79585C61.0486 6.79585 57.9787 10.0657 57.9787 14.3753C57.9787 18.6548 61.0486 21.9548 65.6383 21.9548C70.228 21.9548 73.2979 18.6548 73.2979 14.3753C73.3131 10.0657 70.228 6.79585 65.6383 6.79585ZM65.6079 18.7301C63.5259 18.7301 62.4164 16.9972 62.4164 14.3753C62.4164 11.7232 63.5107 10.0205 65.6079 10.0205C67.69 10.0205 68.845 11.7232 68.845 14.3753C68.8602 16.9972 67.7052 18.7301 65.6079 18.7301ZM45.4559 21.4876H57.7964V18.052H50.8055V17.9616L57.4924 10.5328V7.17256H45.4559V10.6232H52.2189V10.7137L45.4559 18.2027V21.4876ZM39.8176 21.4876H44.2401V7.18763H39.8176V21.4876ZM29.5593 21.4876H33.9666V14.9178C33.9666 11.9342 35.7751 10.6082 38.5258 10.9849H38.617V7.21777C38.3891 7.12736 38.1307 7.11229 37.7204 7.11229C36.003 7.11229 34.848 7.89585 33.8602 9.56845H33.769V7.18763H29.5593V21.4876ZM21.4742 18.7452C19.5289 18.7452 18.3435 17.4945 18.1155 15.5657H28.5106C28.541 12.4917 27.7204 10.0356 26.003 8.49859C24.7872 7.38352 23.1915 6.76572 21.155 6.76572C16.8085 6.76572 13.7994 10.0356 13.7994 14.315C13.7994 18.6246 16.6717 21.9095 21.4438 21.9095C23.2523 21.9095 24.6809 21.4274 25.8663 20.6287C27.1277 19.7698 28.0395 18.5041 28.2827 17.2534H24.0578C23.6474 18.1876 22.766 18.7452 21.4742 18.7452ZM21.2462 9.88489C22.7964 9.88489 23.8602 11.0301 24.0426 12.7027H18.1459C18.4954 11.015 19.4225 9.88489 21.2462 9.88489ZM5.0152 21.4876H9.63526L14.6505 7.18763H10.228L7.41642 16.3794H7.35563L4.54407 7.18763H0L5.0152 21.4876ZM39.8176 2.09448H44.2401V5.98215H39.8176V2.09448Z" fill="#0A2630"></path>
        </g>
      </g>
    </g>
    <defs>
      <clipPath id="clip0_1778_4560">
        <rect width="100" height="22" fill="white"></rect>
      </clipPath>
    </defs>
  </symbol>
  <symbol fill="none" xmlns="http://www.w3.org/2000/svg" viewBox="0 0 146 19" id="bank-of-america">
    <g id="bank-of-america" clip-path="url(#clip0_1778_4566)">
      <g id="New-v2">
        <g id="bank-of-america_2">
          <path id="Shape" d="M39.6076 9.93113C37.078 9.93113 35.82 11.8366 35.82 14.4086C35.82 17.0855 37.0286 18.9565 39.6076 18.9565C42.1887 18.9565 43.3936 17.0855 43.3936 14.4086C43.3936 11.8366 42.1371 9.93113 39.6076 9.93113ZM39.6076 17.2059C38.9352 17.2059 38.6363 16.5879 38.6363 14.4079C38.6363 12.4172 38.8356 11.6803 39.6076 11.6803C40.3781 11.6803 40.5781 12.4172 40.5781 14.4079C40.5781 16.5901 40.277 17.2059 39.6076 17.2059ZM45.1426 9.19638V10.1587H44.0359V12.1163H45.1426V18.7701H47.8571V12.1163H49.3344V10.1587H47.8571V9.2852C47.8571 8.76185 48.1151 8.47558 48.8298 8.47558C48.9803 8.47558 49.181 8.50935 49.3337 8.54531V6.41815C48.8957 6.36677 48.4929 6.31392 47.9589 6.31392C46.1662 6.31465 45.1426 7.0861 45.1426 9.19638ZM16.2037 12.578C16.2037 10.6739 14.5128 9.95535 12.885 9.95535C11.3453 9.95535 9.83576 10.6394 9.53543 12.3379L11.8965 12.8363C11.9259 12.3328 12.1345 11.7052 12.7861 11.7052C13.2548 11.7052 13.4885 12.0465 13.4885 12.5604V13.301C11.6951 13.5138 9.22363 14.1759 9.16413 16.4176C9.12256 18.0008 10.154 18.9374 11.5073 18.9374C12.308 18.9374 13.1093 18.4846 13.5724 17.9847C13.5889 18.1278 13.6068 18.5345 13.6577 18.7723H16.456C16.3535 18.6549 16.203 18.3605 16.203 17.3828L16.2037 12.578ZM13.4892 16.5769C13.2584 16.8881 12.9273 17.112 12.6183 17.112C12.1316 17.112 11.8306 16.7993 11.8306 16.1988C11.8306 15.1 12.5402 14.7308 13.4885 14.6376L13.4892 16.5769ZM22.8605 9.95388C21.8018 9.95388 21.0542 10.4559 20.4951 11.0395H20.46L20.4464 10.1587H17.79V18.7708H20.5044V12.6117C20.7524 12.2866 21.0822 12.0766 21.3875 12.0766C21.8412 12.0766 22.0133 12.349 22.0133 12.84V18.7694H24.7278V11.9577C24.7285 10.7767 24.049 9.95388 22.8605 9.95388ZM33.8589 10.1579H31.1595L29.1625 12.7607H29.1295V6.55541H26.4136V18.7701H29.1295V15.6858L29.7001 15.0134H29.7331L31.0563 18.7701H33.8718L31.5881 12.8092L33.8589 10.1579ZM6.27118 12.4172V12.3218C7.13562 11.9761 8.21797 11.1356 8.21797 9.53916C8.21797 7.85241 6.82884 6.55467 4.71575 6.55467H0V18.7708H4.59533C6.86038 18.7708 8.50111 17.5935 8.50111 15.503C8.50111 13.9374 7.56355 12.8532 6.27118 12.4172ZM2.93023 8.71707H3.98606C4.67131 8.71707 5.43899 8.90571 5.43899 10.0713C5.43899 10.7936 5.0082 11.3933 3.91796 11.3933H2.93023V8.71707ZM4.03623 16.5071H2.93023V13.4522H4.03623C5.0082 13.4522 5.55726 14.0533 5.55726 14.9628C5.55726 16.2143 4.68851 16.5071 4.03623 16.5071ZM107.063 17.3828V12.578C107.063 10.6739 105.374 9.95535 103.746 9.95535C102.205 9.95535 100.696 10.6394 100.395 12.3379L102.758 12.8363C102.786 12.3328 102.993 11.7052 103.647 11.7052C104.113 11.7052 104.35 12.0465 104.35 12.5604V13.301C102.554 13.5138 100.081 14.1759 100.023 16.4176C99.9812 18.0008 101.012 18.9374 102.367 18.9374C103.168 18.9374 103.967 18.4846 104.434 17.9847C104.448 18.1278 104.467 18.5345 104.516 18.7723H107.313C107.215 18.6534 107.063 18.3605 107.063 17.3828ZM104.351 16.5769C104.117 16.8881 103.787 17.112 103.479 17.112C102.992 17.112 102.691 16.7993 102.691 16.1988C102.691 15.1 103.4 14.7308 104.35 14.6376L104.351 16.5769ZM77.469 9.93113C74.9717 9.93113 73.7302 11.99 73.7302 14.4269C73.7302 16.8117 74.9036 18.9573 77.5006 18.9573C79.0029 19.004 80.3637 18.0544 80.8709 16.6055L79.0409 15.9185C78.9062 16.6121 78.3535 17.101 77.6984 17.101C76.606 17.101 76.4075 15.8282 76.444 15.0611H80.987V14.4776C80.987 12.2308 80.0831 9.93113 77.469 9.93113ZM78.4732 13.4125H76.4447C76.4031 12.6022 76.6798 11.681 77.4511 11.681C78.3886 11.681 78.4998 12.6147 78.4732 13.4125ZM88.3076 10.1587H91.0206V18.7708H88.3076V10.1587ZM88.3076 6.55467H91.0206V9.02536H88.3076V6.55467ZM96.1227 11.681C96.5599 11.681 96.7764 11.9218 96.9097 12.2631C97.0287 12.5897 97.0445 13.0015 97.0445 13.3457H99.359C99.359 12.4877 98.9225 9.93259 96.0424 9.93259C93.4785 9.93259 92.2062 12.2836 92.2062 14.6332C92.2062 16.7596 93.477 18.958 95.9249 18.958C97.9025 18.958 99.0752 17.8607 99.2773 15.7673L97.1656 15.4575C97.1656 16.11 97.0818 17.1017 96.1256 17.1017C95.4238 17.1017 95.1221 16.4697 95.1221 14.529C95.1171 12.8136 95.2196 11.681 96.1227 11.681ZM54.0523 6.55541L51.2546 18.7708H53.868L54.3884 16.3016H57.1531L57.6226 18.7708H60.555L58.0061 6.55541H54.0523ZM54.8078 14.1392L55.8156 9.16262H55.8758L56.7338 14.1392H54.8078ZM84.8039 11.3243H84.7587L84.7315 10.1579H82.1045V18.7701H84.8218V13.1931C85.1401 12.8048 85.6175 12.5266 86.3106 12.5266C86.7779 12.5266 87.1084 12.6426 87.4173 12.7644V9.95315C86.3701 9.95388 85.3573 10.4148 84.8039 11.3243ZM70.6574 9.95388C69.5206 9.95388 68.7099 10.5807 68.2354 11.1055H68.2002C67.9436 10.4413 67.3931 9.95388 66.5681 9.95388C65.5567 9.95388 64.7059 10.489 64.1382 11.0365H64.1038L64.0894 10.1594H61.4402V18.7716H64.1038V12.6294C64.3324 12.3123 64.7403 12.0987 65.0249 12.0987C65.5288 12.0987 65.6621 12.4069 65.6621 12.8708V18.7716H68.3271V12.6294C68.5034 12.3915 68.8912 12.0987 69.2553 12.0987C69.7492 12.0987 69.8868 12.4069 69.8868 12.8708V18.7716H72.5497V11.9056C72.5497 10.7165 71.7856 9.95388 70.6574 9.95388ZM123.751 4.62055C124.827 5.05628 125.892 5.5233 126.942 6.02105C123.604 7.40842 120.374 9.05495 117.281 10.9463C116.237 10.3861 115.178 9.85711 114.104 9.36006C117.191 7.51887 120.417 5.93396 123.751 4.62055ZM119.767 3.17969C116.305 4.30297 112.96 5.77296 109.779 7.56834C110.79 7.94269 111.792 8.34126 112.779 8.76772C115.86 6.91146 119.105 5.35632 122.471 4.12289C121.577 3.78689 120.676 3.4724 119.767 3.17969Z" fill="#0A2630"></path>
          <path id="Shape_2" d="M131.004 4.48187C128.269 3.12653 125.435 1.99007 122.528 1.08267C121.503 1.38508 120.486 1.71465 119.48 2.07358C122.473 2.98139 125.391 4.13129 128.206 5.51243C129.131 5.14813 130.064 4.80453 131.004 4.48187ZM135.458 3.12249C132.657 1.87218 129.772 0.82869 126.825 0C125.886 0.199022 124.952 0.420755 124.023 0.665015C126.946 1.53981 129.797 2.64587 132.553 3.9732C133.515 3.66814 134.483 3.3845 135.458 3.12249ZM142.608 5.58216C135.655 7.98308 129.083 11.4111 123.098 15.7578C124.582 16.692 126.031 17.6821 127.443 18.7261C133.082 14.1439 139.306 10.3722 145.942 7.51554C144.849 6.83806 143.737 6.19333 142.608 5.58216ZM137.789 3.23773C130.567 5.19704 123.707 8.35526 117.481 12.5868C118.871 13.2867 120.237 14.0356 121.576 14.8322C127.675 10.5059 134.4 7.18807 141.505 5.00009C140.285 4.3728 139.046 3.78505 137.789 3.23773ZM129.728 17.9576C129.728 17.5282 130.081 17.1788 130.515 17.1788C130.948 17.1788 131.301 17.5282 131.301 17.9576C131.301 18.3951 130.948 18.7445 130.515 18.7445C130.081 18.7445 129.728 18.3951 129.728 17.9576ZM129.877 17.9576C129.877 18.3151 130.161 18.5903 130.515 18.5903C130.865 18.5903 131.15 18.3151 131.15 17.9576C131.15 17.6119 130.866 17.3337 130.515 17.3337C130.161 17.3337 129.877 17.6119 129.877 17.9576Z" fill="#0A2630"></path>
          <path id="Shape_3" d="M130.906 18.3973H130.759L130.507 17.9943H130.351V18.3973H130.222V17.5231H130.605C130.68 17.518 130.754 17.5329 130.822 17.5664C130.884 17.6082 130.92 17.6798 130.918 17.7557C130.918 17.926 130.797 17.9906 130.641 17.995L130.906 18.3973ZM130.498 17.8871C130.62 17.8871 130.788 17.9084 130.788 17.7521C130.788 17.6383 130.69 17.6229 130.58 17.6229H130.354V17.8857L130.498 17.8871Z" fill="#0A2630"></path>
        </g>
      </g>
    </g>
    <defs>
      <clipPath id="clip0_1778_4566">
        <rect width="146" height="19" fill="white"></rect>
      </clipPath>
    </defs>
  </symbol>
    <symbol fill="none" xmlns="http://www.w3.org/2000/svg" viewBox="0 0 77 26" id="uber">
    <g id="uber-logo-2018" clip-path="url(#clip0_1778_4574)">
      <g id="New-v2">
        <g id="Uber_logo_2018">
          <path id="Path" d="M4.42962 18.556C4.75498 19.3954 5.20543 20.113 5.78106 20.709C6.35669 21.3051 7.03865 21.7612 7.82692 22.0775C8.61528 22.3938 9.47241 22.5519 10.3984 22.5519C11.2994 22.5519 12.144 22.3876 12.9323 22.0591C13.7207 21.7307 14.4089 21.2685 14.997 20.6725C15.5851 20.0764 16.0418 19.3649 16.3672 18.5378C16.6926 17.7106 16.8552 16.7862 16.8552 15.7644V0H20.7968V25.5441H16.8927V23.1721C16.0168 24.0722 14.9844 24.7656 13.7957 25.2522C12.6069 25.7387 11.3244 25.982 9.94795 25.982C8.54642 25.982 7.23883 25.7448 6.02502 25.2704C4.8113 24.796 3.76012 24.121 2.87176 23.2451C1.98339 22.3693 1.28259 21.3173 0.769585 20.0886C0.256501 18.8601 0 17.4917 0 15.9833V0H3.94162V15.7644C3.94162 16.7862 4.10426 17.7167 4.42962 18.556Z" fill="#0A2630"></path>
          <path id="Shape" d="M27.591 0V9.30534C28.4669 8.45388 29.4805 7.77884 30.6317 7.28008C31.7829 6.78132 33.0342 6.53198 34.3856 6.53198C35.7871 6.53198 37.1009 6.78737 38.3272 7.29825C39.5535 7.80912 40.617 8.50248 41.518 9.37833C42.419 10.2542 43.1323 11.288 43.6578 12.4801C44.1834 13.6722 44.4461 14.9372 44.4461 16.2753C44.4461 17.6132 44.1834 18.8722 43.6578 20.0521C43.1323 21.232 42.419 22.2599 41.518 23.1356C40.617 24.0114 39.5535 24.7048 38.3272 25.2156C37.1009 25.7265 35.7871 25.9819 34.3856 25.9819C33.0342 25.9819 31.7767 25.7326 30.6129 25.2338C29.4492 24.7351 28.4294 24.06 27.5535 23.2086V25.544H23.7996V0H27.591ZM28.0227 18.7932C28.3605 19.5717 28.8298 20.2529 29.4304 20.8367C30.0311 21.4206 30.7318 21.8829 31.5326 22.2235C32.3335 22.564 33.1969 22.7343 34.1229 22.7343C35.0239 22.7343 35.8747 22.564 36.6755 22.2235C37.4763 21.8829 38.1707 21.4207 38.759 20.8367C39.3471 20.2529 39.8163 19.5717 40.1667 18.7932C40.517 18.0147 40.6922 17.1754 40.6922 16.2753C40.6922 15.3751 40.517 14.5297 40.1667 13.7391C39.8163 12.9484 39.3471 12.2612 38.759 11.6773C38.1708 11.0935 37.4764 10.6373 36.6755 10.3089C35.8746 9.98053 35.0238 9.81621 34.1229 9.81621C33.222 9.81621 32.3711 9.98045 31.5702 10.3089C30.7694 10.6374 30.0687 11.0935 29.468 11.6773C28.8674 12.2612 28.3919 12.9484 28.0415 13.7391C27.6912 14.5297 27.516 15.3751 27.516 16.2753C27.516 17.1754 27.6849 18.0147 28.0227 18.7932Z" fill="#0A2630"></path>
          <path id="Shape_2" d="M46.5856 12.5166C47.0861 11.3489 47.7744 10.3211 48.6502 9.43313C49.5261 8.54517 50.5648 7.84575 51.766 7.33488C52.9673 6.824 54.2687 6.5686 55.6701 6.5686C57.0466 6.5686 58.3229 6.81189 59.4992 7.29838C60.6754 7.78495 61.6889 8.46006 62.5398 9.32372C63.3907 10.1873 64.054 11.2091 64.5294 12.389C65.0049 13.5689 65.2426 14.8522 65.2426 16.2389V17.4431H49.6639C49.789 18.1973 50.0393 18.8967 50.4147 19.5413C50.7901 20.186 51.2593 20.7455 51.8224 21.2199C52.3854 21.6944 53.0236 22.0654 53.7369 22.3329C54.4502 22.6005 55.2071 22.7344 56.008 22.7344C58.2855 22.7344 60.1249 21.822 61.5264 19.9974L64.2667 21.968C63.3157 23.2087 62.1395 24.1818 60.7381 24.8873C59.3365 25.5928 57.7599 25.9455 56.0081 25.9455C54.5816 25.9455 53.249 25.7022 52.0102 25.2157C50.7714 24.7292 49.6953 24.048 48.7818 23.1721C47.8684 22.2963 47.1489 21.2685 46.6233 20.0886C46.0978 18.9088 45.835 17.6254 45.835 16.2387C45.835 14.9251 46.0851 13.6844 46.5856 12.5166ZM51.8599 11.0752C50.7963 11.9388 50.0893 13.0883 49.739 14.5236H61.4137C61.0884 13.0883 60.3939 11.9388 59.3302 11.0752C58.2666 10.2116 57.0216 9.77977 55.5951 9.77977C54.1686 9.77977 52.9235 10.2116 51.8599 11.0752Z" fill="#0A2630"></path>
          <path id="Path_2" d="M72.3373 11.4948C71.5365 12.3463 71.136 13.5018 71.136 14.9615V25.5442H67.3445V6.93342H71.0984V9.2324C71.5739 8.47824 72.1933 7.88218 72.9566 7.4443C73.7199 7.00634 74.6271 6.78735 75.6783 6.78735H76.9921V10.2176H75.4154C74.1642 10.2177 73.1381 10.6433 72.3373 11.4948Z" fill="#0A2630"></path>
        </g>
      </g>
    </g>
    <defs>
      <clipPath id="clip0_1778_4574">
        <rect width="77" height="26" fill="white"></rect>
      </clipPath>
    </defs>
  </symbol>
   <symbol fill="none" xmlns="http://www.w3.org/2000/svg" viewBox="0 0 58 26" id="automatic-data-processing">
    <g id="automatic-data-processing-logo" clip-path="url(#clip0_1778_4582)">
      <g id="New-v2">
        <g id="Automatic_Data_Processing_(logo)">
          <g id="g3346">
            <g id="g3450">
              <g id="g3452-Clipped">
                <g id="g3452">
                  <g id="g3458">
                    <g id="g3460-Clipped">
                      <g id="Mask group">
                        <mask id="mask0_1778_4582" maskUnits="userSpaceOnUse" x="0" y="0" width="58" height="26">
                          <g id="Group">
                            <path id="Vector" d="M0 25.962L58.0001 25.962V-7.62939e-06L0 -7.62939e-06L0 25.962Z" fill="#0A2630"></path>
                          </g>
                        </mask>
                        <g mask="url(#mask0_1778_4582)">
                          <g id="g3460">
                            <path id="path3466" d="M50.6825 23.6999V23.0929H51.1345C51.4352 23.0929 51.5165 23.1844 51.5165 23.3619C51.5165 23.5436 51.4352 23.6901 51.0809 23.6999H50.6825ZM50.9995 24.0704C51.1294 24.0817 51.2545 24.0704 51.3487 24.1676C51.4566 24.2803 51.4566 24.469 51.4837 24.6732C51.5008 24.8127 51.5387 24.9634 51.5658 25.0972H52.0457C51.9636 24.8831 51.9364 24.6352 51.9036 24.4099C51.8651 24.152 51.8278 24.007 51.4951 23.9422V23.9309C51.8172 23.8662 51.9857 23.6521 51.9857 23.3774C51.9857 22.8407 51.5272 22.7224 51.0866 22.7224H50.3068V25.0972H50.6825V24.0704H50.9995ZM51.1188 25.962C52.2535 25.962 53.1625 25.0606 53.1625 23.9366C53.1625 22.8238 52.2535 21.921 51.1188 21.921C49.9797 21.921 49.0642 22.8238 49.0642 23.9366C49.0642 25.0606 49.9797 25.962 51.1188 25.962ZM51.1188 25.6085C50.1818 25.6085 49.4249 24.8606 49.4249 23.9366C49.4249 23.0239 50.1818 22.2759 51.1188 22.2759C52.0515 22.2759 52.8041 23.0239 52.8041 23.9366C52.8041 24.8606 52.0515 25.6085 51.1188 25.6085Z" fill="#0A2630"></path>
                            <path id="path3468" d="M47.6547 5.56474L44.3634 5.56474V8.80718L47.6547 8.80718C48.4359 8.80718 49.0643 9.43467 49.0643 10.2006C49.0643 10.9718 48.4359 11.5915 47.6547 11.5915H44.3634V14.8367H47.6547C50.2519 14.8367 52.3557 12.7599 52.3557 10.2006C52.3557 7.64055 50.2519 5.56474 47.6547 5.56474ZM28.8978 22.7224C32.8375 22.7224 36.2331 20.4469 37.8192 17.1538L42.0146 17.1538V22.7224L44.3634 22.7224V17.1538H47.6547C51.5517 17.1538 54.7087 14.0403 54.7087 10.2006C54.7087 6.3599 51.5517 3.24525 47.6547 3.24525L42.0146 3.24525V11.5915H38.6675C37.9848 6.87467 33.8708 3.24525 28.8978 3.24525H17.3233L5.81003 22.7224H8.55655L11.8472 17.1538L23.679 17.1538V22.7224H28.8978ZM58 10.2006C58 15.8333 53.3676 20.399 47.6547 20.399V25.962L38.7247 25.962V21.6223C36.3088 24.2859 32.8046 25.962 28.8978 25.962H20.3877V20.399L13.7364 20.399L10.4457 25.962H0L15.3542 -7.62939e-06H28.8978C32.8046 -7.62939e-06 36.3088 1.68075 38.7247 4.3446V-7.62939e-06L47.6547 -7.62939e-06C53.3676 -7.62939e-06 58 4.56931 58 10.2006ZM20.3877 5.56474V11.5915H15.1378L13.2204 14.8367L23.679 14.8367L23.679 5.56474H20.3877ZM36.4216 12.981C36.4216 17.0784 33.0517 20.399 28.8978 20.399H26.0291V17.1538H28.8978C31.2365 17.1538 33.1317 15.2882 33.1317 12.981C33.1317 10.6788 31.2365 8.80718 28.8978 8.80718H26.0291V5.56474H28.8978C33.0517 5.56474 36.4216 8.88536 36.4216 12.981Z" fill="#0A2630"></path>
                            <path id="path3470" d="M47.6547 5.56474L44.3634 5.56474V8.80718L47.6547 8.80718C48.4359 8.80718 49.0643 9.43467 49.0643 10.2006C49.0643 10.9718 48.4359 11.5915 47.6547 11.5915H44.3634V14.8367H47.6547C50.2519 14.8367 52.3557 12.7599 52.3557 10.2006C52.3557 7.64055 50.2519 5.56474 47.6547 5.56474ZM28.8978 22.7224C32.8375 22.7224 36.2331 20.4469 37.8192 17.1538L42.0146 17.1538V22.7224L44.3634 22.7224V17.1538H47.6547C51.5517 17.1538 54.7087 14.0403 54.7087 10.2006C54.7087 6.3599 51.5517 3.24525 47.6547 3.24525L42.0146 3.24525V11.5915H38.6675C37.9848 6.87467 33.8708 3.24525 28.8978 3.24525H17.3233L5.81003 22.7224H8.55655L11.8472 17.1538L23.679 17.1538V22.7224H28.8978ZM58 10.2006C58 15.8333 53.3676 20.399 47.6547 20.399V25.962L38.7247 25.962V21.6223C36.3088 24.2859 32.8046 25.962 28.8978 25.962H20.3877V20.399L13.7364 20.399L10.4457 25.962H0L15.3542 -7.62939e-06H28.8978C32.8046 -7.62939e-06 36.3088 1.68075 38.7247 4.3446V-7.62939e-06L47.6547 -7.62939e-06C53.3676 -7.62939e-06 58 4.56931 58 10.2006ZM20.3877 5.56474V11.5915H15.1378L13.2204 14.8367L23.679 14.8367L23.679 5.56474H20.3877ZM36.4216 12.981C36.4216 17.0784 33.0517 20.399 28.8978 20.399H26.0291V17.1538H28.8978C31.2365 17.1538 33.1317 15.2882 33.1317 12.981C33.1317 10.6788 31.2365 8.80718 28.8978 8.80718H26.0291V5.56474H28.8978C33.0517 5.56474 36.4216 8.88536 36.4216 12.981Z" fill="#0A2630"></path>
                            <path id="path3472" d="M47.6547 5.56474L44.3634 5.56474V8.80718L47.6547 8.80718C48.4359 8.80718 49.0643 9.43467 49.0643 10.2006C49.0643 10.9718 48.4359 11.5915 47.6547 11.5915H44.3634V14.8367H47.6547C50.2519 14.8367 52.3557 12.7599 52.3557 10.2006C52.3557 7.64055 50.2519 5.56474 47.6547 5.56474ZM28.8978 22.7224C32.8375 22.7224 36.2331 20.4469 37.8192 17.1538L42.0146 17.1538V22.7224L44.3634 22.7224V17.1538H47.6547C51.5517 17.1538 54.7087 14.0403 54.7087 10.2006C54.7087 6.3599 51.5517 3.24525 47.6547 3.24525L42.0146 3.24525V11.5915H38.6675C37.9848 6.87467 33.8708 3.24525 28.8978 3.24525H17.3233L5.81003 22.7224H8.55655L11.8472 17.1538L23.679 17.1538V22.7224H28.8978ZM58 10.2006C58 15.8333 53.3676 20.399 47.6547 20.399V25.962L38.7247 25.962V21.6223C36.3088 24.2859 32.8046 25.962 28.8978 25.962H20.3877V20.399L13.7364 20.399L10.4457 25.962H0L15.3542 -7.62939e-06H28.8978C32.8046 -7.62939e-06 36.3088 1.68075 38.7247 4.3446V-7.62939e-06L47.6547 -7.62939e-06C53.3676 -7.62939e-06 58 4.56931 58 10.2006ZM20.3877 5.56474V11.5915H15.1378L13.2204 14.8367L23.679 14.8367L23.679 5.56474H20.3877ZM36.4216 12.981C36.4216 17.0784 33.0517 20.399 28.8978 20.399H26.0291V17.1538H28.8978C31.2365 17.1538 33.1317 15.2882 33.1317 12.981C33.1317 10.6788 31.2365 8.80718 28.8978 8.80718H26.0291V5.56474H28.8978C33.0517 5.56474 36.4216 8.88536 36.4216 12.981Z" fill="#0A2630"></path>
                          </g>
                        </g>
                      </g>
                    </g>
                  </g>
                </g>
              </g>
            </g>
          </g>
        </g>
      </g>
    </g>
    <defs>
      <clipPath id="clip0_1778_4582">
        <rect width="58" height="26" fill="white"></rect>
      </clipPath>
    </defs>
  </symbol>
  <symbol fill="none" xmlns="http://www.w3.org/2000/svg" viewBox="0 0 92 31" id="google">
    <g id="google-2015-logo" clip-path="url(#clip0_1778_4600)">
      <g id="New-v2">
        <g id="Google_2015_logo">
          <path id="Shape" d="M39.4408 16.2509C39.4408 20.6494 36.0368 23.8906 31.8593 23.8906C27.6818 23.8906 24.2778 20.6494 24.2778 16.2509C24.2778 11.8213 27.6818 8.61108 31.8593 8.61108C36.0368 8.61108 39.4408 11.8213 39.4408 16.2509ZM36.122 16.2509C36.122 13.5022 34.1491 11.6215 31.8593 11.6215C29.5695 11.6215 27.5966 13.5022 27.5966 16.2509C27.5966 18.972 29.5695 20.8802 31.8593 20.8802C34.1491 20.8802 36.122 18.9685 36.122 16.2509Z" fill="#0A2630"></path>
          <path id="Shape_2" d="M55.7963 16.2509C55.7963 20.6494 52.3923 23.8906 48.2148 23.8906C44.0373 23.8906 40.6333 20.6494 40.6333 16.2509C40.6333 11.8248 44.0373 8.61108 48.2148 8.61108C52.3923 8.61108 55.7963 11.8213 55.7963 16.2509ZM52.4774 16.2509C52.4774 13.5022 50.5046 11.6215 48.2148 11.6215C45.925 11.6215 43.9521 13.5022 43.9521 16.2509C43.9521 18.972 45.925 20.8802 48.2148 20.8802C50.5046 20.8802 52.4774 18.9685 52.4774 16.2509Z" fill="#0A2630"></path>
          <path id="Shape_3" d="M71.4702 9.07264V22.7884C71.4702 28.4304 68.1787 30.7348 64.2874 30.7348C60.6245 30.7348 58.4199 28.2582 57.5885 26.2329L60.4779 25.017C60.9925 26.2604 62.2532 27.7278 64.284 27.7278C66.7748 27.7278 68.3184 26.1743 68.3184 23.25V22.1512H68.2025C67.4597 23.0778 66.0286 23.8872 64.2227 23.8872C60.4439 23.8872 56.9819 20.5599 56.9819 16.2784C56.9819 11.966 60.4439 8.61108 64.2227 8.61108C66.0252 8.61108 67.4563 9.42053 68.2025 10.3195H68.3184V9.07608H71.4702V9.07264ZM68.5535 16.2784C68.5535 13.5883 66.7782 11.6215 64.5191 11.6215C62.2293 11.6215 60.311 13.5883 60.311 16.2784C60.311 18.941 62.2293 20.8802 64.5191 20.8802C66.7782 20.8802 68.5535 18.941 68.5535 16.2784Z" fill="#0A2630"></path>
          <path id="Path" d="M76.6667 1.03333V23.4222H73.4297V1.03333H76.6667Z" fill="#0A2630"></path>
          <path id="Shape_4" d="M89.2809 18.7653L91.8569 20.5013C91.0255 21.7448 89.0219 23.8872 85.56 23.8872C81.2667 23.8872 78.0603 20.5323 78.0603 16.2474C78.0603 11.7042 81.2939 8.60767 85.1886 8.60767C89.1105 8.60767 91.0289 11.7628 91.6559 13.4678L92 14.3358L81.897 18.5656C82.6705 20.0983 83.8733 20.8802 85.56 20.8802C87.2501 20.8802 88.4222 20.0398 89.2809 18.7653ZM81.3519 16.0167L88.1053 13.1819C87.7339 12.2278 86.6163 11.563 85.301 11.563C83.6144 11.563 81.2667 13.0682 81.3519 16.0167Z" fill="#0A2630"></path>
          <path id="Path_2" d="M12.0249 14.2637V11.0224H22.8298C22.9354 11.5873 22.9899 12.2556 22.9899 12.9789C22.9899 15.4107 22.3323 18.4177 20.2129 20.5601C18.1514 22.7301 15.5175 23.8874 12.0283 23.8874C5.56102 23.8874 0.122803 18.5623 0.122803 12.0248C0.122803 5.48722 5.56102 0.162109 12.0283 0.162109C15.6061 0.162109 18.1548 1.58122 20.0698 3.43089L17.8072 5.718C16.4341 4.416 14.5736 3.40333 12.0249 3.40333C7.30221 3.40333 3.60858 7.25078 3.60858 12.0248C3.60858 16.7988 7.30221 20.6462 12.0249 20.6462C15.0881 20.6462 16.8327 19.4028 17.9504 18.273C18.8567 17.3568 19.453 16.0479 19.6881 14.2602L12.0249 14.2637Z" fill="#0A2630"></path>
        </g>
      </g>
    </g>
    <defs>
      <clipPath id="clip0_1778_4600">
        <rect width="92" height="31" fill="white"></rect>
      </clipPath>
    </defs>
  </symbol>
    <symbol fill="none" xmlns="http://www.w3.org/2000/svg" viewBox="0 0 163 12" id="halliburton">
    <g id="halliburton-logo" clip-path="url(#clip0_1778_4610)">
      <g id="Symbols">
        <g id="nav-bar-laptop-slim-l-1440">
          <g id="logo/halliburton">
            <path id="Vector" fill-rule="evenodd" clip-rule="evenodd" d="M85.8777 0.129256V6.90739C85.8777 8.40004 86.3964 8.98349 87.8281 8.98349H91.2893C92.7202 8.98349 93.2396 8.40004 93.2396 6.90739V0.129256H96.7318V7.68613C96.7318 10.605 95.2691 12 92.0602 12H87.0571C83.8482 12 82.3855 10.605 82.3855 7.68613V0.129256H85.8777ZM139.77 0C142.915 0 144.788 0.810751 144.788 4.24824V7.75056C144.788 11.1888 142.915 11.9996 139.77 11.9996H134.17C131.023 11.9996 129.151 11.1888 129.151 7.75056V4.24824C129.151 0.810751 131.023 0 134.17 0H139.77ZM3.49303 0.129336V4.31355H10.8549V0.129336H14.3464V11.8696H10.8549V7.4269H3.49303V11.8696H0V0.129336H3.49303ZM26.3 0.129336L32.5609 11.8696H28.6758L27.5919 9.79352H20.5127L19.4886 11.8696H15.588L21.7542 0.129336H26.3ZM37.2979 0.129336V8.85392H45.1481V11.8696H33.8064V0.129336H37.2979ZM50.1202 0.129336V8.85392H57.9704V11.8696H46.628V0.129336H50.1202ZM63.1311 0.129336V11.8696H59.6388V0.129336H63.1311ZM75.7332 0.129656C78.5174 0.129656 79.8699 0.908394 79.8699 3.21019C79.8699 5.22146 79.1626 5.61043 78.1874 5.90256V5.95138C79.713 6.14586 80.279 6.98863 80.279 8.75579C80.279 11.3345 78.8008 11.8699 76.8031 11.8699H65.6811V0.129656H75.7332ZM109.63 0.129656C112.32 0.129656 113.044 1.50785 113.044 3.61597V4.36189C113.044 5.93457 112.697 6.85897 111.093 7.24874V7.28076C112.131 7.47524 112.996 7.94584 112.996 9.87548V11.8699H109.504V10.4589C109.504 9.2264 109.159 8.82142 108.072 8.82142H102.582V11.8699H99.0902V0.129656H109.63ZM127.877 0.129336V3.0482H122.969V11.8696H119.476V3.0482H114.569V0.129336H127.877ZM152.307 0.129656L158.867 8.65895H158.898V0.129656H162.391V11.8699H156.978L150.42 3.33985H150.388V11.8699H146.896V0.129656H152.307ZM75.4343 7.21513H69.1734V9.04792H75.4343C76.1897 9.04792 76.6928 8.86944 76.6928 8.18835C76.6928 7.3936 76.1897 7.21513 75.4343 7.21513ZM139.014 3.01571H134.923C133.083 3.01571 132.738 3.90729 132.738 5.36713V6.63247C132.738 8.33401 133.083 8.98309 134.735 8.98309H139.203C140.855 8.98309 141.201 8.33401 141.201 6.63247V5.36713C141.201 3.90729 140.855 3.01571 139.014 3.01571ZM24.0205 2.85452L21.8178 7.26443H26.286L24.0205 2.85452ZM108.041 3.04852H102.582V5.90256H108.356C109.3 5.90256 109.645 5.51359 109.645 4.67002V4.28105C109.645 3.24301 109.142 3.04852 108.041 3.04852ZM75.3559 2.95088H69.1734V4.78367H75.3559C76.0003 4.78367 76.3784 4.54037 76.3784 3.87528C76.3784 3.19418 76.0003 2.95088 75.3559 2.95088Z" fill="#0A2630"></path>
          </g>
        </g>
      </g>
    </g>
    <defs>
      <clipPath id="clip0_1778_4610">
        <rect width="163" height="12" fill="white"></rect>
      </clipPath>
    </defs>
  </symbol>
    <symbol fill="none" xmlns="http://www.w3.org/2000/svg" viewBox="0 0 129 16" id="bose">
    <g id="bose-logo" clip-path="url(#clip0_1778_4617)">
      <g id="New-v2">
        <g id="Bose_logo">
          <path id="path5" d="M88.0202 6.4449H78.9547L80.4248 3.9649C81.0368 2.9372 81.5883 2.57413 82.5075 2.57413C83.4261 2.57413 83.7327 3.29967 83.2429 4.20674H92.4922L93.4114 2.57413C94.0851 1.36428 94.0851 0.0332031 92.4312 0.0332031H76.1373C74.6672 0.0332031 73.5031 0.214742 72.6456 1.60613L69.7664 6.4449C68.9706 7.83628 69.0317 8.98582 70.9916 8.98582H80.3637L78.8326 11.6467C78.4038 12.3729 77.8523 12.8566 76.566 12.8566C75.463 12.8566 75.5247 12.1311 76.0145 11.4055H66.8262L65.7232 13.2203C65.0495 14.3698 65.601 15.3981 67.1933 15.3981H83.3644C84.8345 15.3981 86.1207 14.7329 86.8561 13.5231L89.6125 8.98643C90.2257 7.83628 89.9191 6.4449 88.0202 6.4449Z" fill="#0A2630"></path>
          <path id="path7" d="M127.374 3.02148C126.626 3.02148 126.02 3.60179 126.02 4.31072C126.02 5.03441 126.626 5.61472 127.374 5.61472C128.118 5.61472 128.721 5.03441 128.721 4.31072C128.721 3.60179 128.118 3.02148 127.374 3.02148ZM127.374 5.36118C126.764 5.36118 126.277 4.9021 126.277 4.3101C126.277 3.73718 126.763 3.27441 127.374 3.27441C127.977 3.27441 128.464 3.73718 128.464 4.3101C128.464 4.9021 127.977 5.36118 127.374 5.36118Z" fill="#0A2630"></path>
          <path id="path9" d="M67.133 0.0332031H53.2888C51.39 0.0332031 48.9396 0.0332031 47.4695 2.57413L41.3436 12.8566C40.486 14.248 41.2214 15.3975 42.8137 15.3975H58.9243C60.5783 15.3975 61.6196 14.9132 62.9059 12.8566L69.0318 2.57413C69.8276 1.24366 68.6024 0.0332031 67.133 0.0332031ZM59.3531 3.9649L54.7596 11.6467C54.147 12.736 53.5954 12.8566 52.1864 12.8566C50.7774 12.8566 50.4097 12.3729 50.8391 11.6467L55.4943 3.9649C56.1686 2.81536 56.9644 2.57413 58.1285 2.57413C59.2926 2.57413 59.9657 2.9372 59.3531 3.9649Z" fill="#0A2630"></path>
          <path id="path11" d="M42.8753 0.0335693H25.1113L17.4548 12.857H0.54834L0.556772 15.3979H34.6673C36.9338 15.3979 37.6686 14.3086 38.159 13.4619L39.9962 10.3166C40.4866 9.46988 40.4866 8.50188 39.5063 7.95788C40.4885 7.95788 41.834 7.29265 42.6304 5.90126L44.4682 2.81634C45.3874 1.30434 44.2843 0.0335693 42.8753 0.0335693ZM33.7487 10.3776L32.8295 11.8286C32.5846 12.313 32.1558 12.857 31.1145 12.857H26.5814L28.9109 8.98618H33.3193C34.1158 8.98618 34.1158 9.71172 33.7487 10.3776ZM37.6075 3.96526L36.6883 5.41695C36.4434 5.90126 36.0146 6.44526 34.9733 6.44526H30.4402L32.7678 2.57449H37.1781C37.9752 2.57449 37.9752 3.30003 37.6075 3.96526Z" fill="#0A2630"></path>
          <path id="path13" d="M128.066 3.97285C128.066 3.85162 128.01 3.723 127.899 3.66085C127.783 3.59808 127.656 3.59131 127.531 3.59131H126.872V5.04177H127.095V4.37285H127.359L127.79 5.04115H128.047L127.589 4.37285C127.858 4.36608 128.066 4.259 128.066 3.97285ZM127.34 4.19315H127.095V3.75623H127.485C127.675 3.75623 127.842 3.78146 127.842 3.96915C127.843 4.23008 127.552 4.19315 127.34 4.19315Z" fill="#0A2630"></path>
          <path id="polygon1317" d="M105.451 2.57229H128.422L128.415 0.0313721H97.7947L88.6675 15.3957H109.984L111.515 12.8548H99.3259L101.653 8.98399H113.843L115.313 6.44306H103.185L105.451 2.57229Z" fill="#0A2630"></path>
        </g>
      </g>
    </g>
    <defs>
      <clipPath id="clip0_1778_4617">
        <rect width="129" height="16" fill="white"></rect>
      </clipPath>
    </defs>
  </symbol>
    <symbol fill="none" xmlns="http://www.w3.org/2000/svg" viewBox="0 0 54 24" id="fox_wordmark">
    <g id="FOX_wordmark" clip-path="url(#clip0_1778_4627)">
      <g id="g3">
        <g id="g5">
          <path id="path7" d="M6.55968 6.55831V9.67789H12.9475V16.2009H6.55968V23.9288H0V0H13.9435L14.39 6.55831H6.55968Z" fill="#0A2630"></path>
          <path id="path9" d="M33.1171 3.67818C35.2932 5.97109 36.3819 8.73899 36.3819 11.9813C36.3819 15.2471 35.2931 18.0262 33.1171 20.3195C30.9405 22.6123 28.3154 23.7587 25.2416 23.7587C22.1452 23.7587 19.5084 22.6123 17.3323 20.3195C15.1557 18.0263 14.0676 15.2471 14.0676 11.9813C14.0676 8.73889 15.1557 5.97109 17.3323 3.67818C19.5084 1.38527 22.1452 0.23877 25.2416 0.23877C28.3153 0.23877 30.9405 1.38527 33.1171 3.67818ZM23.3568 16.7755C23.3568 17.3087 23.5472 17.7717 23.929 18.1653C24.3101 18.5593 24.7704 18.756 25.3088 18.756C25.8474 18.756 26.3017 18.5593 26.672 18.1653C27.0423 17.7717 27.2274 17.3087 27.2274 16.7755V7.08279C27.2274 6.52699 27.0423 6.0525 26.672 5.65844C26.3018 5.26496 25.8475 5.06783 25.3088 5.06783C24.7704 5.06783 24.3102 5.26496 23.929 5.65844C23.5471 6.0525 23.3568 6.52699 23.3568 7.08279V16.7755Z" fill="#0A2630"></path>
          <path id="path11" d="M46.6159 24L43.3192 17.9378L40.1252 24H32.9131L39.7818 11.5923L33.2908 0H40.7091L43.4223 5.17574L46.1697 0H53.3474L46.9938 11.5213L53.9999 23.9999H46.6159V24Z" fill="#0A2630"></path>
        </g>
      </g>
    </g>
    <defs>
      <clipPath id="clip0_1778_4627">
        <rect width="54" height="24" fill="white"></rect>
      </clipPath>
    </defs>
  </symbol>
   <symbol fill="none" xmlns="http://www.w3.org/2000/svg" viewBox="0 0 110 21" id="deloitte">
    <g id="deloitte" clip-path="url(#clip0_1778_4634)">
      <path id="Vector" d="M104.121 17.727C104.121 16.1182 105.426 14.813 107.033 14.813C108.641 14.813 109.945 16.1182 109.945 17.727C109.945 19.3358 108.641 20.6402 107.033 20.6402C105.426 20.6402 104.121 19.3358 104.121 17.727Z" fill="#0A2630"></path>
      <path id="Vector_2" d="M11.2334 10.0098C11.2334 8.16416 10.8769 6.79479 10.1638 5.90277C9.45001 5.01137 8.36876 4.56617 6.91498 4.56617H5.36852V15.853H6.55175C8.16655 15.853 9.34978 15.3742 10.1032 14.4129C10.8558 13.4535 11.2334 11.9854 11.2334 10.0098ZM16.7483 9.8175C16.7483 13.1802 15.8449 15.7713 14.038 17.59C12.2312 19.4095 9.69105 20.3193 6.4169 20.3193H0.0549316V0.169988H6.86101C10.0181 0.169988 12.4553 0.99722 14.1727 2.65069C15.8896 4.30503 16.7483 6.69276 16.7483 9.8175ZM34.371 20.3191H39.4335V0.0854656H34.371V20.3191ZM46.5453 12.7718C46.5453 14.0619 46.7139 15.0459 47.0502 15.7221C47.3872 16.3992 47.9518 16.7373 48.7458 16.7373C49.5311 16.7373 50.0867 16.3992 50.4102 15.7221C50.7338 15.0459 50.8947 14.0619 50.8947 12.7718C50.8947 11.4885 50.7312 10.5205 50.4035 9.86702C50.0747 9.21194 49.5144 8.8839 48.7197 8.8839C47.9426 8.8839 47.3874 9.21033 47.0502 9.85945C46.7139 10.5096 46.5453 11.48 46.5453 12.7718ZM56.0474 12.7718C56.0474 15.2297 55.4036 17.147 54.1124 18.5215C52.8223 19.8967 51.0161 20.5848 48.6944 20.5848C46.4678 20.5848 44.6954 19.8815 43.3799 18.4751C42.0627 17.0687 41.4045 15.1681 41.4045 12.7718C41.4045 10.3215 42.0492 8.4176 43.3404 7.06002C44.6314 5.70257 46.4417 5.02378 48.7727 5.02378C50.2129 5.02378 51.4872 5.33829 52.5913 5.96656C53.6961 6.59459 54.549 7.49443 55.1482 8.66633C55.7482 9.83674 56.0474 11.206 56.0474 12.7718ZM58.0578 20.3192H63.1212V5.28951H58.0578V20.3192ZM58.0577 3.47159H63.121V0.0844727H58.0577V3.47159ZM73.3791 16.4857C74.0626 16.4857 74.8768 16.312 75.8265 15.9672V19.7487C75.1439 20.049 74.495 20.2639 73.878 20.3913C73.2611 20.5204 72.5371 20.5844 71.7088 20.5844C70.0089 20.5844 68.7836 20.157 68.031 19.3035C67.2817 18.4502 66.9059 17.14 66.9059 15.3718V9.1762H65.1327V5.29075H66.906V1.4526L72.008 0.5648V5.29075H75.2383V9.1762H72.0079V15.0261C72.0079 15.9992 72.4657 16.4857 73.3791 16.4857ZM85.0975 16.4857C85.781 16.4857 86.595 16.312 87.5448 15.9672V19.7487C86.8631 20.049 86.2133 20.2639 85.5964 20.3913C84.9786 20.5204 84.2572 20.5844 83.4271 20.5844C81.7273 20.5844 80.5019 20.157 79.751 19.3035C79.0001 18.4502 78.6242 17.14 78.6242 15.3718V9.1762H76.8502V5.29075H78.6242V1.39439L83.7254 0.5648V5.29075H86.9575V9.1762H83.7254V15.0261C83.7254 15.9992 84.1832 16.4857 85.0975 16.4857ZM93.9335 10.9409C94.0026 10.118 94.2377 9.51503 94.6388 9.12965C95.0417 8.74514 95.5389 8.55301 96.134 8.55301C96.7828 8.55301 97.2986 8.76885 97.6813 9.20387C98.0664 9.63642 98.2669 10.2157 98.283 10.9409H93.9335ZM101.073 6.79578C99.8699 5.61532 98.1624 5.02428 95.9536 5.02428C93.6317 5.02428 91.8451 5.70307 90.5928 7.06052C89.3412 8.4181 88.7151 10.3657 88.7151 12.9039C88.7151 15.3616 89.3919 17.2571 90.742 18.5876C92.093 19.9182 93.9899 20.5843 96.4331 20.5843C97.6063 20.5843 98.6158 20.5042 99.462 20.3447C100.303 20.1871 101.117 19.9021 101.907 19.4907L101.129 16.1036C100.555 16.338 100.009 16.5185 99.4933 16.6373C98.7482 16.8102 97.9307 16.8971 97.0407 16.8971C96.0649 16.8971 95.2945 16.6585 94.73 16.1812C94.1653 15.7031 93.8643 15.0438 93.8298 14.204H102.879V11.8962C102.879 9.67613 102.278 7.97538 101.073 6.79578ZM23.4676 10.9409C23.5367 10.118 23.7718 9.51503 24.173 9.12965C24.5749 8.74514 25.073 8.55301 25.6688 8.55301C26.3161 8.55301 26.8318 8.76885 27.2154 9.20387C27.6004 9.63642 27.8002 10.2157 27.8179 10.9409H23.4676ZM30.6081 6.79578C29.4039 5.61532 27.6973 5.02428 25.4877 5.02428C23.1649 5.02428 21.3791 5.70307 20.1277 7.06052C18.8762 8.4181 18.2491 10.3657 18.2491 12.9039C18.2491 15.3616 18.9251 17.2571 20.2768 18.5876C21.627 19.9182 23.524 20.5843 25.9671 20.5843C27.1403 20.5843 28.1499 20.5042 28.996 20.3447C29.8371 20.1871 30.6512 19.9021 31.4418 19.4907L30.6631 16.1036C30.0891 16.338 29.5429 16.5185 29.028 16.6373C28.2814 16.8102 27.4647 16.8971 26.5748 16.8971C25.5997 16.8971 24.8286 16.6585 24.264 16.1812C23.6984 15.7031 23.3985 15.0438 23.3639 14.204H32.4135V11.8962C32.4135 9.67613 31.8117 7.97538 30.6082 6.79578" fill="#0A2630"></path>
    </g>
    <defs>
      <clipPath id="clip0_1778_4634">
        <rect width="110" height="20.7246" fill="white"></rect>
      </clipPath>
    </defs>
  </symbol>
    <symbol fill="none" xmlns="http://www.w3.org/2000/svg" viewBox="0 0 105 32" id="mckinsey">
    <g id="McKinsey 1" clip-path="url(#clip0_1778_4638)">
      <path id="path8" d="M1.58542 1.60377C1.58542 1.34348 0.878124 0.675794 0.657447 0.675794H0.052002V0.081665H3.57717L7.2155 9.20861H7.28906L11.1141 0.081665H14.2658V0.675794H13.7C13.4793 0.675794 12.772 1.34348 12.772 1.60377V10.6968C12.772 10.957 13.4793 11.6247 13.7 11.6247H14.2658V12.2245H9.60333V11.6247H10.1975C10.4181 11.6247 11.1254 10.957 11.1254 10.6968V1.86405L6.70624 12.3999L2.31535 1.67732V10.6572C2.31535 10.9174 3.02265 11.5851 3.24332 11.5851H3.83745V12.1793H0.052002V11.5851H0.617839C0.838515 11.5851 1.54581 10.9174 1.54581 10.6572L1.58542 1.60377Z" fill="#0A2630"></path>
      <path id="path10" d="M19.3641 7.01882C19.5848 5.79661 19.3641 4.72152 18.023 4.72152C16.467 4.72152 15.6861 5.98334 15.6861 7.79967C15.6861 9.61601 16.8178 10.991 18.5832 10.991C19.0924 11.0436 19.6052 10.9361 20.0505 10.6836C20.4957 10.4311 20.8511 10.046 21.0672 9.58206H21.5539C21.0333 11.2796 19.9922 12.366 18.023 12.366C15.8389 12.366 14.4243 10.527 14.4243 8.26366C14.4243 5.74003 16.0935 4.07081 18.1758 4.07081C18.6943 4.04538 19.212 4.13348 19.6929 4.32895C20.1737 4.52442 20.6061 4.82254 20.9597 5.20248L19.8281 6.98487L19.3641 7.01882Z" fill="#0A2630"></path>
      <path id="path12" d="M35.2074 2.4921C35.341 2.49449 35.4737 2.46964 35.5975 2.41908C35.7212 2.36852 35.8333 2.29331 35.927 2.19802C36.0207 2.10272 36.094 1.98935 36.1425 1.86481C36.191 1.74027 36.2136 1.60716 36.2089 1.4736C36.2163 1.34014 36.1954 1.20663 36.1477 1.08179C36.1 0.95694 36.0265 0.843561 35.932 0.74905C35.8375 0.654539 35.7241 0.581021 35.5992 0.533294C35.4744 0.485567 35.3409 0.464704 35.2074 0.472068C35.0669 0.461601 34.9257 0.480243 34.7928 0.526826C34.6598 0.573409 34.5378 0.646932 34.4346 0.742795C34.3313 0.838658 34.2489 0.954799 34.1926 1.08395C34.1363 1.21311 34.1072 1.3525 34.1072 1.4934C34.1072 1.63431 34.1363 1.7737 34.1926 1.90285C34.2489 2.03201 34.3313 2.14815 34.4346 2.24401C34.5378 2.33987 34.6598 2.4134 34.7928 2.45998C34.9257 2.50656 35.0669 2.5252 35.2074 2.51474V2.4921Z" fill="#0A2630"></path>
      <path id="path14" d="M46.3431 11.5851C46.1224 11.5851 45.4887 11.0193 45.4887 10.7703V6.39074C45.502 6.09779 45.4548 5.80524 45.35 5.53135C45.2452 5.25747 45.0851 5.00813 44.8796 4.79892C44.6741 4.5897 44.4276 4.42511 44.1557 4.31541C43.8837 4.20571 43.5921 4.15326 43.2989 4.16135C41.89 4.16135 41.1487 4.98181 40.2208 5.94373L39.9209 4.30281H37.4368V4.86864H37.9178C38.1385 4.86864 38.7722 5.46277 38.7722 5.68911V10.6968C38.7722 10.957 38.1385 11.5116 37.9178 11.5116H36.9559C36.7296 11.5116 36.1015 10.9457 36.1015 10.6968V4.30281H33.2723V4.86864H33.7533C33.9796 4.86864 34.6077 5.46277 34.6077 5.68911V10.6968C34.6077 10.957 33.9796 11.5116 33.7533 11.5116H32.8705C32.3274 11.2824 31.835 10.9477 31.422 10.527L27.2122 4.9422L30.1432 1.78483C30.5946 1.32287 31.1207 0.940293 31.6993 0.65316H32.2651V0.081665H27.8855V0.675793H28.4797C28.7003 0.675793 29.4076 1.4906 29.2209 1.71127L24.8922 6.56615V1.60377C24.8922 1.34348 25.5939 0.675793 25.8202 0.675793H26.3861V0.081665H21.7009V0.675793H22.2668C22.4874 0.675793 23.1947 1.34348 23.1947 1.60377V10.6968C23.1947 10.957 22.4874 11.6247 22.2668 11.6247H21.7009V12.2245H26.4143V11.6247H25.8485C25.6222 11.6247 24.9205 10.957 24.9205 10.6968V7.50544L26.1427 6.16441L30.3073 12.2245H41.5561V11.6247H41.1091C40.8884 11.6247 40.2547 11.0589 40.2547 10.8043V6.75854C40.2547 6.24363 41.7033 5.12893 42.818 5.12893C42.9925 5.11967 43.1669 5.14849 43.3292 5.21338C43.4915 5.27827 43.6377 5.37767 43.7578 5.50471C43.8778 5.63175 43.9688 5.78337 44.0244 5.94907C44.08 6.11477 44.0989 6.29057 44.0798 6.4643V10.7703C44.0798 11.0306 43.446 11.5851 43.2254 11.5851H42.7783V12.1793H46.7901V11.5851H46.3431Z" fill="#0A2630"></path>
      <path id="path16" d="M47.7915 9.43492C47.7915 10.1762 48.8666 11.7322 50.5358 11.7322C51.5034 11.7322 52.0579 11.3984 52.0579 10.6571C52.0579 9.76877 51.2771 9.46887 50.5755 9.17464C50.0096 8.9483 49.5739 8.76724 48.9402 8.46734C47.9783 8.02033 47.2427 7.39225 47.2427 6.31716C47.2427 4.90257 48.0971 4.08777 49.6192 4.08777C50.4736 4.08777 50.9546 4.49517 51.5487 4.49517C51.7694 4.49517 51.9165 4.46122 51.99 4.27449H52.4371V6.68496H51.9561C51.848 6.12706 51.5543 5.62215 51.1228 5.25232C50.6913 4.88249 50.1475 4.66949 49.5796 4.64795C48.6516 4.64795 48.2442 5.05535 48.2442 5.68343C48.2442 6.31151 48.7252 6.6114 49.506 6.94524C50.1002 7.20553 50.5472 7.39225 51.2035 7.65254C52.0579 7.98638 53.0199 8.65407 53.0199 9.91588C53.0199 11.3984 51.9787 12.2924 50.4962 12.2924C49.4947 12.2924 48.9006 11.8058 48.2329 11.8058C48.1197 11.7934 48.0053 11.8109 47.9011 11.8566C47.7968 11.9023 47.7064 11.9745 47.6388 12.0661H47.2653V9.32176H47.7519L47.7915 9.43492Z" fill="#0A2630"></path>
      <path id="path18" d="M53.5405 8.26365C53.5405 5.92675 55.1362 4.10475 57.1449 4.14436C57.513 4.1306 57.88 4.19153 58.2239 4.32349C58.5678 4.45544 58.8814 4.65568 59.1458 4.91213C59.4101 5.16858 59.6198 5.47593 59.7622 5.81563C59.9046 6.15533 59.9766 6.52035 59.9741 6.88867L60.008 7.4545L54.7741 7.86757C54.7741 9.46322 55.9057 11.0193 57.6315 11.0193C58.1357 11.0679 58.6424 10.9584 59.0815 10.7059C59.5205 10.4534 59.8701 10.0705 60.0816 9.61034H60.5965C60.0759 11.3079 59.1084 12.3943 57.2015 12.3943C54.9891 12.366 53.5405 10.4704 53.5405 8.26365ZM58.701 7.00184C58.8481 5.87016 58.6613 4.77244 57.1053 4.77244C55.5492 4.77244 54.842 6.10781 54.7684 7.33568L58.701 7.00184Z" fill="#0A2630"></path>
      <path id="path20" d="M61.4113 5.79667C61.165 5.41314 60.8187 5.10404 60.4098 4.90264H60.0759V4.30286H64.2292V4.86869H63.7482C63.5275 4.86869 63.0409 5.43453 63.0409 5.72311L64.8629 9.96122L66.6453 5.76837C66.6102 5.58303 66.5313 5.40876 66.4151 5.26013C66.299 5.1115 66.149 4.9928 65.9776 4.91396H65.491V4.30286H68.6484V4.86869H68.2749C68.0882 4.86869 67.5337 5.46282 67.3469 5.72311L64.6762 11.7719L62.7071 16.1175L62.0054 15.7837L64.0821 11.4777L61.4113 5.79667Z" fill="#0A2630"></path>
      <path id="path22" d="M23.4438 18.4488C23.4699 18.9393 23.6471 19.4097 23.9509 19.7957C24.2548 20.1816 24.6706 20.4641 25.1413 20.6046C26.6973 22.2738 28.5929 24.0562 30.2338 25.5387C30.6919 24.765 30.9123 23.8736 30.8675 22.9755C30.8675 21.8438 30.1263 21.1931 28.938 21.1535V20.5876H33.2441V21.1535H32.7574C32.2615 21.4524 31.8823 21.9115 31.6823 22.4549C31.6721 23.6628 31.3124 24.8419 30.6469 25.8499C31.4256 26.548 32.2416 27.2035 33.0913 27.8134H33.8382V28.3792H32.4971C31.9379 28.3953 31.3813 28.2967 30.8616 28.0894C30.3419 27.8821 29.8702 27.5706 29.4756 27.174C28.9488 27.6731 28.326 28.0599 27.6451 28.3108C26.9642 28.5618 26.2394 28.6717 25.5147 28.6338C24.5356 28.6674 23.5832 28.3108 22.8669 27.6423C22.1507 26.9738 21.7293 26.0482 21.6953 25.0691C21.6938 24.3462 21.8688 23.6338 22.205 22.9938C22.5413 22.3539 23.0287 21.8057 23.6248 21.3968C23.0071 20.6982 22.6722 19.7943 22.6855 18.8618C22.6855 17.1134 23.8172 16.1515 25.5826 16.1515C26.7143 16.1515 27.2801 16.5193 27.8064 16.5193C28.0666 16.5193 28.2534 16.5193 28.3722 16.2986H28.8928V19.1278H28.3439C28.3439 18.313 27.1556 16.6777 25.5147 16.6777C24.2246 16.706 23.4438 17.3171 23.4438 18.4488ZM22.9232 24.243C22.9232 25.9857 24.7791 27.638 26.488 27.638C27.4326 27.6639 28.3594 27.3775 29.1248 26.8232C27.2796 25.222 25.5319 23.512 23.8908 21.7023C23.5579 22.0325 23.2994 22.43 23.1326 22.8681C22.9657 23.3063 22.8943 23.775 22.9232 24.243Z" fill="#0A2630"></path>
      <path id="path24" d="M46.23 20.5649C46.23 19.3031 44.8211 16.7795 42.5578 16.7795C40.4811 16.7795 39.2193 17.9112 38.993 20.6781C38.9326 21.7038 38.9459 22.7325 39.0326 23.7563C39.0724 24.8124 39.5274 25.8102 40.2988 26.5327C41.0701 27.2553 42.0954 27.6443 43.1519 27.6153C45.2285 27.6153 46.2696 26.7269 47.0505 25.1312H47.6786C47.3531 26.1642 46.6972 27.0615 45.8118 27.6852C44.9264 28.3088 43.8606 28.6242 42.7784 28.5828C39.2929 28.5828 37.0635 25.7537 37.0635 22.2738C37.0635 18.7939 39.1061 16.0496 42.4842 16.0496C43.78 16.0496 44.6004 16.5701 45.5284 16.5701C45.67 16.5809 45.8121 16.5561 45.9416 16.4977C46.0711 16.4394 46.1839 16.3495 46.2696 16.2363H46.7166V20.5423H46.23V20.5649Z" fill="#0A2630"></path>
      <path id="path26" d="M48.4934 24.4636C48.4934 21.9003 50.3153 20.3047 52.392 20.3047C54.4686 20.3047 56.2906 21.9003 56.2906 24.4636C56.2906 27.0268 54.4686 28.6338 52.392 28.6338C51.859 28.6262 51.333 28.511 50.8456 28.2953C50.3582 28.0796 49.9193 27.7677 49.5553 27.3783C49.1912 26.9889 48.9096 26.5301 48.7271 26.0292C48.5446 25.5284 48.4651 24.9959 48.4934 24.4636ZM54.7176 25.765C54.8307 24.8765 54.8307 23.9771 54.7176 23.0886C54.5704 21.8268 53.8631 20.9724 52.4203 20.9724C50.9774 20.9724 50.304 21.8268 50.1173 23.0547C50.0041 23.9413 50.0041 24.8387 50.1173 25.7254C50.304 26.9476 50.9717 27.8416 52.4203 27.8416C53.8688 27.8416 54.5818 26.9872 54.7289 25.765H54.7176Z" fill="#0A2630"></path>
      <path id="path28" d="M69.084 26.9363C69.084 27.1965 69.6782 27.7567 69.8989 27.7567H70.2723V28.3226H66.3114V27.7567H66.7528C66.9791 27.7567 67.5733 27.1909 67.5733 26.9363V22.6076C67.6 22.437 67.5873 22.2625 67.5362 22.0976C67.4851 21.9326 67.3969 21.7815 67.2783 21.6559C67.1598 21.5303 67.0141 21.4335 66.8524 21.3728C66.6907 21.3122 66.5173 21.2894 66.3454 21.3062C65.3099 21.3062 64.0481 22.3134 64.0481 22.8283V26.9363C64.0481 27.1965 64.6139 27.7567 64.8629 27.7567H65.3099V28.3226H61.2981V27.7567H61.7282C61.9488 27.7567 62.543 27.1909 62.543 26.9363V22.6076C62.5639 22.4351 62.546 22.2601 62.4906 22.0954C62.4352 21.9307 62.3437 21.7805 62.2227 21.6557C62.1017 21.531 61.9544 21.4348 61.7915 21.3743C61.6286 21.3139 61.4542 21.2906 61.2812 21.3062C60.24 21.3062 58.9782 22.3473 58.9782 22.9018V26.9872C58.9782 27.2475 59.5723 27.802 59.7987 27.802H60.24V28.3678H56.2339V27.802H56.6809C56.9016 27.802 57.4957 27.2362 57.4957 26.9872V21.9399C57.4957 21.6796 56.9016 21.1251 56.6809 21.1251H56.2339V20.5593H58.6444L58.9782 22.0814C59.8722 21.1138 60.4663 20.3839 61.8413 20.3839C62.34 20.3423 62.8354 20.4961 63.2228 20.8128C63.6103 21.1295 63.8595 21.5844 63.918 22.0814C64.8799 21.1138 65.5136 20.4461 66.8094 20.4461C67.1016 20.4359 67.3926 20.4872 67.6637 20.5966C67.9348 20.7061 68.1799 20.8712 68.3831 21.0814C68.5863 21.2915 68.7432 21.542 68.8434 21.8166C68.9437 22.0912 68.9852 22.3838 68.9652 22.6755V26.9363H69.084Z" fill="#0A2630"></path>
      <path id="path30" d="M72.581 20.5311L72.8413 22.1267C73.077 21.5694 73.4764 21.0967 73.9867 20.7714C74.497 20.446 75.094 20.2833 75.6988 20.3047C77.6283 20.3047 78.7769 21.9004 78.7769 24.3165C78.7769 26.7326 77.4415 28.5433 75.5516 28.5433C75.0001 28.5928 74.4468 28.4697 73.9683 28.1909C73.4898 27.9121 73.1098 27.4915 72.8809 26.9873V30.7331C72.8809 30.9934 73.509 31.5536 73.6957 31.5536H74.2163V32.1194H70.0574V31.5536H70.5779C70.7986 31.5536 71.3927 30.9877 71.3927 30.7331V21.94C71.3927 21.6797 70.7986 21.1252 70.5779 21.1252H70.0574V20.5594L72.581 20.5311ZM72.8413 23.3602V25.4652C72.8413 26.0654 73.0797 26.6411 73.5042 27.0656C73.9287 27.49 74.5044 27.7285 75.1046 27.7285C76.44 27.7285 77.0738 26.8741 77.2548 25.6519C77.368 24.877 77.368 24.0898 77.2548 23.315C77.1077 22.0532 76.4061 21.2723 75.2914 21.2723C73.956 21.2327 73.2147 22.1607 72.8413 23.3885V23.3602Z" fill="#0A2630"></path>
      <path id="path32" d="M95.8482 27.8021C95.6275 27.8021 94.9994 27.2362 94.9994 26.9872V22.6077C95.0119 22.3149 94.9641 22.0227 94.859 21.7492C94.7539 21.4757 94.5937 21.2267 94.3884 21.0177C94.1831 20.8087 93.937 20.644 93.6654 20.534C93.3938 20.4241 93.1025 20.371 92.8096 20.3783C91.395 20.3783 90.6538 21.1987 89.7258 22.1607L89.4542 20.565H86.9645V21.1308H87.4511C87.6718 21.1308 88.2999 21.725 88.2999 21.9513V26.9363C88.2999 27.1966 87.6718 27.7568 87.4511 27.7568H86.4835C86.2629 27.7568 85.6291 27.1909 85.6291 26.9363V22.6812C85.6291 21.1252 84.3673 20.3443 82.6981 20.3443C82.1155 20.3072 81.5319 20.3973 80.9876 20.6083C80.4434 20.8194 79.9516 21.1464 79.5464 21.5665L80.5819 23.1622H81.1477C80.5536 21.8268 80.9949 20.9385 82.3303 20.9385C83.6657 20.9385 84.1862 21.5665 84.1862 22.6812V23.6488L82.1492 24.0562C81.0176 24.2769 79.586 24.8371 79.586 26.3931C79.5731 26.6666 79.615 26.9399 79.7092 27.197C79.8035 27.454 79.9482 27.6896 80.1348 27.89C80.3214 28.0903 80.5462 28.2513 80.796 28.3635C81.0457 28.4757 81.3153 28.5368 81.5891 28.5433C82.7207 28.5433 83.5921 27.6153 84.2259 26.8005L84.4126 28.3962H91.0895V27.8303H90.6481C90.4218 27.8303 89.7937 27.2645 89.7937 27.0155V22.9415C89.7937 22.4209 91.2422 21.3062 92.3513 21.3062C92.5261 21.2979 92.7006 21.3275 92.8629 21.393C93.0252 21.4586 93.1713 21.5585 93.2912 21.686C93.4112 21.8134 93.5021 21.9654 93.5576 22.1313C93.6132 22.2973 93.6321 22.4733 93.6131 22.6473V26.9363C93.6131 27.1966 92.985 27.7568 92.7643 27.7568H92.2834V28.3226H96.2895V27.7568H95.8425L95.8482 27.8021ZM84.158 26.1045C83.8241 26.6704 83.0263 27.4739 82.2284 27.4739C82.0612 27.4778 81.8949 27.4476 81.7397 27.3852C81.5845 27.3228 81.4435 27.2295 81.3255 27.111C81.2075 26.9924 81.1148 26.8511 81.0531 26.6956C80.9914 26.5401 80.962 26.3736 80.9666 26.2064C80.9666 25.4255 81.3005 24.9106 82.2681 24.6503L84.158 24.1637V26.0989V26.1045Z" fill="#0A2630"></path>
      <path id="path34" d="M96.81 22.0135C96.5635 21.6315 96.2171 21.3243 95.8085 21.1252H95.4746V20.5593H99.6392V21.1252H99.1582C98.9375 21.1252 98.4566 21.691 98.4566 21.9796L100.273 26.1724L102.055 21.9796C102.024 21.7927 101.947 21.6165 101.83 21.4672C101.714 21.3179 101.562 21.2003 101.388 21.1252H100.901V20.5593H104.058V21.1252H103.685C103.504 21.1252 102.944 21.7193 102.757 21.9796L100.086 28.0284L98.1227 32.3683L97.4098 32.0288L99.4864 27.7228L96.81 22.0135Z" fill="#0A2630"></path>
    </g>
    <defs>
      <clipPath id="clip0_1778_4638">
        <rect width="104.5" height="33" fill="white"></rect>
      </clipPath>
    </defs>
  </symbol>
</svg>