<svg width="0" height="0" class="hidden">
  <symbol fill="none" xmlns="http://www.w3.org/2000/svg" viewBox="0 0 40 40" id="noun-rocket-launch">
    <g id="noun-rocket-launch-1081519 1" clip-path="url(#clip0_2987_6152)">
      <path id="Vector" d="M34.2855 0.952393C28.1626 0.952393 22.1164 4.24213 17.2342 8.88329C16.0805 9.98018 15.0015 11.1541 13.9908 12.3797H6.6704C6.64062 12.377 6.61084 12.377 6.58106 12.3797C6.47056 12.3994 6.37039 12.4573 6.29828 12.5434L1.99829 17.8256C1.9087 17.9322 1.87031 18.0727 1.8932 18.21C1.91608 18.3474 1.99804 18.468 2.1174 18.5398L8.12858 22.1852C7.74464 23.1701 7.41411 24.1472 7.16134 25.1163C7.11581 25.2802 7.1611 25.4559 7.28046 25.5775L14.4225 32.7196C14.5439 32.8389 14.7198 32.8842 14.8838 32.8387C15.8529 32.5859 16.83 32.2554 17.8149 31.8715L21.4602 37.8826C21.5323 37.9971 21.6499 38.0756 21.7833 38.0982C21.9167 38.1211 22.0536 38.0859 22.1596 38.0018L27.4416 33.6868C27.5506 33.5996 27.6159 33.4692 27.62 33.3297V26.0093C28.8459 24.9985 30.0198 23.9196 31.1167 22.7656C35.7576 17.8836 39.0476 11.8376 39.0476 5.71429C39.0476 4.28392 39.0147 2.92046 38.5416 1.7266C38.4932 1.60404 38.3962 1.50707 38.2739 1.45883C37.08 0.985816 35.7166 0.952841 34.2862 0.952841L34.2855 0.952393ZM34.2855 1.90482C35.6002 1.90482 36.7513 1.98702 37.6929 2.30647C38.0123 3.24806 38.0945 4.39913 38.0945 5.71383C38.0945 11.4939 34.9564 17.3506 30.432 22.1105C25.9775 26.7967 20.1946 30.381 14.8985 31.8263L8.17285 25.1007C9.61847 19.8045 13.2028 14.0215 17.8886 9.56713C22.6481 5.04271 28.5047 1.90463 34.2853 1.90463L34.2855 1.90482ZM29.5243 6.666C27.4262 6.666 25.7153 8.37693 25.7153 10.475C25.7153 12.5731 27.4262 14.284 29.5243 14.284C31.6224 14.284 33.3333 12.5731 33.3333 10.475C33.3333 8.37693 31.6224 6.666 29.5243 6.666ZM29.5243 7.61818C31.1078 7.61818 32.3812 8.89154 32.3812 10.475C32.3812 12.0585 31.1078 13.3318 29.5243 13.3318C27.9409 13.3318 26.6675 12.0585 26.6675 10.475C26.6675 8.89154 27.9409 7.61818 29.5243 7.61818ZM6.89343 13.3318H13.2171C11.263 15.8542 9.6591 18.568 8.50047 21.2772L3.08461 18.0038L6.89343 13.3318ZM26.6677 26.7825V33.1062L21.9808 36.9152L18.7076 31.5141C21.4224 30.3551 24.1397 28.7409 26.6675 26.7826L26.6677 26.7825ZM5.70329 28.077C5.57901 28.0819 5.46137 28.1354 5.37597 28.2257L2.51914 31.0825C2.42955 31.1731 2.3796 31.2956 2.38082 31.4231C2.38181 31.5506 2.43349 31.6724 2.52455 31.7615C2.61585 31.8506 2.73866 31.8998 2.86615 31.8981C2.99363 31.8961 3.11496 31.8437 3.20356 31.7522L6.0604 28.8953C6.20388 28.7573 6.24621 28.5444 6.16647 28.362C6.08674 28.1794 5.90215 28.0657 5.70329 28.077ZM8.56013 30.9336C8.43584 30.9385 8.31821 30.9919 8.23281 31.0825L1.09072 38.2246C1.00113 38.3154 0.951424 38.438 0.952407 38.5655C0.953391 38.6927 1.00507 38.8145 1.09638 38.9036C1.18744 38.993 1.31025 39.0419 1.43774 39.0402C1.56522 39.0385 1.68655 38.9858 1.77515 38.8943L8.91724 31.7522C9.06047 31.6139 9.10281 31.4012 9.02331 31.2186C8.94358 31.0362 8.75899 30.9225 8.56013 30.9336ZM11.417 33.7904C11.2924 33.7954 11.175 33.8488 11.0896 33.9393L8.23281 36.7962C8.14298 36.8867 8.09327 37.0093 8.09425 37.1368C8.09524 37.2643 8.14716 37.3858 8.23823 37.4752C8.32929 37.5643 8.45234 37.6133 8.57958 37.6115C8.70706 37.6098 8.82864 37.5571 8.91724 37.4656L11.7741 34.6088C11.9173 34.4707 11.9596 34.2581 11.8801 34.0754C11.8004 33.8931 11.6156 33.7794 11.417 33.7904Z" fill="#3570C6" stroke="#3570C6"></path>
    </g>
    <defs>
      <clipPath id="clip0_2987_6152">
        <rect width="40" height="40" fill="white"></rect>
      </clipPath>
    </defs>
  </symbol>
  <symbol fill="none" xmlns="http://www.w3.org/2000/svg" viewBox="0 0 40 40" id="handshake">
    <g clip-path="url(#clip0_2988_6200)">
      <path d="M43.3627 24.7558H37.8037L15.6502 11.4637C15.4547 11.3467 15.2117 11.342 15.0126 11.4531L9.42138 14.5593H5.11317L11.2243 6.27457H22.7869L32.8285 12.5506C32.9297 12.6138 33.0467 12.6474 33.1662 12.6474H39.539C39.8909 12.6474 40.1763 12.3621 40.1763 12.0101C40.1763 11.6582 39.8909 11.3729 39.539 11.3729H33.3488L23.3072 5.09678C23.2061 5.03361 23.0891 5 22.9696 5H10.9026C10.7003 5 10.5099 5.09615 10.3897 5.2589L6.34981 10.7356H-0.869472C-1.22141 10.7356 -1.50676 11.0209 -1.50676 11.3729C-1.50676 11.7248 -1.22141 12.0101 -0.869472 12.0101H5.4096L3.33823 14.8182C3.1954 15.0117 3.17393 15.2691 3.28222 15.4838C3.3905 15.6985 3.61051 15.8338 3.85104 15.8338H9.58661C9.6949 15.8338 9.80132 15.8062 9.89623 15.7536L15.31 12.7461L36.5016 25.461L33.3198 27.9358L22.0046 21.6497C21.6966 21.4789 21.3085 21.5899 21.138 21.8971C20.9669 22.2048 21.078 22.5929 21.3854 22.7637L32.2263 28.7864L29.3368 31.0338L23.9165 28.0225C23.6084 27.8511 23.221 27.9628 23.0499 28.2699C22.8787 28.5777 22.9898 28.9657 23.2973 29.1365L28.2433 31.8844L25.9951 33.633L20.3118 32.4964L18.4924 24.6124C18.4541 24.4478 18.3524 24.3049 18.2089 24.2153L13.1107 21.0289C13.0095 20.9657 12.8925 20.9321 12.773 20.9321H5.7629C5.57868 20.9321 5.40318 21.0121 5.28213 21.1509L2.14452 24.7558H-4.36271C-4.71465 24.7558 -5 25.0412 -5 25.3931C-5 25.7451 -4.71465 26.0304 -4.36271 26.0304H2.24429L11.786 32.2987C11.86 32.3472 11.9434 32.3799 12.0309 32.3945L19.669 33.6676L26.0309 34.94C26.0726 34.9484 26.1143 34.9524 26.156 34.9524C26.2967 34.9524 26.4345 34.906 26.5472 34.8183L37.8459 26.0304H43.3627C43.7147 26.0304 44 25.7451 44 25.3931C44 25.0412 43.7147 24.7558 43.3627 24.7558ZM8.06539 28.3296L12.911 22.4071L16.9197 24.9126L12.0059 30.9183L8.06539 28.3296ZM3.39455 25.2612L6.05322 22.2067H11.4282L6.99425 27.626L3.39455 25.2612ZM17.5423 26.1644L18.948 32.2551L13.3255 31.3182L17.5423 26.1644Z" fill="#3570C6" stroke="#3570C6"></path>
    </g>
    <defs>
      <clipPath id="clip0_2988_6200">
        <rect width="40" height="40" fill="white"></rect>
      </clipPath>
    </defs>
  </symbol>
  <symbol fill="none" xmlns="http://www.w3.org/2000/svg" viewBox="0 0 27 40" id="noun-sculpture">
    <g id="noun-sculpture-2384255 1" clip-path="url(#clip0_2988_6170)">
      <path id="Vector" d="M0.500352 32.4349H0.967978C1.11284 34.0412 2.29706 35.3421 3.8254 35.6304V38.5716C3.8254 38.8346 4.04919 39.0478 4.3254 39.0478C4.6016 39.0478 4.8254 38.8346 4.8254 38.5716V35.6926H21.3008V38.5716C21.3008 38.8346 21.5246 39.0478 21.8008 39.0478C22.077 39.0478 22.3008 38.8346 22.3008 38.5716V35.6303C23.8291 35.3419 25.0134 34.0411 25.1582 32.4347H25.6259C25.9021 32.4347 26.1259 32.2216 26.1259 31.9585V28.0635C26.1259 27.8004 25.9021 27.5873 25.6259 27.5873H24.3204L24.5448 24.8329C24.7017 23.3992 24.211 21.9629 23.1978 20.8921C22.1846 19.8213 20.7357 19.2073 19.2224 19.2073H19.1226C17.6127 19.2073 16.384 18.0373 16.384 16.5991V16.1914C18.9222 14.7618 20.6798 11.7577 20.6798 8.28029C20.6798 3.82871 17.6901 0.952515 13.0627 0.952515C8.43565 0.952515 5.44607 3.82886 5.44607 8.28029C5.44607 11.7576 7.20374 14.7616 9.7419 16.1914V16.5991C9.7419 18.0371 8.5134 19.2073 7.00328 19.2073H6.90351C5.39001 19.2073 3.94109 19.8214 2.92809 20.8921C1.91492 21.963 1.42384 23.3992 1.58109 24.8324L1.88106 27.5873H0.500015C0.223811 27.5873 1.52588e-05 27.8004 1.52588e-05 28.0635V31.9585C0.00017805 32.2216 0.223973 32.4349 0.500182 32.4349H0.500352ZM21.6629 34.7402H4.46327C3.18544 34.7402 2.12977 33.7325 1.97369 32.4347L24.1524 32.4349C23.9963 33.7325 22.9407 34.7402 21.6629 34.7402ZM6.44619 8.28029C6.44619 3.5795 9.86448 1.9049 13.0629 1.9049C16.2616 1.9049 19.6795 3.57962 19.6795 8.28029C19.6795 12.6097 16.7113 16.1319 13.0629 16.1319C9.41444 16.1319 6.44619 12.6096 6.44619 8.28029ZM2.57606 24.7339C2.44829 23.5683 2.84754 22.4003 3.67127 21.5297C4.49502 20.6591 5.67323 20.1597 6.90369 20.1597H7.00346C9.04267 20.1597 10.703 18.5963 10.7387 16.662C11.4721 16.9344 12.2523 17.0847 13.063 17.0847C13.8737 17.0847 14.654 16.9345 15.3874 16.662C15.4231 18.5962 17.0834 20.1597 19.1226 20.1597H19.2224C20.4529 20.1597 21.6311 20.6591 22.4548 21.5297C23.2786 22.4005 23.6778 23.5683 23.5489 24.7466L23.3173 27.5874H18.7173V25.038C18.7173 24.7749 18.4935 24.5618 18.2173 24.5618C17.9411 24.5618 17.7173 24.7749 17.7173 25.038V27.5874L8.40854 27.5873V25.0378C8.40854 24.7748 8.18474 24.5616 7.90854 24.5616C7.63233 24.5616 7.40854 24.7748 7.40854 25.0378V27.5873H2.88687L2.57606 24.7339ZM1.00039 28.5397H25.1258V31.4824H1.00039V28.5397Z" fill="#3570C6" stroke="#3570C6"></path>
    </g>
    <defs>
      <clipPath id="clip0_2988_6170">
        <rect width="26.6667" height="40" fill="white"></rect>
      </clipPath>
    </defs>
  </symbol>
  <symbol fill="none" xmlns="http://www.w3.org/2000/svg" viewBox="0 0 40 40" id="noun-unicorn">
    <g id="noun-unicorn-4078984 1" clip-path="url(#clip0_2988_6178)">
      <g id="Group">
        <path id="Vector" d="M7.39431 14.703C7.28728 14.7032 7.1822 14.6733 7.09132 14.6168C7.0003 14.5601 6.92713 14.4791 6.87999 14.3829L0.628659 1.74292C0.570326 1.62339 0.555483 1.48706 0.586733 1.35775C0.618113 1.22846 0.693503 1.114 0.800143 1.03432C0.907436 0.95424 1.03947 0.914394 1.17308 0.921687C1.3068 0.929109 1.43362 0.983014 1.53154 1.07442L11.8632 10.6458C11.9861 10.7448 12.0626 10.8905 12.0744 11.048C12.0863 11.2055 12.0322 11.3608 11.9254 11.4771C11.8187 11.5935 11.6684 11.6605 11.5105 11.662C11.3525 11.6637 11.201 11.5999 11.0917 11.4857L3.02875 4.00005L7.90308 13.857C7.99214 14.0339 7.98342 14.2443 7.87977 14.413C7.77613 14.5819 7.59253 14.6851 7.39447 14.6856L7.39431 14.703Z" fill="#3570C6" stroke="#3570C6"></path>
        <path id="Vector_2" d="M6.63999 22.2857C5.59519 22.2913 4.59716 21.8531 3.89416 21.0802C3.19116 20.3074 2.84909 19.2724 2.95316 18.2328C3.05732 17.1932 3.59769 16.2467 4.43999 15.6285L11.92 10.0228C12.0001 5.00582 14.4058 2.85715 14.5144 2.78282C14.6538 2.65756 14.8459 2.6086 15.0285 2.65183C15.2109 2.69519 15.3605 2.82527 15.4286 3C15.5257 3.23424 17.7944 8.80566 16.2915 12.8743C16.22 13.0661 16.0516 13.2053 15.8497 13.2394C15.6479 13.2735 15.4431 13.1972 15.3126 13.0394C15.1821 12.8816 15.1458 12.6661 15.2173 12.4743C16.2287 9.73723 15.2515 6.02866 14.6972 4.343C14.0458 5.27436 13.0687 7.20016 13.08 10.3087V10.3085C13.08 10.4883 12.9954 10.6578 12.8515 10.7657L5.14283 16.5714C4.51523 17.0221 4.12669 17.7337 4.08683 18.5055C4.04685 19.2772 4.36014 20.0251 4.938 20.5381C5.51573 21.0512 6.29556 21.2737 7.05713 21.1427L13.3428 20.1769C14.2634 20.036 15.1156 19.6075 15.7777 18.9527C16.4398 18.2978 16.8776 17.4502 17.0285 16.5312C17.0622 16.327 17.2023 16.1565 17.3959 16.0835C17.5895 16.0106 17.8074 16.0466 17.9673 16.1778C18.1273 16.3091 18.205 16.5157 18.1714 16.7199C17.9778 17.8733 17.4249 18.9363 16.5919 19.7571C15.7587 20.5779 14.6876 21.1148 13.5313 21.2912L7.24566 22.257C7.04475 22.2821 6.84226 22.2916 6.63993 22.2855L6.63999 22.2857Z" fill="#3570C6" stroke="#3570C6"></path>
        <path id="Vector_3" d="M11.88 15.8743H11.7656L11.6571 15.8458L11.6572 15.8456C11.6229 15.8299 11.5904 15.8107 11.56 15.7885C11.5278 15.7706 11.4989 15.7475 11.4744 15.72L11.4285 15.6229L11.3771 15.5257V15.5256C11.3656 15.49 11.3561 15.4537 11.3486 15.4171C11.343 15.3792 11.343 15.3407 11.3486 15.3028C11.3477 15.2285 11.3612 15.1548 11.3886 15.0856C11.4181 15.0171 11.4608 14.9549 11.5143 14.9028C11.5401 14.8751 11.5689 14.8502 11.6 14.8285C11.6292 14.8059 11.662 14.7885 11.6972 14.777C11.7315 14.7605 11.7681 14.749 11.8058 14.7428C11.8791 14.7257 11.9552 14.7257 12.0285 14.7428C12.0663 14.749 12.1028 14.7605 12.1371 14.777C12.1723 14.7885 12.2051 14.8059 12.2343 14.8285C12.2666 14.8486 12.2955 14.8738 12.3201 14.9028C12.3752 14.9535 12.4181 15.016 12.4457 15.0856C12.4888 15.1903 12.4998 15.3053 12.4775 15.4162C12.4551 15.527 12.4003 15.6288 12.3201 15.7085C12.2969 15.7374 12.2676 15.7609 12.2343 15.777C12.2039 15.7993 12.1714 15.8184 12.1371 15.8342L12.0285 15.8627L11.88 15.8743Z" fill="#3570C6" stroke="#3570C6"></path>
        <path id="Vector_4" d="M19.663 39.08C19.5673 39.0805 19.4729 39.0569 19.3886 39.0115C15.1316 36.7258 15.1316 32.6515 15.1373 28.7258C15.1373 25.7487 15.1373 22.9431 13.3088 21.0001V21C13.2042 20.8889 13.1485 20.7408 13.1539 20.5883C13.1592 20.4359 13.2253 20.2921 13.3373 20.1885C13.4445 20.0822 13.5893 20.0224 13.7402 20.0224C13.8912 20.0224 14.036 20.0822 14.1431 20.1885C16.2859 22.4742 16.2802 25.6285 16.2802 28.6972C16.2802 32.3429 16.2802 35.7885 19.6515 37.8002L35.3202 28.3315C31.3715 26.7487 28.8172 21.1429 27.0688 17.3029C26.6688 16.4285 26.326 15.6744 26.0174 15.0744C22.9203 9.09738 18.1831 10.9887 16.4001 11.6974L16.3144 11.7316V11.7315C16.1245 11.807 15.9088 11.7756 15.7484 11.6489C15.5881 11.5222 15.5075 11.3196 15.5369 11.1176C15.5665 10.9154 15.7016 10.7443 15.8915 10.6687L15.9772 10.6402C20.9428 8.65169 24.6628 9.97159 27.0285 14.5489C27.3541 15.1774 27.7028 15.9432 28.1084 16.8346C29.9427 20.8689 32.7198 26.9602 36.8284 27.5776V27.5774C36.9835 27.6016 37.1217 27.6884 37.2109 27.8174C37.2999 27.9464 37.3321 28.1065 37.2998 28.2598C37.2675 28.4134 37.1735 28.5468 37.0399 28.6288L19.9542 38.9945C19.8666 39.0488 19.7659 39.0785 19.6628 39.0802L19.663 39.08Z" fill="#3570C6" stroke="#3570C6"></path>
        <path id="Vector_5" d="M38.8566 26.8113C38.7781 26.8119 38.7003 26.7963 38.628 26.7656C35.165 25.2742 30.748 18.1483 29.3537 14.7656C27.6909 10.6969 24.4793 8.11993 22.2853 7.75993C20.2752 7.46331 18.222 7.76539 16.3823 8.62843C16.2482 8.69887 16.0916 8.71319 15.9469 8.66814C15.8023 8.62321 15.6814 8.52256 15.611 8.38845C15.5406 8.25434 15.5262 8.09769 15.5713 7.95305C15.6162 7.80839 15.7169 7.68756 15.851 7.61712C17.9178 6.63105 20.233 6.28862 22.4966 6.63419C25.0395 7.05712 28.571 9.83419 30.411 14.3199C31.9309 18.0229 36.1653 24.4629 39.0853 25.7142C39.2252 25.7743 39.3351 25.8879 39.3908 26.0294C39.4466 26.1711 39.4436 26.329 39.3824 26.4685C39.3379 26.5707 39.2643 26.6576 39.1709 26.7185C39.0775 26.7794 38.9683 26.8117 38.8568 26.8113L38.8566 26.8113Z" fill="#3570C6" stroke="#3570C6"></path>
        <path id="Vector_6" d="M19.2287 10.903H19.1543H19.1544C19.0078 10.8844 18.8742 10.8096 18.7815 10.6945C18.6888 10.5796 18.6443 10.4331 18.6573 10.2858C18.8051 9.4401 19.1829 8.65144 19.7495 8.00637C20.3159 7.3612 21.0492 6.88464 21.8687 6.62864C22.0126 6.58176 22.1694 6.594 22.3044 6.66262C22.4393 6.73111 22.5417 6.85051 22.5887 6.99439C22.6355 7.1384 22.6234 7.29504 22.5548 7.43006C22.4862 7.56508 22.3669 7.6673 22.223 7.71443C21.6098 7.90349 21.0596 8.2561 20.6318 8.73436C20.2039 9.2125 19.9144 9.7983 19.7944 10.4286C19.7715 10.5618 19.702 10.6827 19.5984 10.7694C19.4948 10.8562 19.3638 10.9036 19.2287 10.903Z" fill="#3570C6" stroke="#3570C6"></path>
        <path id="Vector_7" d="M21.7486 11.0629C21.6589 11.0645 21.5704 11.0429 21.4915 11.0001C21.3574 10.9326 21.2553 10.815 21.2071 10.6727C21.1591 10.5305 21.1688 10.3751 21.2343 10.24C21.6452 9.47898 22.2834 8.86505 23.0598 8.48391C23.8363 8.10291 24.7123 7.97361 25.5658 8.11438C25.77 8.14289 25.9433 8.27831 26.0207 8.46931C26.098 8.66046 26.0676 8.87831 25.9407 9.04081C25.8139 9.20331 25.61 9.28574 25.4058 9.25722C24.7957 9.15761 24.1698 9.24719 23.6121 9.51386C23.0543 9.7804 22.5915 10.2114 22.2858 10.7486C22.2362 10.8473 22.1591 10.9295 22.0638 10.9853C21.9685 11.0411 21.859 11.068 21.7487 11.0629L21.7486 11.0629Z" fill="#3570C6" stroke="#3570C6"></path>
        <path id="Vector_8" d="M24.857 12.9713C24.6973 12.9708 24.5451 12.9035 24.4373 12.7857C24.3295 12.668 24.2758 12.5106 24.2894 12.3515C24.3028 12.1924 24.3822 12.0463 24.5084 11.9484C25.3426 11.3084 27.3656 10.4627 29.0797 11.8227H29.0796C29.2033 11.9156 29.284 12.0546 29.3034 12.208C29.3227 12.3614 29.2791 12.5162 29.1823 12.6369C29.0857 12.7575 28.9442 12.8339 28.7903 12.8484C28.6362 12.863 28.483 12.8145 28.3654 12.7141C26.9197 11.5713 25.2283 12.8398 25.2111 12.8513C25.1098 12.9299 24.9851 12.9721 24.8568 12.9713L24.857 12.9713Z" fill="#3570C6" stroke="#3570C6"></path>
        <path id="Vector_9" d="M30.1257 15.6629C29.9766 15.6639 29.8331 15.6064 29.7257 15.5029C28.5199 14.3144 27.1886 15.4001 27.04 15.5029C26.8865 15.6025 26.6944 15.6226 26.5236 15.5568C26.3529 15.4911 26.2239 15.3475 26.1769 15.1705C26.1297 14.9937 26.1702 14.8049 26.2857 14.6629C26.8551 14.1163 27.6137 13.8111 28.4029 13.8111C29.1921 13.8111 29.9507 14.1163 30.5201 14.6629C30.6265 14.77 30.6863 14.9148 30.6863 15.0658C30.6863 15.2167 30.6265 15.3615 30.5201 15.4687C30.4199 15.5834 30.2778 15.6533 30.1257 15.6629L30.1257 15.6629Z" fill="#3570C6" stroke="#3570C6"></path>
        <path id="Vector_10" d="M28.3087 19.2113C28.1676 19.205 28.034 19.147 27.9334 19.0481C27.8327 18.9493 27.7722 18.8168 27.7633 18.676C27.7546 18.5353 27.7982 18.3961 27.8857 18.2855C28.3945 17.6963 29.1007 17.3131 29.8721 17.2078C30.6433 17.1026 31.4265 17.2827 32.0744 17.7141C32.2478 17.8295 32.3467 18.0286 32.3335 18.2365C32.3204 18.4445 32.1973 18.6296 32.0107 18.7222C31.824 18.8149 31.6021 18.8009 31.4286 18.6855C31.0133 18.4011 30.5085 18.2778 30.0089 18.3388C29.5093 18.3998 29.049 18.641 28.7144 19.017C28.6114 19.1345 28.4648 19.2047 28.3087 19.2113Z" fill="#3570C6" stroke="#3570C6"></path>
        <path id="Vector_11" d="M30.3487 22.8C30.1987 22.7979 30.0556 22.737 29.9502 22.6302C29.8448 22.5235 29.7855 22.3797 29.7852 22.2297C29.785 22.0797 29.8437 21.9356 29.9487 21.8285C30.0173 21.7541 31.6915 20.1142 34.52 21.417V21.4172C34.7067 21.5007 34.8347 21.6778 34.8557 21.8815C34.8765 22.0851 34.7872 22.2844 34.6213 22.4043C34.4554 22.5242 34.2382 22.5466 34.0514 22.4629C31.977 21.52 30.8114 22.5943 30.7657 22.64C30.6541 22.7478 30.5034 22.8055 30.3485 22.8L30.3487 22.8Z" fill="#3570C6" stroke="#3570C6"></path>
        <path id="Vector_12" d="M32.063 25.663C31.9489 25.6632 31.8376 25.6294 31.7429 25.5658C31.6192 25.4821 31.5333 25.3533 31.5034 25.207C31.4735 25.0606 31.5021 24.9084 31.5829 24.7829C31.6401 24.6972 32.9772 22.7085 36.5542 23.8515C36.7078 23.8897 36.8386 23.9898 36.9156 24.1279C36.9925 24.2662 37.0088 24.4302 36.9604 24.5807C36.9121 24.7313 36.8035 24.8552 36.6604 24.9227C36.5174 24.9903 36.3527 24.9955 36.2057 24.9372C33.5028 24.0743 32.5713 25.3601 32.537 25.4115C32.4306 25.569 32.2528 25.6632 32.0628 25.663L32.063 25.663Z" fill="#3570C6" stroke="#3570C6"></path>
      </g>
    </g>
    <defs>
      <clipPath id="clip0_2988_6178">
        <rect width="40" height="40" fill="white"></rect>
      </clipPath>
    </defs>
  </symbol>
  <symbol fill="none" xmlns="http://www.w3.org/2000/svg" viewBox="0 0 35 40" id="noun-passion">
    <g id="noun-passion-4737313 1">
      <g id="Group">
        <path id="Vector" d="M4.29269 14.1842C4.05162 14.167 3.8113 14.2267 3.60593 14.3543C3.4007 14.482 3.24111 14.6714 3.14984 14.8952C1.93107 17.7682 1.29218 20.8539 1.26987 23.9746C1.26987 32.2863 8.3905 39.0476 17.1429 39.0476C25.8953 39.0476 33.0159 32.2863 33.0159 23.9746C32.9798 20.2603 31.8756 16.6349 29.8349 13.5314C29.7104 13.3392 29.5329 13.187 29.3238 13.0935C29.1146 12.9999 28.8828 12.969 28.6565 13.0045C28.4277 13.0372 28.2131 13.1353 28.0389 13.2872C27.8646 13.4391 27.7379 13.6382 27.6742 13.8604C27.4641 14.6496 27.1283 15.4 26.6801 16.0826C25.9837 13.0162 24.69 10.1169 22.8724 7.55088C21.0551 4.98479 18.7496 2.80199 16.0883 1.12739C15.7135 0.901694 15.247 0.892272 14.8635 1.10259C14.4713 1.31216 14.2196 1.71408 14.2025 2.15852C14.0304 6.349 12.9657 7.40995 10.6324 9.73694L10.3448 10.0239V10.024C8.35585 11.9128 7.00067 14.3713 6.46544 17.0615C5.91832 16.4961 5.53264 15.7946 5.34861 15.0297C5.28301 14.7961 5.14586 14.5889 4.95648 14.4372C4.76711 14.2856 4.53499 14.197 4.29267 14.184L4.29269 14.1842ZM6.78412 18.6972C6.97758 18.7614 7.19012 18.7288 7.35542 18.6096C7.52072 18.4903 7.61882 18.2991 7.61906 18.0952C7.61906 17.9968 7.71877 14.4514 11.2426 10.927L11.5289 10.6413C13.9416 8.23305 15.2749 6.90476 15.4654 2.2381C18.1362 3.92473 20.4235 6.15302 22.1791 8.77905C23.9349 11.4051 25.1202 14.3702 25.6581 17.4825C25.6916 17.6805 25.8166 17.851 25.9954 17.9422C26.1741 18.0335 26.3855 18.035 26.5655 17.9461C26.7108 17.8737 27.9947 17.1708 28.8512 14.3531C30.7072 17.2216 31.7109 20.5581 31.7458 23.9746C31.7458 31.5854 25.1953 37.7778 17.1426 37.7778C9.0899 37.7778 2.53943 31.5854 2.53943 23.9746C2.56832 21.1206 3.13492 18.2978 4.20933 15.6534C4.72743 17.2591 5.61435 18.3086 6.78387 18.6973L6.78412 18.6972Z" fill="#3570C6" stroke="#3570C6"></path>
        <path id="Vector_2" d="M16.6102 35.7905C16.9569 35.8996 17.3289 35.8996 17.6756 35.7905C20.7934 34.7563 23.5493 32.8496 25.6159 30.2965C25.619 30.2928 25.6219 30.2887 25.6242 30.2845C27.6471 27.6229 28.1175 22.9359 25.5607 20.4674V20.4672C24.9142 19.7858 24.1051 19.2797 23.2096 18.9965C22.3139 18.7131 21.361 18.6619 20.4401 18.8476C19.0974 19.1404 17.9175 19.9359 17.143 21.0712C16.3682 19.9364 15.1884 19.1412 13.8458 18.8489C12.9251 18.6635 11.9724 18.7149 11.077 18.998C10.1815 19.2812 9.37259 19.7869 8.7258 20.468C6.16837 22.9372 6.63887 27.6242 8.66987 30.2978L8.66999 30.2977C10.7369 32.8504 13.4925 34.7568 16.6103 35.7904L16.6102 35.7905ZM9.60825 21.3778C10.431 20.524 11.5569 20.0288 12.7422 19.9993C13.0227 19.9996 13.3024 20.0297 13.5765 20.0895C14.9346 20.3911 16.0516 21.3525 16.5517 22.6507C16.6142 22.8101 16.7385 22.9376 16.8962 23.004C17.054 23.0705 17.2318 23.0705 17.3895 23.004C17.5473 22.9376 17.6715 22.8101 17.734 22.6507C18.2342 21.3525 19.3511 20.3911 20.7092 20.0895C22.1664 19.8097 23.6652 20.2979 24.6781 21.3821C26.6635 23.2983 26.2762 27.3231 24.6179 29.5091C22.712 31.8639 20.1709 33.6231 17.2959 34.5777C17.1962 34.6088 17.0896 34.6088 16.9899 34.5777C14.117 33.6248 11.5775 31.8685 9.6718 29.5167C8.01022 27.3294 7.61911 23.3009 9.60831 21.3802L9.60825 21.3778Z" fill="#3570C6" stroke="#3570C6"></path>
      </g>
    </g>
  </symbol>
  <symbol fill="none" xmlns="http://www.w3.org/2000/svg" viewBox="0 0 40 40" id="noun-target">
    <g id="noun-target-898033 1" clip-path="url(#clip0_2988_6198)">
      <path id="Vector" d="M33.7999 1.38241C33.7028 1.39293 33.6124 1.4359 33.5428 1.50439L27.4808 7.56636C27.4002 7.64962 27.3564 7.76175 27.3591 7.87769V12.0183L24.558 14.8191C22.785 13.1949 20.4226 12.2076 17.8331 12.2076C12.338 12.2076 7.8744 16.6716 7.8744 22.1669C7.8744 27.6618 12.3381 32.1256 17.8331 32.1256C23.3281 32.1256 27.7924 27.6617 27.7924 22.1669C27.7924 19.5705 26.7991 17.2029 25.1673 15.4283L27.9683 12.6409H30.1604C32.2034 15.2775 33.4214 18.5717 33.4214 22.167C33.4214 30.781 26.4478 37.7546 17.8333 37.7546C9.21932 37.7546 2.24576 30.781 2.24576 22.167C2.24576 13.5531 9.21932 6.57895 17.8333 6.57895C20.4206 6.57895 22.8604 7.2099 25.0051 8.32449C25.1078 8.38223 25.2298 8.39544 25.3426 8.36119C25.4554 8.32695 25.5494 8.24839 25.6029 8.1432C25.6564 8.03801 25.6647 7.9158 25.6259 7.80434C25.587 7.69311 25.5046 7.60224 25.3974 7.55322C23.1333 6.37664 20.5615 5.71303 17.8331 5.71303C8.75107 5.71303 1.3793 13.0848 1.3793 22.1669C1.3793 31.2489 8.75107 38.6207 17.8331 38.6207C26.9152 38.6207 34.287 31.2489 34.287 22.1669C34.287 18.6167 33.1563 15.3291 31.2424 12.6408H32.122C32.238 12.6434 32.3501 12.5996 32.4334 12.519L38.4953 6.45702C38.6236 6.33303 38.6627 6.14323 38.5938 5.97873C38.5251 5.814 38.3624 5.70859 38.1842 5.71284H34.2872V1.81576C34.2881 1.69087 34.2352 1.5718 34.1419 1.48877C34.0486 1.40573 33.9239 1.36724 33.8001 1.38268L33.7999 1.38241ZM33.421 2.87098V5.95605L28.2249 11.1519V8.06685L33.421 2.87098ZM34.0298 6.57846H37.1285L31.9326 11.7743H28.8339L34.0298 6.57846ZM17.8332 13.0736C20.188 13.0736 22.3229 13.9773 23.9359 15.4415L19.9444 19.4333C19.3591 18.9816 18.6272 18.7027 17.8333 18.7027C15.9253 18.7027 14.3694 20.2587 14.3694 22.1667C14.3694 24.0745 15.9253 25.6307 17.8333 25.6307C19.7414 25.6307 21.2973 24.0745 21.2973 22.1667C21.2973 21.369 21.0225 20.6287 20.5668 20.0423L24.5583 16.0506C26.0265 17.6645 26.9262 19.8084 26.9262 22.167C26.9262 27.1938 22.8604 31.2599 17.8333 31.2599C12.8064 31.2599 8.74032 27.1939 8.74032 22.167C8.74032 17.1399 12.8064 13.074 17.8333 13.074L17.8332 13.0736ZM17.8332 19.5687C18.3914 19.5687 18.9127 19.7453 19.3352 20.0423L17.5221 21.8555C17.3556 22.0276 17.3594 22.302 17.5306 22.4694C17.7018 22.6368 17.976 22.6346 18.1445 22.4645L19.9442 20.6648C20.2441 21.0885 20.4312 21.6055 20.4312 22.1668C20.4312 23.6066 19.2732 24.7646 17.8332 24.7646C16.3934 24.7646 15.2354 23.6066 15.2354 22.1668C15.2354 20.7268 16.3934 19.5687 17.8332 19.5687Z" fill="#3570C6" stroke="#3570C6"></path>
    </g>
    <defs>
      <clipPath id="clip0_2988_6198">
        <rect width="40" height="40" fill="white"></rect>
      </clipPath>
    </defs>
  </symbol>
</svg>