<svg width="0" height="0" class="hidden">
  <symbol version="1.1" xmlns="http://www.w3.org/2000/svg" xmlns:xlink="http://www.w3.org/1999/xlink" viewBox="0 0 64 25" id="glasses">
    <title>noun_Glasses_2439303</title>
    <desc>Created with Sketch.</desc>
    <g id="New-v2" stroke="none" stroke-width="1" fill="none" fill-rule="evenodd">
      <g id="Case-Study-simon-kucher" transform="translate(-263.000000, -1089.000000)" fill="#FFFFFF" fill-rule="nonzero">
        <g id="noun_Glasses_2439303" transform="translate(263.000000, 1089.000000)">
          <path d="M16.1540741,24.2136537 C11.8992593,24.2136537 4.43259259,21.5351351 3.46074074,11.5084685 C3.18341191,8.90663979 4.04815083,6.312423 5.83111111,4.39735736 C8.67912228,1.55479746 12.5702828,0.00776117841 16.5925926,0.118838839 C19.7021617,0.022355334 22.7497588,1.00194013 25.2207407,2.89217217 C25.4222222,3.0580981 29.9614815,6.90994995 27.8992593,14.4121722 C25.5288889,23.3129129 18.477037,24.1662462 16.3792593,24.2136537 L16.1540741,24.2136537 Z M16.5925926,2.88032032 C13.3337731,2.76726617 10.1686658,3.98198302 7.82222222,6.24624625 C6.56035473,7.59679598 5.96145917,9.43688088 6.18666667,11.2714314 C7.14666667,21.226987 15.2414815,21.5114314 16.1540741,21.5114314 L16.32,21.5114314 C18.3822222,21.5114314 23.4311111,20.6106907 25.2444444,13.7247648 C26.8325926,7.86994995 23.5022222,5.06106106 23.4785185,5.06106106 C21.4989668,3.56787744 19.0712768,2.79068237 16.5925926,2.85661662 L16.5925926,2.88032032 Z" id="Shape"></path>
          <path d="M26.5837037,7.70402402 C25.9696183,7.71390131 25.4247804,7.31185034 25.2531332,6.72215913 C25.081486,6.13246793 25.3254342,5.50081727 25.8488889,5.17957958 C27.7257891,4.11906577 29.8442105,3.55986783 32,3.55587588 C32.5478782,3.44025147 33.11114,3.66845809 33.4240332,4.13282578 C33.7369265,4.59719347 33.7369265,5.20492865 33.4240332,5.66929634 C33.11114,6.13366403 32.5478782,6.36187065 32,6.24624625 C30.3459516,6.24231621 28.7168643,6.64958805 27.2592593,7.43143143 C27.0639014,7.58351738 26.8299035,7.67793757 26.5837037,7.70402402 L26.5837037,7.70402402 Z" id="Path"></path>
          <path d="M5.0962963,9.63587588 C4.95116043,9.63544785 4.80705913,9.61143097 4.66962963,9.56476476 L0.663703704,8.22550551 L1.73037037,4.95439439 L6.31703704,4.27883884 C7.0632351,4.16756369 7.75835448,4.68227041 7.86962963,5.42846847 C7.98090478,6.17466653 7.46619806,6.86978591 6.72,6.98106106 L5.84296296,7.11143143 C6.3500585,7.44398415 6.57937756,8.06950631 6.40738148,8.65101688 C6.2353854,9.23252744 5.7027012,9.63266836 5.0962963,9.63587588 L5.0962963,9.63587588 Z" id="Path"></path>
          <path d="M47.8459259,24.2255055 L47.6088889,24.2255055 C45.522963,24.2255055 38.5185185,23.3247648 36.1007407,14.424024 C34.0740741,6.9218018 38.5896296,3.06994995 38.7792593,2.90402402 C41.2486672,1.00955997 44.2964104,0.0257417636 47.4074074,0.118838839 C51.4367082,-0.0114787965 55.3418728,1.5231523 58.2044444,4.3618018 C59.9819236,6.28011677 60.8458092,8.87177343 60.5748148,11.4729129 C59.5674074,21.546987 52.1481481,24.2255055 47.8459259,24.2255055 Z M47.4074074,2.89217217 C44.9329271,2.81602255 42.5056542,3.58055085 40.5214815,5.06106106 C40.402963,5.16772773 37.1911111,8.01217217 38.7437037,13.7484685 C40.6162963,20.6343944 45.6177778,21.4877277 47.68,21.5351351 L47.8459259,21.5351351 C48.7585185,21.5351351 56.8533333,21.2506907 57.8133333,11.2951351 C58.0458214,9.45271539 57.4464185,7.60238484 56.1777778,6.24624625 C53.831505,3.97916495 50.6684917,2.75670306 47.4074074,2.85661662 L47.4074074,2.89217217 Z" id="Shape"></path>
          <path d="M37.4281481,7.71587588 C37.1736273,7.71351897 36.9242385,7.64401717 36.7051852,7.51439439 L36.7051852,7.51439439 C35.2477606,6.73208414 33.6185533,6.32478233 31.9644444,6.32920921 C31.2576165,6.26336884 30.7171404,5.67020814 30.7171404,4.96032032 C30.7171404,4.2504325 31.2576165,3.6572718 31.9644444,3.59143143 C34.1190597,3.60433502 36.2352782,4.16295144 38.1155556,5.21513514 C38.4246813,5.40593242 38.6448506,5.71223842 38.7271844,6.06605122 C38.8095182,6.41986402 38.7472033,6.79190534 38.5540741,7.09957958 C38.3021576,7.4768031 37.8816678,7.7069659 37.4281481,7.71587588 L37.4281481,7.71587588 Z" id="Path"></path>
          <path d="M58.9037037,9.63587588 C58.2972988,9.63266836 57.7646146,9.23252744 57.5926185,8.65101688 C57.4206224,8.06950631 57.6499415,7.44398415 58.157037,7.11143143 L57.28,6.98106106 C56.5338019,6.86978591 56.0190952,6.17466653 56.1303704,5.42846847 C56.2416455,4.68227041 56.9367649,4.16756369 57.682963,4.27883884 L62.2696296,4.95439439 L63.3362963,8.22550551 L59.3303704,9.56476476 C59.1929409,9.61143097 59.0488396,9.63544785 58.9037037,9.63587588 Z" id="Path"></path>
        </g>
      </g>
    </g>
  </symbol>
    <symbol version="1.1" xmlns="http://www.w3.org/2000/svg" xmlns:xlink="http://www.w3.org/1999/xlink" viewBox="0 0 37 42" id="ar">
    <title>noun_ar_2300882</title>
    <desc>Created with Sketch.</desc>
    <g id="New-v2" stroke="none" stroke-width="1" fill="none" fill-rule="evenodd">
      <g id="Case-Study-simon-kucher" transform="translate(-602.000000, -1081.000000)" fill="#FFFFFF" fill-rule="nonzero" stroke="#FFFFFF">
        <g id="noun_ar_2300882" transform="translate(603.000000, 1082.000000)">
          <path d="M34.8314363,8.43859935 C35.0303458,8.53537652 35.2001258,8.6960144 35.306695,8.9091525 C35.3117758,8.91931423 35.316675,8.92951927 35.3213938,8.93976398 C35.3317254,8.96222063 35.3412681,8.98506654 35.3499967,9.00826054 C35.3980548,9.13585896 35.4193725,9.26690629 35.4166667,9.39595565 L35.4166667,16.6666667 C35.4166667,17.2419633 34.9502967,17.7083333 34.375,17.7083333 C33.7997033,17.7083333 33.3333333,17.2419633 33.3333333,16.6666667 L33.3333333,11.0604521 L28.5908475,13.431695 C28.0762865,13.6889755 27.4505854,13.4804084 27.193305,12.9658475 C26.9360246,12.4512866 27.1445917,11.8255855 27.6591525,11.568305 L32.0457625,9.375 L27.6591525,7.181695 C27.1445917,6.92441452 26.9360246,6.29871344 27.193305,5.7841525 C27.4505854,5.26959156 28.0762865,5.06102454 28.5908475,5.318305 L34.8314363,8.43859935 Z M35.4166667,30.1873777 C35.4198733,30.3403112 35.389341,30.496051 35.3213938,30.6435694 C35.2703733,30.7544669 35.2001163,30.8558704 35.1136927,30.9428131 C35.0259844,31.0299471 34.9324679,31.0955783 34.8314363,31.144734 L28.5908475,34.2650283 C28.0762865,34.5223087 27.4505854,34.3137417 27.193305,33.7991808 C26.9360246,33.2846198 27.1445917,32.6589187 27.6591525,32.4016383 L32.0457625,30.2083333 L27.6591525,28.0150283 C27.1445917,27.7577479 26.9360246,27.1320469 27.193305,26.6174858 C27.4505854,26.102925 28.0762865,25.8943579 28.5908475,26.1516383 L33.3333333,28.5228812 L33.3333333,22.9166667 C33.3333333,22.34137 33.7997033,21.875 34.375,21.875 C34.9502967,21.875 35.4166667,22.34137 35.4166667,22.9166667 L35.4166667,30.1873777 Z M3.37090415,30.2083333 L7.75751417,32.4016383 C8.2720751,32.6589187 8.48064213,33.2846198 8.22336167,33.7991808 C7.96608119,34.3137417 7.3403801,34.5223087 6.82581917,34.2650283 L0.585230479,31.144734 C0.386320771,31.0479569 0.216540729,30.887319 0.109971667,30.6741808 C0.104890813,30.6640192 0.0999916458,30.653814 0.0952729167,30.6435694 C0.0849413125,30.6211127 0.0753985417,30.5982669 0.0666700625,30.5750727 C0.018611875,30.4474744 -0.00270585417,30.3164271 1.72298699e-15,30.1873777 L1.72298699e-15,22.9166667 C1.72298699e-15,22.34137 0.466370063,21.875 1.04166667,21.875 C1.61696327,21.875 2.08333333,22.34137 2.08333333,22.9166667 L2.08333333,28.5228812 L6.82581917,26.1516383 C7.3403801,25.8943579 7.96608119,26.102925 8.22336167,26.6174858 C8.48064213,27.1320469 8.2720751,27.7577479 7.75751417,28.0150283 L3.37090415,30.2083333 Z M2.08333333,11.0604521 L2.08333333,16.6666667 C2.08333333,17.2419633 1.61696327,17.7083333 1.04166667,17.7083333 C0.466370063,17.7083333 1.17841934e-15,17.2419633 1.17841934e-15,16.6666667 L1.17841934e-15,9.39595565 C-0.00320664583,9.24302198 0.0273257083,9.08728229 0.0952729167,8.93976398 C0.146293354,8.82886654 0.216550375,8.72746283 0.302973979,8.64052015 C0.390682396,8.55338627 0.484198854,8.4877551 0.585230479,8.43859935 L6.82581917,5.318305 C7.3403801,5.06102454 7.96608119,5.26959156 8.22336167,5.7841525 C8.48064213,6.29871344 8.2720751,6.92441452 7.75751417,7.181695 L3.37090415,9.375 L7.75751417,11.568305 C8.2720751,11.8255855 8.48064213,12.4512866 8.22336167,12.9658475 C7.96608119,13.4804084 7.3403801,13.6889755 6.82581917,13.431695 L2.08333333,11.0604521 Z M17.2237425,0.119343333 C17.3684965,0.04313225 17.5333779,0 17.7083333,0 C17.8832888,0 18.0481702,0.04313225 18.1929242,0.119343333 L24.4241808,3.23497167 C24.9387417,3.49225215 25.1473088,4.11795323 24.8900283,4.63251417 C24.6327479,5.1470751 24.0070469,5.35564213 23.4924858,5.09836167 L18.75,2.72711873 L18.75,8.33333333 C18.75,8.90862994 18.28363,9.375 17.7083333,9.375 C17.1330367,9.375 16.6666667,8.90862994 16.6666667,8.33333333 L16.6666667,2.72711873 L11.9241808,5.09836167 C11.4096199,5.35564213 10.7839188,5.1470751 10.5266383,4.63251417 C10.2693579,4.11795323 10.4779249,3.49225215 10.9924858,3.23497167 L17.2237425,0.119343333 Z M18.1929242,39.46399 C18.0481702,39.540201 17.8832888,39.5833333 17.7083333,39.5833333 C17.5333779,39.5833333 17.3684965,39.540201 17.2237425,39.46399 L10.9924858,36.3483617 C10.4779249,36.0910813 10.2693579,35.4653802 10.5266383,34.9508192 C10.7839188,34.4362583 11.4096199,34.2276913 11.9241808,34.4849717 L16.6666667,36.8562146 L16.6666667,31.25 C16.6666667,30.6747033 17.1330367,30.2083333 17.7083333,30.2083333 C18.28363,30.2083333 18.75,30.6747033 18.75,31.25 L18.75,36.8562146 L23.4924858,34.4849717 C24.0070469,34.2276913 24.6327479,34.4362583 24.8900283,34.9508192 C25.1473088,35.4653802 24.9387417,36.0910813 24.4241808,36.3483617 L18.1929242,39.46399 Z M18.75,18.3521188 L18.75,23.9583333 C18.75,24.53363 18.28363,25 17.7083333,25 C17.1330367,25 16.6666667,24.53363 16.6666667,23.9583333 L16.6666667,18.3521188 L10.9924858,15.5150283 C10.4779249,15.2577479 10.2693579,14.6320468 10.5266383,14.1174858 C10.7839188,13.6029249 11.4096199,13.3943579 11.9241808,13.6516383 L17.7083333,16.5437146 L23.4924858,13.6516383 C24.0070469,13.3943579 24.6327479,13.6029249 24.8900283,14.1174858 C25.1473088,14.6320468 24.9387417,15.2577479 24.4241808,15.5150283 L18.75,18.3521188 Z" id="Shape"></path>
        </g>
      </g>
    </g>
  </symbol>
   <symbol version="1.1" xmlns="http://www.w3.org/2000/svg" xmlns:xlink="http://www.w3.org/1999/xlink" viewBox="0 0 41 41" id="app">
    <title>noun_App_1935543</title>
    <desc>Created with Sketch.</desc>
    <g id="New-v2" stroke="none" stroke-width="1" fill="none" fill-rule="evenodd">
      <g id="Case-Study-simon-kucher" transform="translate(-514.000000, -1080.000000)" fill="#FFFFFF" fill-rule="nonzero" stroke="#FFFFFF" stroke-width="0.8">
        <g id="noun_App_1935543" transform="translate(515.000000, 1081.000000)">
          <path d="M4.40418956,2.20638736 C3.19037692,2.20638736 2.20638736,3.19037692 2.20638736,4.40418956 L2.20638736,13.1953984 C2.20638736,14.409211 3.19037692,15.3932005 4.40418956,15.3932005 L13.1953984,15.3932005 C14.409211,15.3932005 15.3932005,14.409211 15.3932005,13.1953984 L15.3932005,4.40418956 C15.3932005,3.19037692 14.409211,2.20638736 13.1953984,2.20638736 L4.40418956,2.20638736 Z M4.40418956,0.00858516484 L13.1953984,0.00858516484 C14.3611851,0.00858516484 15.4792243,0.471692155 16.30356,1.29602788 C17.1278958,2.12036361 17.5910027,3.23840279 17.5910027,4.40418956 L17.5910027,13.1953984 C17.5910027,14.3611851 17.1278958,15.4792243 16.30356,16.30356 C15.4792243,17.1278958 14.3611851,17.5910027 13.1953984,17.5910027 L4.40418956,17.5910027 C1.97656429,17.5910027 0.00858516484,15.6230236 0.00858516484,13.1953984 L0.00858516484,4.40418956 C0.00858516484,1.97656429 1.97656429,0.00858516484 4.40418956,0.00858516484 Z M4.40418956,24.1844093 C3.19037692,24.1844093 2.20638736,25.1683989 2.20638736,26.3822115 L2.20638736,35.1734203 C2.20638736,35.7563137 2.43794086,36.3153333 2.85010872,36.7275012 C3.26227659,37.139669 3.82129618,37.3712225 4.40418956,37.3712225 L13.1953984,37.3712225 C14.409211,37.3712225 15.3932005,36.387233 15.3932005,35.1734203 L15.3932005,26.3822115 C15.3932005,25.1683989 14.409211,24.1844093 13.1953984,24.1844093 L4.40418956,24.1844093 L4.40418956,24.1844093 Z M4.40418956,21.9866071 L13.1953984,21.9866071 C15.6230236,21.9866071 17.5910027,23.9545863 17.5910027,26.3822115 L17.5910027,35.1734203 C17.5910027,37.6010456 15.6230236,39.5690247 13.1953984,39.5690247 L4.40418956,39.5690247 C1.97656429,39.5690247 0.00858516484,37.6010456 0.00858516484,35.1734203 L0.00858516484,26.3822115 C0.00858516484,23.9545863 1.97656429,21.9866071 4.40418956,21.9866071 L4.40418956,21.9866071 Z M26.3822115,2.20638736 C25.1683989,2.20638736 24.1844093,3.19037692 24.1844093,4.40418956 L24.1844093,13.1953984 C24.1844093,14.409211 25.1683989,15.3932005 26.3822115,15.3932005 L35.1734203,15.3932005 C36.387233,15.3932005 37.3712225,14.409211 37.3712225,13.1953984 L37.3712225,4.40418956 C37.3712225,3.19037692 36.387233,2.20638736 35.1734203,2.20638736 L26.3822115,2.20638736 L26.3822115,2.20638736 Z M26.3822115,0.00858516484 L35.1734203,0.00858516484 C37.6010456,0.00858516484 39.5690247,1.97656429 39.5690247,4.40418956 L39.5690247,13.1953984 C39.5690247,14.3611851 39.1059177,15.4792243 38.281582,16.30356 C37.4572463,17.1278958 36.3392071,17.5910027 35.1734203,17.5910027 L26.3822115,17.5910027 C23.9545863,17.5910027 21.9866071,15.6230236 21.9866071,13.1953984 L21.9866071,4.40418956 C21.9866071,1.97656429 23.9545863,0.00858516484 26.3822115,0.00858516484 L26.3822115,0.00858516484 Z M26.3822115,24.1844093 C25.1683989,24.1844093 24.1844093,25.1683989 24.1844093,26.3822115 L24.1844093,35.1734203 C24.1844093,36.387233 25.1683989,37.3712225 26.3822115,37.3712225 L35.1734203,37.3712225 C36.387233,37.3712225 37.3712225,36.387233 37.3712225,35.1734203 L37.3712225,26.3822115 C37.3712225,25.1683989 36.387233,24.1844093 35.1734203,24.1844093 L26.3822115,24.1844093 L26.3822115,24.1844093 Z M26.3822115,21.9866071 L35.1734203,21.9866071 C37.6010456,21.9866071 39.5690247,23.9545863 39.5690247,26.3822115 L39.5690247,35.1734203 C39.5690247,37.6010456 37.6010456,39.5690247 35.1734203,39.5690247 L26.3822115,39.5690247 C23.9545863,39.5690247 21.9866071,37.6010456 21.9866071,35.1734203 L21.9866071,26.3822115 C21.9866071,23.9545863 23.9545863,21.9866071 26.3822115,21.9866071 L26.3822115,21.9866071 Z" id="Shape"></path>
        </g>
      </g>
    </g>
  </symbol>
</svg>