<svg width="44" height="46" viewBox="0 0 44 46" fill="none" xmlns="http://www.w3.org/2000/svg">
<path d="M1.11607 10.478V18.2556C1.11607 18.6698 1.45185 19.0056 1.86607 19.0056H3.19983V44.416C3.19983 44.8302 3.53561 45.166 3.94983 45.166H40.0502C40.4644 45.166 40.8002 44.8302 40.8002 44.416V19.0056H42.134C42.5482 19.0056 42.884 18.6698 42.884 18.2556V10.478C42.884 10.0638 42.5482 9.72801 42.134 9.72801H33.0084C34.3717 8.61005 35.1243 7.01301 35.1243 5.44321C35.1243 3.18853 33.46 0.913208 29.7419 0.913208C25.3899 0.913208 23.0735 4.05461 22.0003 7.05281C20.9272 4.05469 18.6105 0.913208 14.2587 0.913208C10.5406 0.913208 8.87631 3.18853 8.87631 5.44321C8.87631 6.87993 9.51427 8.32085 10.6265 9.39649C10.7476 9.51352 10.8771 9.62133 11.0076 9.7279H1.86637C1.45217 9.7279 1.11637 10.0637 1.11637 10.4779L1.11607 10.478ZM4.69983 19.0056H21.2498V43.666L4.69983 43.6659V19.0056ZM39.3002 43.6656H22.7502V19.0056H39.3002V43.6656ZM41.384 11.2276V17.5052H22.75V11.2276H41.384ZM29.742 2.41281C32.6046 2.41281 33.6245 3.97797 33.6245 5.44281C33.6245 6.47517 33.1532 7.52329 32.3314 8.31797C31.6664 8.96109 30.471 9.72749 28.552 9.72749H22.8544C23.1996 7.66485 24.5844 2.41269 29.742 2.41269V2.41281ZM11.6692 8.31801C10.8475 7.52333 10.3761 6.47521 10.3761 5.44285C10.3761 3.97801 11.3959 2.41285 14.2586 2.41285C19.4006 2.41285 20.795 7.66445 21.1442 9.72765H15.4482C13.5294 9.72765 12.3341 8.96125 11.669 8.31813L11.6692 8.31801ZM2.61639 11.2275H21.2504V17.5051H2.61639V11.2275Z" fill="#04ADBF" stroke="#04ADBF"/>
</svg>
