<svg width="48" height="34" viewBox="0 0 48 34" fill="none" xmlns="http://www.w3.org/2000/svg">
<path d="M24 12.4532C24.8907 12.4532 25.6219 13.1751 25.6219 14.0751C25.6219 14.8063 26.2125 15.397 26.9438 15.397C27.675 15.397 28.2657 14.8063 28.2657 14.0751C28.2657 12.1907 27.0281 10.5782 25.3219 10.0251V9.35008C25.3219 8.61884 24.7313 8.0282 24 8.0282C23.2688 8.0282 22.6781 8.61884 22.6781 9.35008V10.0251C20.9719 10.5876 19.7344 12.1907 19.7344 14.0751C19.7344 16.4282 21.6469 18.3407 24 18.3407H24.0094C24.825 18.4251 25.6218 19.1 25.6218 19.9438C25.6218 20.825 24.9094 21.5376 24.0375 21.5563H24.0093H23.9812C23.1 21.5375 22.3969 20.825 22.3969 19.9438C22.3969 19.2126 21.8062 18.6219 21.075 18.6219C20.3437 18.6219 19.7531 19.2126 19.7531 19.9438C19.7531 21.8282 20.9906 23.4407 22.6969 23.9938V24.6688C22.6969 25.4 23.2875 25.9907 24.0187 25.9907C24.75 25.9907 25.3406 25.4 25.3406 24.6688V23.9938C27.0469 23.4313 28.2844 21.8282 28.2844 19.9438C28.2844 17.5907 26.2125 15.6874 23.8596 15.6874H23.8502C23.0346 15.603 22.3971 14.9186 22.3971 14.0749C22.3783 13.1749 23.1096 12.453 24.0002 12.453L24 12.4532Z" fill="#04ADBF"/>
<path d="M47.624 16.3156C41.3708 5.90921 32.9804 0.181213 23.9992 0.181213C15.018 0.181213 6.62721 5.90921 0.374413 16.3156C0.121289 16.7375 0.121289 17.2625 0.374413 17.675C6.62761 28.0814 15.018 33.8094 23.9992 33.8094C32.9804 33.8094 41.3712 28.0814 47.624 17.675C47.8771 17.2625 47.8771 16.7375 47.624 16.3156ZM23.9992 31.1748C16.1804 31.1748 8.76481 26.15 3.06481 17.0092C8.76481 7.85001 16.1804 2.82481 23.9992 2.82481C31.818 2.82481 39.2336 7.84961 44.9336 17C39.2336 26.15 31.818 31.1752 23.9992 31.1752V31.1748Z" fill="#04ADBF"/>
<path d="M24 4.35321C17.0248 4.35321 11.3532 10.0252 11.3532 17C11.3532 23.9748 17.0252 29.6468 24 29.6468C30.9748 29.6468 36.6468 23.9748 36.6468 17C36.6468 10.0252 30.9748 4.35321 24 4.35321ZM24 27.0032C18.4876 27.0032 13.9968 22.5124 13.9968 17C13.9968 11.4876 18.4876 6.99681 24 6.99681C29.5124 6.99681 34.0032 11.4876 34.0032 17C34.0032 22.5124 29.5124 27.0032 24 27.0032Z" fill="#04ADBF"/>
</svg>
