<svg width="47" height="41" viewBox="0 0 47 41" fill="none" xmlns="http://www.w3.org/2000/svg">
<path d="M30.3058 0.796196C30.2439 0.801976 30.1828 0.812985 30.1228 0.829499L16.4365 4.50684C16.4197 4.51207 16.4029 4.51758 16.3864 4.52363H2.7501C1.28563 4.52363 0.0728302 5.73715 0.0728302 7.2025V27.4032C0.0728302 28.8685 1.28563 30.0823 2.7501 30.0823H2.76688L3.24908 31.8127C3.25045 31.8182 3.2477 31.8245 3.24908 31.8295C3.58521 33.0515 4.75918 33.8095 5.92656 33.8095C6.02256 33.8057 6.11773 33.7889 6.20905 33.7597L19.8954 30.0824H25.6325C25.9098 35.7057 30.5714 40.1996 36.2592 40.1996C42.1245 40.1996 46.9021 35.4191 46.9021 29.5504C46.9021 23.6816 42.1244 18.9012 36.2592 18.9012V7.2035C36.2592 5.73816 35.0461 4.52464 33.5817 4.52464H33.5649L33.0827 2.77745C33.0814 2.77195 33.0841 2.76562 33.0827 2.76067C32.7466 1.53834 31.5729 0.797175 30.4055 0.797175C30.3722 0.795798 30.339 0.79482 30.3058 0.796196ZM30.4554 2.94274C30.786 2.95595 30.9646 3.05421 31.0374 3.32559L31.37 4.52368H24.5851L30.4554 2.94274ZM2.74965 6.65341H17.1176C17.3649 10.221 20.3761 13.0432 24.0191 13.0432C27.6621 13.0432 30.6733 10.221 30.9206 6.65341H33.5813C33.9062 6.65341 34.1301 6.87773 34.1301 7.2025V19.0002L30.6213 15.4726C30.4337 15.2857 30.1834 15.1751 29.9191 15.163C29.6544 15.1506 29.395 15.2373 29.1909 15.4063L23.9858 19.666L14.0077 12.1783C13.7791 12.0074 13.4914 11.9353 13.2094 11.9785C13.0535 12.0066 12.9057 12.0691 12.777 12.1615L2.20031 19.3836V7.2033C2.20031 6.87853 2.42507 6.65341 2.74965 6.65341ZM19.2464 6.65341H28.7914C28.5554 9.05812 26.5205 10.9132 24.0187 10.9132C21.517 10.9132 19.4823 9.05812 19.2464 6.65341ZM13.3428 14.3412L23.3872 21.879C23.5781 22.0215 23.8116 22.0956 24.0498 22.0895C24.288 22.0835 24.5172 21.9976 24.7009 21.8457L29.8062 17.6693L31.9682 19.8324C28.7037 21.279 26.3007 24.3082 25.7486 27.9528H2.7496C2.42502 27.9528 2.20084 27.7288 2.20084 27.4037V21.9459C2.22367 21.9302 2.24595 21.9134 2.26741 21.8961L13.3428 14.3412ZM36.2588 21.0305C40.9737 21.0305 44.773 24.8323 44.773 29.5497C44.773 34.2675 40.9734 38.069 36.2588 38.069C31.5436 38.069 27.7439 34.2672 27.7439 29.5497C27.7439 24.832 31.5434 21.0305 36.2588 21.0305ZM33.0658 26.8877C32.478 26.8877 32.0013 27.3644 32.0013 27.9526C32.0013 28.5407 32.478 29.0174 33.0658 29.0174C33.6536 29.0174 34.13 28.5407 34.13 27.9526C34.13 27.3644 33.6536 26.8877 33.0658 26.8877ZM39.4515 26.8877C38.8637 26.8877 38.3873 27.3644 38.3873 27.9526C38.3873 28.5407 38.8637 29.0174 39.4515 29.0174C40.0393 29.0174 40.516 28.5407 40.516 27.9526C40.516 27.3644 40.0393 26.8877 39.4515 26.8877ZM4.96104 30.0826H11.6961L5.84239 31.6633C5.53734 31.6427 5.36377 31.5249 5.29362 31.264L4.96104 30.0826ZM38.2706 31.0977C37.9284 31.1453 37.6308 31.3564 37.4724 31.6633C37.2666 32.0109 36.7509 32.2124 36.2585 32.2124C35.7659 32.2124 35.2501 32.0109 35.0444 31.6633C34.9462 31.4923 34.8023 31.352 34.6293 31.2581C34.456 31.164 34.2601 31.12 34.0632 31.131C33.691 31.153 33.3574 31.3682 33.1841 31.6985C33.0105 32.0285 33.0224 32.4256 33.2152 32.745C33.9293 33.9513 35.229 34.3424 36.2586 34.3424C37.2878 34.3424 38.5875 33.9513 39.3017 32.745C39.4549 32.516 39.5135 32.2369 39.465 31.9655C39.4166 31.6944 39.2653 31.4528 39.0425 31.2909C38.82 31.1288 38.5432 31.0597 38.2706 31.0977Z" fill="#04ADBF"/>
</svg>
