<svg width="0" height="0" class="hidden">
  <symbol version="1.1" xmlns="http://www.w3.org/2000/svg" xmlns:xlink="http://www.w3.org/1999/xlink" preserveAspectRatio="xMidYMid" viewBox="0 0 256 346" id="java">
    <g>
      <path d="M82.5539491,267.472524 C82.5539491,267.472524 69.35552,275.147869 91.9468218,277.745105 C119.315549,280.867375 133.303389,280.419607 163.463913,274.711273 C163.463913,274.711273 171.393396,279.683258 182.467491,283.989644 C114.855564,312.966982 29.4483782,282.311215 82.5539491,267.472524" fill="#5382A1"></path>
      <path d="M74.2921309,229.658996 C74.2921309,229.658996 59.4888145,240.616727 82.0968727,242.955171 C111.333004,245.971316 134.421411,246.218007 174.373236,238.524975 C174.373236,238.524975 179.899113,244.127185 188.588218,247.190807 C106.841367,271.094691 15.79008,249.075898 74.2921309,229.658996" fill="#5382A1"></path>
      <path d="M143.941818,165.514705 C160.601367,184.695156 139.564684,201.955142 139.564684,201.955142 C139.564684,201.955142 181.866124,180.117876 162.438982,152.772422 C144.294633,127.271098 130.380335,114.600495 205.706705,70.9138618 C205.706705,70.9138618 87.4691491,100.44416 143.941818,165.514705" fill="#E76F00"></path>
      <path d="M233.364015,295.441687 C233.364015,295.441687 243.131113,303.489396 222.60736,309.715316 C183.580858,321.537862 60.1748945,325.107898 25.8932364,310.186356 C13.5698618,304.825251 36.67968,297.385425 43.9491491,295.824291 C51.5304727,294.180305 55.8629236,294.486575 55.8629236,294.486575 C42.15808,284.832116 -32.7195927,313.443607 17.8287709,321.637469 C155.681513,343.993251 269.121164,311.570618 233.364015,295.441687" fill="#5382A1"></path>
      <path d="M88.9008873,190.479825 C88.9008873,190.479825 26.1287564,205.389265 66.6717091,210.803433 C83.7901964,213.095331 117.915462,212.576815 149.702284,209.913484 C175.680233,207.722124 201.765236,203.062924 201.765236,203.062924 C201.765236,203.062924 192.605091,206.985775 185.977949,211.510924 C122.233949,228.275665 -0.907636364,220.476509 34.5432436,203.328233 C64.5241018,188.83584 88.9008873,190.479825 88.9008873,190.479825" fill="#5382A1"></path>
      <path d="M201.506444,253.422313 C266.305164,219.7504 236.344785,187.392 215.432844,191.751447 C210.307258,192.818269 208.021876,193.742662 208.021876,193.742662 C208.021876,193.742662 209.924655,190.761891 213.558924,189.471651 C254.929455,174.927127 286.746065,232.368873 200.204102,255.11936 C200.204102,255.120291 201.206691,254.223825 201.506444,253.422313" fill="#5382A1"></path>
      <path d="M162.438982,0.371432727 C162.438982,0.371432727 198.325527,36.27008 128.402153,91.4720582 C72.3307055,135.753542 115.616116,161.001658 128.37888,189.848669 C95.6490473,160.318371 71.6297309,134.322735 87.7437673,110.128407 C111.395375,74.6132945 176.918342,57.3942691 162.438982,0.371432727" fill="#E76F00"></path>
      <path d="M95.2683055,344.665367 C157.466996,348.646865 252.980131,342.45632 255.24224,313.025629 C255.24224,313.025629 250.893964,324.182575 203.838371,333.042967 C150.750487,343.033484 85.2740655,341.867055 46.4393309,335.464262 C46.4402618,335.463331 54.3892945,342.043927 95.2683055,344.665367" fill="#5382A1"></path>
    </g>
  </symbol>
    <symbol xmlns="http://www.w3.org/2000/svg" version="1.1" viewBox="0 0 40 36" id="swift">
    <defs>
      <linearGradient id="a" x2="50%" x1="50%" y2="100%">
        <stop stop-color="#F88A36" offset="0"></stop>
        <stop stop-color="#FD2020" offset="1"></stop>
      </linearGradient>
    </defs>
    <path d="m29.885 33.047c-4.667 2.696-11.084 2.973-17.54 0.206-5.2273-2.224-9.5646-6.117-12.345-10.565 1.3346 1.112 2.8916 2.002 4.5598 2.78 6.6672 3.125 13.333 2.911 18.024 0.008-0.003-0.003-0.005-0.005-0.007-0.008-6.673-5.116-12.345-11.789-16.571-17.238-0.8901-0.8898-1.5574-2.002-2.2247-3.0029 5.1159 4.671 13.235 10.565 16.126 12.234-6.116-6.451-11.566-14.458-11.344-14.236 9.676 9.787 18.685 15.348 18.685 15.348 0.298 0.168 0.528 0.308 0.713 0.433 0.195-0.496 0.366-1.011 0.51-1.545 1.557-5.672-0.222-12.123-4.115-17.461 9.008 5.4495 14.347 15.681 12.122 24.245-0.058 0.231-0.121 0.459-0.189 0.683 0.026 0.031 0.052 0.063 0.078 0.096 4.448 5.561 3.225 11.455 2.669 10.343-2.413-4.722-6.88-3.278-9.151-2.32z" fill="url(#a)"></path>
  </symbol>
    <symbol xmlns="http://www.w3.org/2000/svg" preserveAspectRatio="xMidYMid" viewBox="0 0 256 256" id="cocoapods">
    <path d="M255.349 255.35H0V0h255.349v255.35z" fill="#FA2A00"></path>
    <path d="M160.993 135.984c-3.837 21.052-21.917 38.274-49.807 38.274-33.316 0-53.375-24.471-53.375-52.361 0-27.33 19.066-52.389 53.084-52.389 29.18 0 47.261 18.357 49.956 41.267H136.8c-2.128-11.667-10.959-20.484-25.613-20.484-19.08 0-29.89 15.086-29.89 31.606 0 17.499 12.094 31.593 30.174 31.593 13.377 0 22.2-7.689 25.045-17.506h24.478zM188.93 71.835l-14.698 6.298 18.42 43.076-18.427 43.09 14.704 6.285 12.363-29.117.064.134 8.554-20.392-20.98-49.374z" fill="#FFF"></path>
  </symbol>
  <symbol version="1.1" xmlns="http://www.w3.org/2000/svg" xmlns:xlink="http://www.w3.org/1999/xlink" preserveAspectRatio="xMidYMid" viewBox="0 0 256 256" id="realm">
    <defs>
      <circle id="path-1" cx="128" cy="128" r="128"></circle>
    </defs>
    <g>
      <mask id="mask-2" fill="white">
        <use xlink:href="#path-1"></use>
      </mask>
      <use fill="#FFFFFF" xlink:href="#path-1"></use>
      <g mask="url(#mask-2)" fill-rule="nonzero">
        <g transform="translate(-2.000000, -1.000000)">
          <path d="M185.588388,12.4807473 C168.751889,4.47811859 149.91586,0 130.033911,0 C95.3500698,0 63.8492188,13.6279973 40.5939705,35.8213782 C15.8698025,59.4166058 229.34929,33.2809293 185.588388,12.4807473 Z" fill="#FCC397"></path>
          <path d="M231.401796,48.7266969 C231.549809,48.9116751 220.834063,63.23373 188.628193,67.2996821 C123.622837,75.506529 12.0194794,76.3742378 12.1876899,76.0046213 C19.091605,60.8343396 28.8351745,47.2294085 40.7393437,35.8688828 C54.7653095,40.2480967 70.0319939,41.3393677 84.4725423,38.6782217 C108.316523,34.3160955 129.530336,20.5386868 153.115612,14.9240689 C163.584369,12.4090847 174.989797,11.674463 185.731681,12.5277513 C203.581076,21.0114938 219.183204,33.4565629 231.401796,48.7266969 Z" fill="#FC9F95"></path>
          <path d="M257.961711,109.343099 C258.043827,109.865066 111.374722,123.651677 39.9137772,119.633272 C16.6310778,118.324035 2.89063449,104.247239 3.04821583,103.478658 C5.01196813,93.9007297 8.03260847,84.7080821 11.9829305,76.0279206 C32.6282657,64.727606 56.9174137,58.2060871 80.4698477,58.463451 C110.00534,58.7657766 138.980304,68.6129527 168.515795,67.8787334 C190.450164,67.3208778 212.558838,60.3201429 231.19667,48.75 C244.932124,65.9157248 254.391846,86.651465 257.961711,109.343099 Z" fill="#F77C88"></path>
          <path d="M259.131496,128.910143 C259.131496,129.628061 259.114024,131.05976 259.114024,131.05976 C259.114024,131.05976 218.376569,141.334768 165.911876,140.721752 C92.4271468,139.86313 -0.0018332952,128.009991 0,127.79293 C0.072609279,119.196036 0.982464738,110.798832 2.65201085,102.678872 C20.2578373,113.542049 41.6092615,118.862384 62.1598278,116.623031 C78.5013626,114.852267 94.0236651,108.805756 109.157909,102.37054 C124.292154,95.9353237 139.340164,89.0250247 155.336759,85.3107393 C178.8358,79.8688788 203.973306,81.769211 226.437527,90.6230314 C237.365975,94.9327413 248.209475,101.128667 257.548912,108.600116 C258.590625,115.217105 259.131496,122.00046 259.131496,128.910143 Z" fill="#F25192"></path>
          <path d="M112.194229,171.016926 C73.3207919,178.195662 6.60923641,169.915695 6.44112144,169.40374 C2.26108681,156.674444 0,143.074904 0,128.947259 C0,128.574173 0.00157686901,128.201455 0.00472430587,127.829112 C5.90601894,123.14968 12.7991299,118.977159 19.5282573,115.734969 C36.1716147,107.658557 55.0570825,104.289787 73.4682576,106.10374 C91.6638456,107.917694 109.0402,114.655235 125.856028,121.911049 C140.023315,128.024052 154.098788,134.627549 168.804413,139.190445 C170.24494,139.637415 154.98492,163.114793 112.194229,171.016926 Z" fill="#D34CA3"></path>
          <path d="M254.617923,163.852293 C251.903545,168.436446 226.087578,183.879397 191.092641,186.524196 C144.757667,190.026036 90.0201665,176.020042 108.177676,168.892402 C136.764583,157.663166 161.557149,137.493731 191.09264,129.071804 C213.156826,122.751101 237.614951,123.75047 259.274886,131.388025 C259.092478,142.614456 257.482263,153.493772 254.617923,163.852293 Z" fill="#9A50A5"></path>
          <path d="M242.591209,193.572845 C220.218109,232.415825 57.9526675,242.156751 34.2480237,216.027986 C22.1815466,202.727548 12.8412554,186.908488 7.109375,169.453032 C27.0363087,158.063795 50.3628796,153.226586 72.7839829,156.293031 C101.802065,160.266453 127.801921,176.462467 156.431945,182.768114 C179.542929,187.86446 204.033672,186.266453 226.282306,178.233231 C236.339884,174.573748 246.312486,169.669685 255.130949,163.606604 C252.201258,174.202198 247.959386,184.252904 242.591209,193.572845 Z" fill="#59569E"></path>
          <path d="M242.057658,193.029135 C219.731593,232.050958 177.694972,258.34634 129.516735,258.34634 C91.4518318,258.34634 57.2207364,241.93186 33.515625,215.795077 C37.4494228,217.298987 41.8491507,218.598997 45.8817079,219.735044 C68.4321637,225.954313 92.70732,225.781556 115.128423,219.173582 C129.486553,214.941024 142.982332,208.203483 157.081757,203.107137 C183.986462,193.4053 213.599477,189.98866 242.057658,193.029135 Z" fill="#39477F"></path>
        </g>
      </g>
    </g>
  </symbol>
    <symbol xmlns="http://www.w3.org/2000/svg" preserveAspectRatio="xMidYMid" viewBox="0 0 256 247" id="reactivex">
    <defs>
      <radialGradient cx="78.764%" cy="37.848%" fx="78.764%" fy="37.848%" r="89.873%" id="a">
        <stop stop-color="#F80090" offset="0%"></stop>
        <stop stop-color="#4D008E" offset="100%"></stop>
      </radialGradient>
      <radialGradient cx="68.739%" cy="4.398%" fx="68.739%" fy="4.398%" r="81.728%" id="b">
        <stop stop-color="#57008E" offset="0%"></stop>
        <stop stop-color="#5C008E" offset="29.175%"></stop>
        <stop stop-color="#F80090" offset="100%"></stop>
      </radialGradient>
      <linearGradient x1="18.239%" y1="0%" x2="81.159%" y2="84.337%" id="c">
        <stop stop-color="#F70090" offset="0%"></stop>
        <stop stop-color="#E50090" offset="66.971%"></stop>
        <stop stop-color="#D6008F" stop-opacity=".2" offset="82.715%"></stop>
        <stop stop-color="#C10090" stop-opacity="0" offset="100%"></stop>
      </linearGradient>
      <linearGradient x1="64.906%" y1="71.559%" x2="44.29%" y2="50%" id="d">
        <stop stop-color="#B2008F" stop-opacity=".151" offset="0%"></stop>
        <stop stop-color="#F70090" stop-opacity=".4" offset="40.035%"></stop>
        <stop stop-color="#F60090" stop-opacity=".892" offset="64.9%"></stop>
        <stop stop-color="#FF0090" offset="100%"></stop>
      </linearGradient>
    </defs>
    <path d="M16.685 157.125C3.567 87.38 38.236 20.115 117.81 11.166 106.836-.559 91.845-.647 84.949.78 72.77 4.66 73.152 12.541 59.338 22.72c-13.733 7.843-20.63 1.837-30.633 9.968-9.983 8.07-3.017 26.597-7.204 30.2-4.156 7.203-17.047 13.62-19.394 22.718-1.94 11.636 5.264 19.948 4.987 29.922.832 8.311-8.274 13.011-6.966 19.748 3.919 11.005 11.472 17.629 15.033 20.682.816.576 1.678 1.993 1.523 1.167z" fill="#FF0090"></path>
    <path d="M158.275 60.579a5.264 5.264 0 1 1 .001-10.53 5.264 5.264 0 0 1 0 10.53zM19.757 164.733C7.15 104.117 46.16 53.468 121.704 78.403c44.327 25.932 100.09 24.243 102.603 7.48 6.207-20.095-28.26-61.506-79.792-72.311C42.281-6.377-12.834 104.117 19.757 164.732z" fill="url(#a)"></path>
    <path d="M187.459 171.493c15.18 1.645 29.59-1.998 42.943-12.883-20.174 22.503-45.4 33.817-74.343 36.895 13.82 11.749 27.147 17.041 39.896 14.776-35.426 9.776-65.107-.984-101.213-36.94-1.89 9.679 8.333 24.76 18.87 34.386-61.138-26.505-66.498-109.073 8.053-129.383-77.28-37.13-120.979 35.014-99.51 94.142 21.007 45.54 76.985 80.6 138.337 72.89 29.8-3.65 74.302-24.197 92.482-72.89-12.813 11.498-35.716 21.512-45.936 22.28 34.59-17.287 53.264-46.662 48.022-86.81-7.165 17.058-16.619 30.159-28.444 39.156 25.12-39.157 20.81-59.396 2.217-81.639 13.298 36.572-3.905 77.161-41.374 106.02z" fill="url(#b)"></path>
    <path d="M169.707 213.626c-2.625-.49 5.95 3.473-10.628-.916-16.577-4.388-33.456-8.617-64.337-39.37-1.89 9.68 8.333 24.76 18.87 34.387 28.444 19.838 9.1 10.56 52.44 25.542 3.478-6.922 3.655-13.074 3.655-19.643z" fill="url(#c)"></path>
    <path d="M114.601 57.851s3.768-5.562 5.235-8.07c1.798-3.074 4.558-8.676 4.558-8.676S95.39 31.642 88.272 30.487c-22.127 5.744-22.207 15.014-9.837 29.203 1.376 1.58 36.166-1.839 36.166-1.839z" fill="url(#d)"></path>
  </symbol>
  <symbol xmlns="http://www.w3.org/2000/svg" viewBox="0 0 48 48" id="firebase">
    <path fill="#ff8f00" d="M8,37L23.234,8.436c0.321-0.602,1.189-0.591,1.494,0.02L30,19L8,37z"></path>
    <path fill="#ffa000" d="M8,36.992l5.546-34.199c0.145-0.895,1.347-1.089,1.767-0.285L26,22.992L8,36.992z"></path>
    <path fill="#ff6f00" d="M8.008 36.986L8.208 36.829 25.737 22.488 20.793 13.012z"></path>
    <path fill="#ffc400" d="M8,37l26.666-25.713c0.559-0.539,1.492-0.221,1.606,0.547L40,37l-15,8.743 c-0.609,0.342-1.352,0.342-1.961,0L8,37z"></path>
  </symbol>
  <symbol version="1.1" id="mparticle" xmlns="http://www.w3.org/2000/svg" xmlns:xlink="http://www.w3.org/1999/xlink" x="0px" y="0px" xml:space="preserve" viewBox="0 0 40.3 34">
    <g id="Symbols">
      <g id="Menu---white" transform="translate(-285.000000, -26.000000)">
        <g id="logo" transform="translate(285.000000, 26.000000)">
          <polygon id="Fill-1" points="26.8,25.5 26.8,34 40.3,25.5 40.3,17 			"></polygon>
          <polygon id="Fill-2" points="13.4,25.5 13.4,34 26.8,25.5 26.8,17 			"></polygon>
          <polygon id="Fill-3" points="0,25.5 0,34 13.4,25.5 13.4,17 			"></polygon>
          <polygon id="Fill-4" points="40.3,0 26.8,8.5 26.8,17 40.3,8.5 			"></polygon>
          <polygon id="Fill-5" points="26.8,0 13.4,8.5 13.4,17 26.8,8.5 			"></polygon>
          <polygon id="Fill-6" points="13.4,0 0,8.5 0,17 13.4,8.5 			"></polygon>
        </g>
      </g>
    </g>
  </symbol>
  <symbol version="1.1" xmlns="http://www.w3.org/2000/svg" xmlns:xlink="http://www.w3.org/1999/xlink" preserveAspectRatio="xMidYMid" viewBox="0 0 256 188" id="gradle">
    <g>
      <path d="M242.08678,11.8947553 C226.620445,-3.57845046 201.673638,-4.00992041 185.681477,10.9191919 C184.914067,11.6431863 184.467166,12.6433945 184.439851,13.6980695 C184.445493,14.7482934 184.858879,15.7552589 185.592789,16.5065097 L190.647982,21.739077 C192.011075,23.0964262 194.163868,23.2474994 195.703174,22.0938274 C199.713048,19.0675791 204.603476,17.4374363 209.627124,17.4525105 C219.052991,17.4112768 227.56987,23.0684934 231.186492,31.7730153 C234.803114,40.4775372 232.802822,50.5045093 226.123015,57.1549851 C193.89986,89.3781401 150.886382,-0.905819089 53.270916,45.5369117 C49.9136349,47.1062801 47.3653193,50.0077326 46.2423493,53.5394732 C45.1193793,57.0712139 45.5240245,60.9116046 47.3584105,64.1317416 L64.0908011,93.0734561 C67.7236263,99.3391772 75.708598,101.536031 82.0352554,98.0103982 L82.4491308,97.7738979 L82.1239429,98.0103982 L89.5441374,93.8420818 C97.8137349,88.7071757 105.627223,82.8717856 112.898534,76.4001905 C114.43778,75.0798243 116.710106,75.0798243 118.249352,76.4001905 L118.249352,76.4001905 C119.158022,77.1129332 119.691473,78.2016086 119.697915,79.3564433 C119.719135,80.4788344 119.255955,81.5559976 118.426727,82.312696 C110.76814,89.1108483 102.528036,95.2241548 93.8011413,100.582338 L93.5646411,100.582338 L86.1444467,104.721092 C83.0080654,106.498631 79.4617275,107.425978 75.8566871,107.411282 C68.2794178,107.411872 61.2698464,103.395151 57.4392324,96.8574596 L41.6232802,69.5121216 C11.2330018,90.9745166 -7.21401537,132.332493 2.68943136,184.805979 C3.05238462,186.613115 4.630317,187.91984 6.47343489,187.939608 L24.5065767,187.939608 C26.4460384,187.939608 28.0814398,186.494195 28.3201428,184.569479 C29.9827135,171.36939 41.2081637,161.469113 54.5125422,161.469113 C67.8169207,161.469113 79.0423709,171.36939 80.7049416,184.569479 C80.9574458,186.498798 82.6022985,187.939608 84.5480702,187.939608 L102.108212,187.939608 C104.047673,187.939608 105.683075,186.494195 105.921778,184.569479 C107.637793,171.405162 118.853268,161.556778 132.128958,161.556778 C145.404648,161.556778 156.620124,171.405162 158.336139,184.569479 C158.574842,186.494195 160.210243,187.939608 162.149705,187.939608 L179.502909,187.939608 C181.602533,187.939608 183.313735,186.254979 183.346037,184.155604 C183.759913,159.707393 190.352356,131.622992 209.154124,117.551229 C274.280372,68.8321835 257.163669,27.060332 242.08678,11.8947553 Z M175.65978,85.5941366 L163.243464,79.3564433 L163.243464,79.3564433 C163.229874,75.6716754 165.795264,72.4793993 169.39663,71.69974 C172.997995,70.9200808 176.653993,72.7654893 178.165574,76.1259689 C179.677154,79.4864485 178.632425,83.4462961 175.65978,85.6236991 L175.65978,85.5941366 Z" fill="#02303A" fill-rule="nonzero"></path>
    </g>
  </symbol>
  <symbol version="1.1" id="hockeyapp" xmlns="http://www.w3.org/2000/svg" xmlns:xlink="http://www.w3.org/1999/xlink" x="0px" y="0px" xml:space="preserve" viewBox="15 287 384 219.9">
    <path id="Symbol_1_" d="M353.5,441c1.1-0.8,2.7-0.1,2.9,1.2c0.1,0.8,0.2,1.7,0.2,2.5c0,23.3-49.8,55-149.6,55
	S57.4,468,57.4,444.9c0-0.8,0.1-1.7,0.2-2.4c0.2-1.4,1.8-2.1,2.9-1.2c24.8,17.5,73.6,32.4,146.5,32.4
	C280,473.7,328.8,458.7,353.5,441z M207,428.8c-80.9,0-134.4-18-160.6-38.9c-0.9-0.7-2.2-0.5-2.8,0.6c-1.4,2.6-2.1,5.4-2.1,8.2
	c0,25.7,55.2,60,165.5,60s165.5-34.2,165.5-60c0-2.9-0.7-5.6-2.1-8.2c-0.6-1-1.9-1.3-2.8-0.6C341.4,410.7,287.9,428.8,207,428.8z
	 M386.5,344.6c0,29.6-59.8,69.2-179.5,69.2S27.5,374.3,27.5,344.6s59.8-50.5,179.5-50.5S386.5,315,386.5,344.6z M334.1,340
	c0-14.9-42.4-23.4-127.1-23.4S79.9,325.1,79.9,340s42.4,36.5,127.1,36.5S334.1,354.8,334.1,340z"></path>
  </symbol>
  <symbol id="glide" xmlns="http://www.w3.org/2000/svg" viewBox="0 0 1244.1 522.8">
    <path d="M128.5 8.6c26-9.9 54.7-10.2 81.9-6 20.8 3.5 41.8 11.1 56.7 26.6 14.2 14.9 20.6 35.5 22.8 55.6 3 29.8-1.1 59.8-7 89-4.9 22.9-9.9 45.8-14.9 68.7 2.5-.6 4.3-2.6 6.4-3.9 16.5-11.5 30.5-28 35.4-47.9C322.5 130.2 335.2 69.6 347.9 9c1-5.1 6.6-8.6 11.6-7.2 18.8 3.1 37.9 10.7 50.1 25.9 10 12.2 12.7 28.8 10.3 44.1-2.2 13.1-4.9 26.1-7.5 39.1-10.9 54.4-22.4 108.7-34 163-1 5-.9 10.5 1.9 14.9 2.9 4.6 8.1 7 13.2 8.2 6.7 1.8 13.7 1.4 20.6 1.3 1.2-2.7 0-5.8.7-8.6 2.9-18.4 6.7-36.7 10.2-55 7.2-36.1 14.5-72.2 22-108.3.9-4.3 5.1-7.3 9.4-7.5 22.7-4.5 45.4-9.4 68-14 4.6-.9 9.2 2.5 10.3 6.9.8 2.9-.3 5.8-.8 8.6-9.7 46-19.4 91.9-29.1 137.8-1.2 5.9-2.6 11.8-3.6 17.7-.7 6-.3 12.7 3.6 17.5 3 3.9 8 5.4 12.7 5.3 6.5-.2 13-1 19.5-1.6-3.3-20-1.7-40.5 1.7-60.3 5.9-32.4 18.6-63.9 39-89.9 10.2-12.7 22.1-24.5 36.5-32.3 18.6-10.3 40.4-13.8 61.4-11.5 7.3.8 14.5 3 20.8 6.8 6.8-33.4 13.5-66.8 20.2-100.2.5-3.4 2.9-6.4 6.1-7.6 3-1.3 6.3-.1 9.3.4C748.3 6 764.5 13 776.1 25.2c9 9.5 14.1 22.5 14.4 35.6.6 11.2-2.4 22.1-4.6 33-12 57.8-24.4 115.6-36.8 173.4-1.1 5.1-2.5 10.5-1.3 15.8 1.2 6.5 6.8 11.6 13.1 13.2 6.9 1.8 14.1.4 21-.3-8.1-32.5-3.4-67.1 8.9-97.9 7.4-18.4 17.9-35.8 31.5-50.4 7.8-8.2 16.5-15.6 25.6-22.2 16-11.6 34-20.8 53.4-24.4 15.1-2.8 31.3-1.9 45.2 5 11.2 5.4 20.4 15 25.4 26.5 6.7 15.5 7 33.5 1.1 49.3-7.9 21.9-22 40.9-37.2 58.3-16.5 18.7-35.4 35.2-55 50.5 4.2 3.5 8.5 7.2 13.9 8.9 10.1 3.1 20.9 1.3 30.9-1.4 19.4-5.7 37-15.8 54.5-25.7 33-18.9 65.8-38.8 101.5-52.4 23.3-8.9 47.9-15.1 73-16.7 9.9-.6 20.1-1 29.9 1.6 6.9 1.8 14.3 4.3 18.7 10.3 11.6 14.6 22.2 30 31.9 46 3 5.1 6.2 10.2 8.6 15.7 1.5 4.9-3.4 9-7.6 10.4-2.6 1.1-5.2-.1-7.6-.9-26.2-8.2-53.5-12.9-81-12.7-41.2 0-81.4 11.8-119 27.9-40.9 17-80 39.6-123.9 48.1-30.5 6.1-62.8 2.4-91.2-10.3-28.7 13-60.5 18-91.9 18.2-14.5.3-29.5-4.5-39.9-14.8-5.2-5.2-9.4-11.6-10.7-18.9-.3.2-.8.6-1.1.8-7.5 11.3-19 19.6-31.3 25-15.9 7.1-33.9 9.2-50.8 5.3-11.1-2.5-21.7-7.9-29.6-16.1-29.3 12-61.1 20.6-93.1 17.5-12.9-1.5-25.6-7.2-34.7-16.7-26.2 10.8-54.2 18.2-82.7 17.2-14.2-.2-28.3-5.7-38.8-15.4-8.9-8.2-13.9-19.9-15.9-31.6-1.6-8.7-1.6-17.6-1.2-26.4-12.2 9.6-25 18.4-38.5 26.1-4.8 20.5-9.1 41.1-14.1 61.6-9.4 37-27 72.2-52.6 100.7-20.1 22.2-45.6 40.5-74.9 47.8-23.8 6-49.9 3.3-71.6-8.5-12.1-6.7-22.2-16.9-28.8-29C1.8 465.1-1.3 445.1.5 425.8c1.9-21.3 9.5-42.3 22.9-59.2 5-6.3 10.8-12.8 19-14.8 13.9-3.5 28.3.6 41.1 5.9 8.7 3.8 17.2 8.5 24.5 14.6 2 1.9 4.4 3.8 5 6.6.1 1.5-1.9 1.8-2.8 2.5-17.3 8.6-31.1 23.8-38.8 41.4-3.6 8.6-6.1 18.2-4.3 27.5.9 5.1 4.1 9.9 9 12 7.7 3.9 16.8 2 24.1-1.8 11.7-6.1 20.8-16.1 28.1-26.8 9.5-14.2 16-30.4 19.8-47.1 3.7-15.6 7.2-31.2 11.3-46.7-10 .8-20 1.7-30 .6-13.2-2.1-26.7-3.8-39.5-8.3-17.8-5.9-34.8-15.3-48.3-28.5-11-10.8-19.2-24.2-24.6-38.6-7.1-18.5-9.9-38.5-10.2-58.3-.2-15.9 1-32 5.1-47.5C20.3 128 33.7 98 52.1 71.4c19-27.4 44.8-51.1 76.4-62.8m47.9 52.9c-16.8 4.7-30.5 16.8-41 30.3-19.8 25.7-29.6 57.9-32.6 89.9-2.1 22.2-1.1 45.6 8.6 66.1 4.2 8.1 9.4 16.5 18.1 20.2 12.8 5.5 27 5.2 40.6 4.4 6.9-31.1 13-62.4 20-93.4 5.8-24.2 11.9-48.4 14.9-73.1 1.2-10.8 2.2-21.9-.1-32.6-1.1-4.7-3.4-9.9-8.2-11.8-6.5-2.2-13.7-1.8-20.3 0M906 154.3c-12.4 16.8-19.4 36.7-25.1 56.5-3.5 13.5-6.8 27.1-8.2 41 19.2-19.9 34.6-43.6 44.3-69.5 3.9-10.4 6.5-21.4 6.6-32.4.1-2.6-.8-6.5-4.1-6.3-5.9 1.1-9.9 6.3-13.5 10.7m-235.2-3c-5.4 1.9-9.9 5.9-13.5 10.2-11.3 13-19 28.7-24.3 44.9-5.2 16-8.3 32.7-9.9 49.5-.6 8.9-1.2 18.1.8 26.9 1.1 4.4 3.7 9.3 8.6 10.1 6.6 1.4 12.8-2.4 18-6.2 8.4-6.3 12.5-16.7 14.6-26.7 7-33.7 14-67.3 21.1-101 .9-2.9-1.2-5.8-3.4-7.5-3.6-2.2-8.2-1.3-12-.2z"></path>
    <path d="M476.8 2.2c2.8-1.3 5.8-.4 8.7.1 14.4 3 28.7 8.8 39.7 18.8 7.9 7.3 13.5 17.2 15.4 27.8 1.7 8.7 1.2 17.8-.6 26.5-.8 3.5-4 6.3-7.5 6.9-22.3 4.4-44.6 8.8-66.9 13.1-6.6 1.8-13.3-4.9-11.4-11.5C459.7 59 465.3 34 470.9 9.1c.7-3.1 2.9-5.8 5.9-6.9z"></path>
  </symbol>
</svg>