<svg width="0" height="0" class="hidden">
  <symbol fill="none" xmlns="http://www.w3.org/2000/svg" viewBox="0 0 60 60" id="facebook">
    <g id="Facebook">
      <path id="Shape" fill-rule="evenodd" clip-rule="evenodd" d="M32.1269 46.6393V30.3178H36.6324L37.2295 24.6933H32.1269L32.1346 21.8781C32.1346 20.4112 32.274 19.6251 34.381 19.6251H37.1976V14H32.6915C27.2789 14 25.3738 16.7285 25.3738 21.317V24.6939H22V30.3184H25.3738V46.6393H32.1269Z" fill="white"></path>
    </g>
  </symbol>
  <symbol fill="none" xmlns="http://www.w3.org/2000/svg" viewBox="0 0 60 60" id="linkedin">
    <g id="LinkedIN">
      <path id="Shape" fill-rule="evenodd" clip-rule="evenodd" d="M21.6485 18.5284C21.6043 16.5255 20.1721 15 17.8463 15C15.5205 15 14 16.5255 14 18.5284C14 20.4898 15.4756 22.0592 17.758 22.0592H17.8015C20.1721 22.0592 21.6485 20.4898 21.6485 18.5284ZM21.2007 24.8473H14.402V45.2744H21.2007V24.8473ZM37.8914 24.3676C42.3653 24.3676 45.7192 27.2878 45.7192 33.5622L45.719 45.2745H38.9206V34.3459C38.9206 31.6009 37.9368 29.7278 35.4756 29.7278C33.5974 29.7278 32.4786 30.9905 31.9872 32.2102C31.8075 32.6473 31.7633 33.2563 31.7633 33.8668V45.275H24.9639C24.9639 45.275 25.0535 26.7646 24.9639 24.8479H31.7633V27.7412C32.6657 26.3503 34.2818 24.3676 37.8914 24.3676Z" fill="white"></path>
    </g>
  </symbol>
  <symbol fill="none" xmlns="http://www.w3.org/2000/svg" viewBox="0 0 60 60" id="twitter">
    <g id="Twitter">
      <path id="Shape" fill-rule="evenodd" clip-rule="evenodd" d="M29.1015 24.3844L29.1645 25.4224L28.1152 25.2953C24.2961 24.8081 20.9596 23.1556 18.1267 20.3804L16.7417 19.0034L16.385 20.0203C15.6295 22.2871 16.1122 24.681 17.686 26.291C18.5254 27.1808 18.3365 27.3079 16.8886 26.7783C16.385 26.6088 15.9443 26.4817 15.9023 26.5453C15.7554 26.6935 16.2591 28.6214 16.6578 29.384C17.2034 30.4433 18.3155 31.4814 19.5326 32.0957L20.5609 32.583L19.3438 32.6042C18.1686 32.6042 18.1267 32.6254 18.2526 33.0702C18.6723 34.4473 20.33 35.909 22.1767 36.5446L23.4777 36.9895L22.3445 37.6674C20.6658 38.6419 18.6933 39.1927 16.7207 39.2351C15.7764 39.2563 15 39.341 15 39.4046C15 39.6164 17.5601 40.8028 19.05 41.2689C23.5197 42.6459 28.8287 42.0527 32.8157 39.7012C35.6486 38.0275 38.4815 34.7015 39.8035 31.4814C40.517 29.7654 41.2305 26.63 41.2305 25.1259C41.2305 24.1513 41.2934 24.0242 42.4686 22.8591C43.161 22.1811 43.8116 21.4397 43.9375 21.2278C44.1473 20.8253 44.1263 20.8253 43.0561 21.1854C41.2724 21.821 41.0206 21.7362 41.902 20.7829C42.5525 20.105 43.3289 18.8763 43.3289 18.5161C43.3289 18.4526 43.0141 18.5585 42.6574 18.7492C42.2797 18.961 41.4403 19.2788 40.8108 19.4694L39.6776 19.8296L38.6494 19.1305C38.0828 18.7492 37.2854 18.3255 36.8657 18.1983C35.7955 17.9017 34.1587 17.9441 33.1935 18.2831C30.5704 19.2364 28.9126 21.6939 29.1015 24.3844Z" fill="white"></path>
    </g>
  </symbol>
</svg>